{
copyright = "Copyright 2015 Mohamed Gaber (gaber@gaberism.net)Copyright 2015 Mohamed Gaber (gaber@gaberism.net)";
customParameters = (
{
name = license;
value = "This Font Software is licensed under the SIL Open Font License, Version 1.1. This license is available with a FAQ at: http://scripts.sil.org/OFL";
},
{
name = licenseURL;
value = "http://scripts.sil.org/OFL";
},
{
name = glyphOrder;
value = (
    ".notdef",
    uni0000,
    uni000D,
    space,
    exclam,
    quotedbl,
    numbersign,
    dollar,
    percent,
    ampersand,
    quotesingle,
    parenleft,
    parenright,
    asterisk,
    plus,
    comma,
    hyphen,
    period,
    slash,
    zero,
    one,
    two,
    three,
    four,
    five,
    six,
    seven,
    eight,
    nine,
    colon,
    semicolon,
    less,
    equal,
    greater,
    question,
    at,
    A,
    B,
    C,
    D,
    E,
    F,
    G,
    H,
    I,
    J,
    K,
    L,
    M,
    N,
    O,
    P,
    Q,
    R,
    S,
    T,
    U,
    V,
    W,
    X,
    Y,
    Z,
    bracketleft,
    backslash,
    bracketright,
    asciicircum,
    underscore,
    grave,
    a,
    b,
    c,
    d,
    e,
    f,
    g,
    h,
    i,
    j,
    k,
    l,
    m,
    n,
    o,
    p,
    q,
    r,
    s,
    t,
    u,
    v,
    w,
    x,
    y,
    z,
    braceleft,
    bar,
    braceright,
    asciitilde,
    uni00A0,
    exclamdown,
    cent,
    sterling,
    currency,
    yen,
    brokenbar,
    section,
    dieresis,
    copyright,
    ordfeminine,
    guillemotleft,
    logicalnot,
    registered,
    macron,
    degree,
    plusminus,
    twosuperior,
    threesuperior,
    acute,
    mu,
    paragraph,
    periodcentered,
    cedilla,
    onesuperior,
    ordmasculine,
    guillemotright,
    onequarter,
    onehalf,
    threequarters,
    questiondown,
    Agrave,
    Aacute,
    Acircumflex,
    Atilde,
    Adieresis,
    Aring,
    AE,
    Ccedilla,
    Egrave,
    Eacute,
    Ecircumflex,
    Edieresis,
    Igrave,
    Iacute,

glyphs = (
{
glyphname = exclam;
layers = (
{
layerId = "E174F030-6324-451A-8951-EA6336064495";
name = Bold;
paths = (
{
closed = 1;
nodes = (
"68 0 LINE",
"68 161 LINE",
"212 161 LINE",
"212 0 LINE"
);
},
{
closed = 1;
nodes = (
"81 250 LINE",
"68 680 LINE",
"213 680 LINE",
"199 250 LINE"
);
}
);
width = 280;
}
);
unicode = 0021;
},
{
glyphname = quotedbl;
layers = (
{
layerId = "E174F030-6324-451A-8951-EA6336064495";
name = Bold;
paths = (
{
closed = 1;
nodes = (
"350 440 LINE",
"232 440 LINE",
"228 680 LINE",
"357 680 LINE"
);
},
{
closed = 1;
nodes = (
"178 440 LINE",
"60 440 LINE",
"55 680 LINE",
"184 680 LINE"
);
}
);
width = 411;
}
);
leftKerningGroup = quotedbl;
rightKerningGroup = quotedbl;
unicode = 0022;
},
{
glyphname = numbersign;
layers = (
{
layerId = "E174F030-6324-451A-8951-EA6336064495";
name = Bold;
paths = (
{
closed = 1;
nodes = (
"544 149 LINE",
"448 149 LINE",
"448 0 LINE",
"332 0 LINE",
"332 149 LINE",
"228 149 LINE",
"228 0 LINE",
"112 0 LINE",
"112 149 LINE",
"16 149 LINE",
"16 261 LINE",
"112 261 LINE",
"112 387 LINE",
"16 387 LINE",
"16 499 LINE",
"112 499 LINE",
"112 660 LINE",
"228 660 LINE",
"228 499 LINE",
"332 499 LINE",
"332 660 LINE",
"448 660 LINE",
"448 499 LINE",
"544 499 LINE",
"544 387 LINE",
"448 387 LINE",
"448 261 LINE",
"544 261 LINE"
);
},
{
closed = 1;
nodes = (
"332 261 LINE",
"332 387 LINE",
"228 387 LINE",
"228 261 LINE"
);
}
);
width = 560;
}
);
rightKerningGroup = numbersign;
unicode = 0023;
},
{
glyphname = dollar;
layers = (
{
layerId = "E174F030-6324-451A-8951-EA6336064495";
name = Bold;
paths = (
{
closed = 1;
nodes = (
"508 60 OFFCURVE",
"416 -12 OFFCURVE",
"280 -12 CURVE SMOOTH",
"279 -12 LINE",
"264 -130 LINE",
"215 -128 OFFCURVE",
"190 -126 OFFCURVE",
"190 -123 CURVE",
"204 -7 LINE",
"155 -1 OFFCURVE",
"113 6 OFFCURVE",
"80 14 CURVE",
"60 18 LINE",
"73 122 LINE",
"126 115 OFFCURVE",
"174 110 OFFCURVE",
"219 107 CURVE",
"241 281 LINE",
"104 322 OFFCURVE",
"52 375 OFFCURVE",
"52 476 CURVE SMOOTH",
"52 608 OFFCURVE",
"137 672 OFFCURVE",
"277 672 CURVE SMOOTH",
"290 672 LINE",
"308 810 LINE",
"382 810 LINE",
"364 666 LINE",
"405 662 OFFCURVE",
"443 657 OFFCURVE",
"478 650 CURVE SMOOTH",
"495 646 LINE",
"484 540 LINE",
"435 545 OFFCURVE",
"390 549 OFFCURVE",
"349 552 CURVE",
"329 391 LINE",
"468 347 OFFCURVE",
"508 306 OFFCURVE",
"508 199 CURVE SMOOTH"
);
},
{
closed = 1;
nodes = (
"185 453 OFFCURVE",
"201 436 OFFCURVE",
"258 415 CURVE",
"275 554 LINE",
"215 551 OFFCURVE",
"185 528 OFFCURVE",
"185 485 CURVE SMOOTH"
);
},
{
closed = 1;
nodes = (
"375 222 OFFCURVE",
"360 240 OFFCURVE",
"313 259 CURVE",
"294 106 LINE",
"348 112 OFFCURVE",
"375 140 OFFCURVE",
"375 190 CURVE SMOOTH"
);
}
);
width = 560;
}
);
rightKerningGroup = numbersign;
unicode = 0024;
},
{
glyphname = percent;
layers = (
{
layerId = "E174F030-6324-451A-8951-EA6336064495";
name = Bold;
paths = (
{
closed = 1;
nodes = (
"125 -8 LINE",
"360 699 LINE",
"433 673 LINE",
"198 -32 LINE"
);
},
{
closed = 1;
nodes = (
"14 624 OFFCURVE",
"54 672 OFFCURVE",
"134 672 CURVE SMOOTH",
"214 672 OFFCURVE",
"254 624 OFFCURVE",
"254 527 CURVE SMOOTH",
"254 430 OFFCURVE",
"214 381 OFFCURVE",
"134 381 CURVE SMOOTH",
"54 381 OFFCURVE",
"14 430 OFFCURVE",
"14 527 CURVE SMOOTH"
);
},
{
closed = 1;
nodes = (
"114 568 OFFCURVE",
"112 551 OFFCURVE",
"112 527 CURVE SMOOTH",
"112 503 OFFCURVE",
"114 486 OFFCURVE",
"117 476 CURVE SMOOTH",
"120 466 OFFCURVE",
"125 461 OFFCURVE",
"134 461 CURVE SMOOTH",
"143 461 OFFCURVE",
"149 466 OFFCURVE",
"152 476 CURVE SMOOTH",
"155 486 OFFCURVE",
"156 503 OFFCURVE",
"156 527 CURVE SMOOTH",
"156 551 OFFCURVE",
"155 568 OFFCURVE",
"152 578 CURVE SMOOTH",
"149 587 OFFCURVE",
"143 592 OFFCURVE",
"134 592 CURVE SMOOTH",
"125 592 OFFCURVE",
"120 587 OFFCURVE",
"117 578 CURVE SMOOTH"
);
},
{
closed = 1;
nodes = (
"306 231 OFFCURVE",
"346 279 OFFCURVE",
"426 279 CURVE SMOOTH",
"506 279 OFFCURVE",
"546 231 OFFCURVE",
"546 134 CURVE SMOOTH",
"546 37 OFFCURVE",
"506 -12 OFFCURVE",
"426 -12 CURVE SMOOTH",
"346 -12 OFFCURVE",
"306 37 OFFCURVE",
"306 134 CURVE SMOOTH"
);
},
{
closed = 1;
nodes = (
"406 175 OFFCURVE",
"404 158 OFFCURVE",
"404 134 CURVE SMOOTH",
"404 110 OFFCURVE",
"406 93 OFFCURVE",
"409 83 CURVE SMOOTH",
"412 73 OFFCURVE",
"417 68 OFFCURVE",
"426 68 CURVE SMOOTH",
"435 68 OFFCURVE",
"441 73 OFFCURVE",
"444 83 CURVE SMOOTH",
"447 93 OFFCURVE",
"448 110 OFFCURVE",
"448 134 CURVE SMOOTH",
"448 158 OFFCURVE",
"447 175 OFFCURVE",
"444 185 CURVE SMOOTH",
"441 194 OFFCURVE",
"435 199 OFFCURVE",
"426 199 CURVE SMOOTH",
"417 199 OFFCURVE",
"412 194 OFFCURVE",
"409 185 CURVE SMOOTH"
);
}
);
width = 560;
}
);
rightKerningGroup = numbersign;
unicode = 0025;
},
{
glyphname = ampersand;
layers = (
{
layerId = "E174F030-6324-451A-8951-EA6336064495";
name = Bold;
paths = (
{
closed = 1;
nodes = (
"111 654 OFFCURVE",
"191 712 OFFCURVE",
"319 712 CURVE SMOOTH",
"446 712 OFFCURVE",
"520 653 OFFCURVE",
"520 557 CURVE SMOOTH",
"520 461 OFFCURVE",
"486 421 OFFCURVE",
"383 349 CURVE",
"481 251 LINE",
"489 271 OFFCURVE",
"499 343 OFFCURVE",
"500 379 CURVE",
"630 376 LINE",
"620 299 OFFCURVE",
"603 231 OFFCURVE",
"579 173 CURVE",
"691 75 LINE",
"615 -12 LINE",
"509 75 LINE",
"462 24 OFFCURVE",
"385 -12 OFFCURVE",
"304 -12 CURVE SMOOTH",
"109 -12 OFFCURVE",
"35 59 OFFCURVE",
"35 196 CURVE SMOOTH",
"35 304 OFFCURVE",
"78 360 OFFCURVE",
"177 399 CURVE",
"122 466 OFFCURVE",
"111 494 OFFCURVE",
"111 561 CURVE SMOOTH"
);
},
{
closed = 1;
nodes = (
"340 108 OFFCURVE",
"398 124 OFFCURVE",
"418 148 CURVE",
"245 321 LINE",
"196 297 OFFCURVE",
"171 259 OFFCURVE",
"171 207 CURVE SMOOTH",
"171 141 OFFCURVE",
"210 108 OFFCURVE",
"287 108 CURVE SMOOTH"
);
},
{
closed = 1;
nodes = (
"247 504 OFFCURVE",
"262 475 OFFCURVE",
"292 443 CURVE SMOOTH",
"309 425 LINE",
"364 465 OFFCURVE",
"384 491 OFFCURVE",
"384 535 CURVE SMOOTH",
"384 577 OFFCURVE",
"361 598 OFFCURVE",
"316 598 CURVE SMOOTH",
"270 598 OFFCURVE",
"247 576 OFFCURVE",
"247 531 CURVE SMOOTH"
);
}
);
width = 701;
}
);
rightKerningGroup = numbersign;
unicode = 0026;
},
{
glyphname = quotesingle;
layers = (
{
layerId = "E174F030-6324-451A-8951-EA6336064495";
name = Bold;
paths = (
{
closed = 1;
nodes = (
"60 440 LINE",
"56 680 LINE",
"185 680 LINE",
"178 440 LINE"
);
}
);
width = 239;
}
);
leftKerningGroup = quotedbl;
rightKerningGroup = quotedbl;
unicode = 0027;
},
{
glyphname = parenleft;
layers = (
{
layerId = "E174F030-6324-451A-8951-EA6336064495";
name = Bold;
paths = (
{
closed = 1;
nodes = (
"196 435 OFFCURVE",
"186 360 OFFCURVE",
"186 301 CURVE SMOOTH",
"186 184 OFFCURVE",
"226 21 OFFCURVE",
"258 -62 CURVE SMOOTH",
"281 -125 LINE",
"154 -125 LINE",
"135 -96 OFFCURVE",
"99 -15 OFFCURVE",
"79 48 CURVE SMOOTH",
"58 111 OFFCURVE",
"38 212 OFFCURVE",
"38 301 CURVE SMOOTH",
"38 390 OFFCURVE",
"56 492 OFFCURVE",
"79 563 CURVE SMOOTH",
"103 638 OFFCURVE",
"124 692 OFFCURVE",
"142 727 CURVE SMOOTH",
"154 750 LINE",
"281 750 LINE",
"258 692 OFFCURVE",
"237 617 OFFCURVE",
"217 526 CURVE SMOOTH"
);
}
);
width = 308;
}
);
rightKerningGroup = numbersign;
unicode = 0028;
},
{
glyphname = parenright;
layers = (
{
layerId = "E174F030-6324-451A-8951-EA6336064495";
name = Bold;
paths = (
{
closed = 1;
nodes = (
"266 392 OFFCURVE",
"270 346 OFFCURVE",
"270 301 CURVE SMOOTH",
"270 212 OFFCURVE",
"252 114 OFFCURVE",
"229 47 CURVE SMOOTH",
"205 -23 OFFCURVE",
"184 -73 OFFCURVE",
"166 -104 CURVE SMOOTH",
"154 -125 LINE",
"27 -125 LINE",
"72 -22 OFFCURVE",
"122 184 OFFCURVE",
"122 301 CURVE SMOOTH",
"122 418 OFFCURVE",
"83 591 OFFCURVE",
"51 682 CURVE SMOOTH",
"27 750 LINE",
"154 750 LINE",
"173 717 OFFCURVE",
"209 629 OFFCURVE",
"230 562 CURVE SMOOTH",
"240 529 OFFCURVE",
"249 488 OFFCURVE",
"258 440 CURVE SMOOTH"
);
}
);
width = 308;
}
);
rightKerningGroup = numbersign;
unicode = 0029;
},
{
glyphname = asterisk;
layers = (
{
layerId = "E174F030-6324-451A-8951-EA6336064495";
name = Bold;
paths = (
{
closed = 1;
nodes = (
"389 499 LINE",
"266 499 LINE",
"304 379 LINE",
"231 357 LINE",
"190 478 LINE",
"87 399 LINE",
"40 458 LINE",
"145 536 LINE",
"43 609 LINE",
"89 672 LINE",
"190 599 LINE",
"229 720 LINE",
"304 695 LINE",
"266 573 LINE",
"389 573 LINE"
);
}
);
width = 425;
}
);
rightKerningGroup = numbersign;
unicode = 002A;
},
{
glyphname = plus;
layers = (
{
layerId = "E174F030-6324-451A-8951-EA6336064495";
name = Bold;
paths = (
{
closed = 1;
nodes = (
"50 191 LINE",
"50 311 LINE",
"219 311 LINE",
"219 479 LINE",
"339 479 LINE",
"339 311 LINE",
"510 311 LINE",
"510 191 LINE",
"339 191 LINE",
"339 21 LINE",
"219 21 LINE",
"219 191 LINE"
);
}
);
width = 560;
}
);
rightKerningGroup = numbersign;
unicode = 002B;
},
{
glyphname = comma;
layers = (
{
layerId = "E174F030-6324-451A-8951-EA6336064495";
name = Bold;
paths = (
{
closed = 1;
nodes = (
"20 -123 LINE",
"70 137 LINE",
"218 137 LINE",
"128 -123 LINE"
);
}
);
width = 263;
}
);
leftKerningGroup = comma;
rightKerningGroup = comma;
unicode = 002C;
},
{
glyphname = hyphen;
layers = (
{
layerId = "E174F030-6324-451A-8951-EA6336064495";
name = Bold;
paths = (
{
closed = 1;
nodes = (
"56 205 LINE",
"56 327 LINE",
"352 327 LINE",
"352 205 LINE"
);
}
);
width = 408;
}
);
leftKerningGroup = hyphen;
rightKerningGroup = hyphen;
unicode = 002D;
},
{
glyphname = period;
layers = (
{
layerId = "E174F030-6324-451A-8951-EA6336064495";
name = Bold;
paths = (
{
closed = 1;
nodes = (
"56 0 LINE",
"56 166 LINE",
"200 166 LINE",
"200 0 LINE"
);
}
);
width = 256;
}
);
leftKerningGroup = comma;
rightKerningGroup = comma;
unicode = 002E;
},
{
glyphname = slash;
layers = (
{
layerId = "E174F030-6324-451A-8951-EA6336064495";
name = Bold;
paths = (
{
closed = 1;
nodes = (
"31 8 LINE",
"319 718 LINE",
"437 676 LINE",
"149 -34 LINE"
);
}
);
width = 466;
}
);
rightKerningGroup = numbersign;
unicode = 002F;
},
{
glyphname = zero;
layers = (
{
layerId = "E174F030-6324-451A-8951-EA6336064495";
name = Bold;
paths = (
{
closed = 1;
nodes = (
"132 645 OFFCURVE",
"195 672 OFFCURVE",
"280 672 CURVE SMOOTH",
"449 672 OFFCURVE",
"536 569 OFFCURVE",
"536 327 CURVE SMOOTH",
"536 85 OFFCURVE",
"451 -12 OFFCURVE",
"280 -12 CURVE SMOOTH",
"109 -12 OFFCURVE",
"24 85 OFFCURVE",
"24 327 CURVE SMOOTH",
"24 448 OFFCURVE",
"46 535 OFFCURVE",
"89 590 CURVE SMOOTH"
);
},
{
closed = 1;
nodes = (
"394 412 OFFCURVE",
"385 470 OFFCURVE",
"368 503 CURVE SMOOTH",
"351 536 OFFCURVE",
"322 552 OFFCURVE",
"281 552 CURVE SMOOTH",
"199 552 OFFCURVE",
"166 493 OFFCURVE",
"166 329 CURVE SMOOTH",
"166 165 OFFCURVE",
"200 108 OFFCURVE",
"281 108 CURVE SMOOTH",
"322 108 OFFCURVE",
"351 124 OFFCURVE",
"368 157 CURVE SMOOTH",
"385 190 OFFCURVE",
"394 247 OFFCURVE",
"394 330 CURVE SMOOTH"
);
}
);
width = 560;
}
);
rightKerningGroup = numbersign;
unicode = 0030;
},
{
glyphname = one;
layers = (
{
layerId = "E174F030-6324-451A-8951-EA6336064495";
name = Bold;
paths = (
{
closed = 1;
nodes = (
"418 660 LINE",
"418 0 LINE",
"280 0 LINE",
"280 504 LINE",
"137 412 LINE",
"74 515 LINE",
"292 660 LINE"
);
}
);
width = 560;
}
);
rightKerningGroup = numbersign;
unicode = 0031;
},
{
glyphname = two;
layers = (
{
layerId = "E174F030-6324-451A-8951-EA6336064495";
name = Bold;
paths = (
{
closed = 1;
nodes = (
"493 0 LINE",
"65 0 LINE",
"65 117 LINE",
"206 260 LINE SMOOTH",
"306 363 OFFCURVE",
"340 404 OFFCURVE",
"340 466 CURVE SMOOTH",
"340 528 OFFCURVE",
"306 550 OFFCURVE",
"246 550 CURVE SMOOTH",
"201 550 OFFCURVE",
"153 546 OFFCURVE",
"100 538 CURVE SMOOTH",
"76 535 LINE",
"69 642 LINE",
"134 662 OFFCURVE",
"202 672 OFFCURVE",
"272 672 CURVE SMOOTH",
"412 672 OFFCURVE",
"482 609 OFFCURVE",
"482 483 CURVE SMOOTH",
"482 384 OFFCURVE",
"446 327 OFFCURVE",
"334 224 CURVE SMOOTH",
"219 120 LINE",
"493 120 LINE"
);
}
);
width = 560;
}
);
rightKerningGroup = numbersign;
unicode = 0032;
},
{
glyphname = three;
layers = (
{
layerId = "E174F030-6324-451A-8951-EA6336064495";
name = Bold;
paths = (
{
closed = 1;
nodes = (
"62 636 LINE",
"123 660 OFFCURVE",
"192 672 OFFCURVE",
"268 672 CURVE SMOOTH",
"419 672 OFFCURVE",
"485 617 OFFCURVE",
"485 489 CURVE SMOOTH",
"485 425 OFFCURVE",
"459 376 OFFCURVE",
"408 342 CURVE",
"472 307 OFFCURVE",
"497 280 OFFCURVE",
"497 199 CURVE SMOOTH",
"497 56 OFFCURVE",
"429 -12 OFFCURVE",
"272 -12 CURVE SMOOTH",
"214 -12 OFFCURVE",
"153 -3 OFFCURVE",
"89 14 CURVE SMOOTH",
"57 22 LINE",
"64 127 LINE",
"139 114 OFFCURVE",
"201 108 OFFCURVE",
"252 108 CURVE SMOOTH",
"321 108 OFFCURVE",
"355 137 OFFCURVE",
"355 196 CURVE SMOOTH",
"355 245 OFFCURVE",
"316 277 OFFCURVE",
"259 277 CURVE SMOOTH",
"126 277 LINE",
"126 391 LINE",
"259 391 LINE SMOOTH",
"303 391 OFFCURVE",
"343 436 OFFCURVE",
"343 481 CURVE SMOOTH",
"343 528 OFFCURVE",
"310 552 OFFCURVE",
"244 552 CURVE SMOOTH",
"198 552 OFFCURVE",
"149 547 OFFCURVE",
"97 538 CURVE SMOOTH",
"71 534 LINE"
);
}
);
width = 560;
}
);
rightKerningGroup = numbersign;
unicode = 0033;
},
{
glyphname = four;
layers = (
{
layerId = "E174F030-6324-451A-8951-EA6336064495";
name = Bold;
paths = (
{
closed = 1;
nodes = (
"320 0 LINE",
"320 109 LINE",
"40 109 LINE",
"40 214 LINE",
"203 660 LINE",
"355 660 LINE",
"178 229 LINE",
"320 229 LINE",
"320 414 LINE",
"458 414 LINE",
"458 229 LINE",
"521 229 LINE",
"521 109 LINE",
"458 109 LINE",
"458 0 LINE"
);
}
);
width = 560;
}
);
rightKerningGroup = numbersign;
unicode = 0034;
},
{
glyphname = five;
layers = (
{
layerId = "E174F030-6324-451A-8951-EA6336064495";
name = Bold;
paths = (
{
closed = 1;
nodes = (
"490 660 LINE",
"490 540 LINE",
"195 540 LINE",
"178 397 LINE",
"219 413 OFFCURVE",
"259 421 OFFCURVE",
"296 421 CURVE SMOOTH",
"439 421 OFFCURVE",
"510 355 OFFCURVE",
"510 222 CURVE SMOOTH",
"510 73 OFFCURVE",
"428 -12 OFFCURVE",
"284 -12 CURVE SMOOTH",
"223 -12 OFFCURVE",
"133 3 OFFCURVE",
"86 16 CURVE SMOOTH",
"50 25 LINE",
"65 127 LINE",
"146 114 OFFCURVE",
"213 108 OFFCURVE",
"267 108 CURVE SMOOTH",
"332 108 OFFCURVE",
"368 144 OFFCURVE",
"368 209 CURVE SMOOTH",
"368 273 OFFCURVE",
"337 301 OFFCURVE",
"284 301 CURVE SMOOTH",
"239 301 OFFCURVE",
"200 297 OFFCURVE",
"166 288 CURVE SMOOTH",
"151 284 LINE",
"69 303 LINE",
"87 660 LINE"
);
}
);
width = 560;
}
);
rightKerningGroup = numbersign;
unicode = 0035;
},
{
glyphname = six;
layers = (
{
layerId = "E174F030-6324-451A-8951-EA6336064495";
name = Bold;
paths = (
{
closed = 1;
nodes = (
"496 537 LINE",
"428 547 OFFCURVE",
"369 552 OFFCURVE",
"319 552 CURVE SMOOTH",
"224 552 OFFCURVE",
"177 501 OFFCURVE",
"177 398 CURVE",
"198 404 LINE SMOOTH",
"242 417 OFFCURVE",
"277 423 OFFCURVE",
"303 423 CURVE SMOOTH",
"454 423 OFFCURVE",
"530 356 OFFCURVE",
"530 210 CURVE SMOOTH",
"530 64 OFFCURVE",
"443 -12 OFFCURVE",
"281 -12 CURVE SMOOTH",
"119 -12 OFFCURVE",
"35 108 OFFCURVE",
"35 337 CURVE SMOOTH",
"35 566 OFFCURVE",
"133 672 OFFCURVE",
"310 672 CURVE SMOOTH",
"362 672 OFFCURVE",
"418 665 OFFCURVE",
"477 650 CURVE SMOOTH",
"508 643 LINE"
);
},
{
closed = 1;
nodes = (
"260 303 OFFCURVE",
"227 297 OFFCURVE",
"193 286 CURVE SMOOTH",
"176 281 LINE",
"176 166 OFFCURVE",
"213 108 OFFCURVE",
"288 108 CURVE SMOOTH",
"352 108 OFFCURVE",
"388 145 OFFCURVE",
"388 209 CURVE SMOOTH",
"388 272 OFFCURVE",
"356 303 OFFCURVE",
"291 303 CURVE SMOOTH"
);
}
);
width = 560;
}
);
rightKerningGroup = numbersign;
unicode = 0036;
},
{
glyphname = seven;
layers = (
{
layerId = "E174F030-6324-451A-8951-EA6336064495";
name = Bold;
paths = (
{
closed = 1;
nodes = (
"69 537 LINE",
"69 660 LINE",
"491 660 LINE",
"491 504 LINE",
"256 -12 LINE",
"128 24 LINE",
"353 505 LINE",
"353 537 LINE"
);
}
);
width = 560;
}
);
rightKerningGroup = numbersign;
unicode = 0037;
},
{
glyphname = eight;
layers = (
{
layerId = "E174F030-6324-451A-8951-EA6336064495";
name = Bold;
paths = (
{
closed = 1;
nodes = (
"147 656 OFFCURVE",
"205 672 OFFCURVE",
"278 672 CURVE SMOOTH",
"423 672 OFFCURVE",
"521 604 OFFCURVE",
"521 491 CURVE SMOOTH",
"521 414 OFFCURVE",
"508 387 OFFCURVE",
"449 340 CURVE",
"508 291 OFFCURVE",
"531 256 OFFCURVE",
"531 179 CURVE SMOOTH",
"531 48 OFFCURVE",
"429 -12 OFFCURVE",
"278 -12 CURVE SMOOTH",
"111 -12 OFFCURVE",
"28 48 OFFCURVE",
"28 168 CURVE SMOOTH",
"28 253 OFFCURVE",
"52 291 OFFCURVE",
"111 340 CURVE",
"55 385 OFFCURVE",
"39 421 OFFCURVE",
"39 492 CURVE SMOOTH",
"39 549 OFFCURVE",
"61 593 OFFCURVE",
"104 625 CURVE SMOOTH"
);
},
{
closed = 1;
nodes = (
"176 141 OFFCURVE",
"211 112 OFFCURVE",
"280 112 CURVE SMOOTH",
"349 112 OFFCURVE",
"383 141 OFFCURVE",
"383 200 CURVE SMOOTH",
"383 235 OFFCURVE",
"363 260 OFFCURVE",
"324 275 CURVE",
"236 275 LINE",
"196 260 OFFCURVE",
"176 235 OFFCURVE",
"176 200 CURVE SMOOTH"
);
},
{
closed = 1;
nodes = (
"220 548 OFFCURVE",
"187 522 OFFCURVE",
"187 467 CURVE SMOOTH",
"187 440 OFFCURVE",
"203 415 OFFCURVE",
"236 392 CURVE",
"324 392 LINE",
"357 415 OFFCURVE",
"373 441 OFFCURVE",
"373 470 CURVE SMOOTH",
"373 522 OFFCURVE",
"342 548 OFFCURVE",
"280 548 CURVE SMOOTH"
);
}
);
width = 560;
}
);
rightKerningGroup = numbersign;
unicode = 0038;
},
{
glyphname = nine;
layers = (
{
layerId = "E174F030-6324-451A-8951-EA6336064495";
name = Bold;
paths = (
{
closed = 1;
nodes = (
"337 108 OFFCURVE",
"381 162 OFFCURVE",
"381 270 CURVE",
"360 263 LINE SMOOTH",
"314 248 OFFCURVE",
"279 240 OFFCURVE",
"255 240 CURVE SMOOTH",
"110 240 OFFCURVE",
"28 311 OFFCURVE",
"28 451 CURVE SMOOTH",
"28 590 OFFCURVE",
"118 672 OFFCURVE",
"278 672 CURVE SMOOTH",
"437 672 OFFCURVE",
"523 553 OFFCURVE",
"523 321 CURVE SMOOTH",
"523 88 OFFCURVE",
"428 -12 OFFCURVE",
"248 -12 CURVE SMOOTH",
"196 -12 OFFCURVE",
"140 -5 OFFCURVE",
"81 10 CURVE SMOOTH",
"50 17 LINE",
"62 123 LINE",
"130 113 OFFCURVE",
"192 108 OFFCURVE",
"248 108 CURVE SMOOTH"
);
},
{
closed = 1;
nodes = (
"298 360 OFFCURVE",
"331 366 OFFCURVE",
"366 378 CURVE SMOOTH",
"382 383 LINE",
"382 496 OFFCURVE",
"345 552 OFFCURVE",
"270 552 CURVE SMOOTH",
"206 552 OFFCURVE",
"170 515 OFFCURVE",
"170 451 CURVE SMOOTH",
"170 390 OFFCURVE",
"202 360 OFFCURVE",
"267 360 CURVE SMOOTH"
);
}
);
width = 560;
}
);
rightKerningGroup = numbersign;
unicode = 0039;
},
{
glyphname = colon;
layers = (
{
layerId = "E174F030-6324-451A-8951-EA6336064495";
name = Bold;
paths = (
{
closed = 1;
nodes = (
"56 289 LINE",
"56 455 LINE",
"200 455 LINE",
"200 289 LINE"
);
},
{
closed = 1;
nodes = (
"56 0 LINE",
"56 166 LINE",
"200 166 LINE",
"200 0 LINE"
);
}
);
width = 256;
}
);
leftKerningGroup = colon;
rightKerningGroup = colon;
unicode = 003A;
},
{
glyphname = semicolon;
layers = (
{
layerId = "E174F030-6324-451A-8951-EA6336064495";
name = Bold;
paths = (
{
closed = 1;
nodes = (
"77 137 LINE",
"225 137 LINE",
"135 -123 LINE",
"27 -123 LINE"
);
},
{
closed = 1;
nodes = (
"69 289 LINE",
"69 455 LINE",
"213 455 LINE",
"213 289 LINE"
);
}
);
width = 279;
}
);
leftKerningGroup = colon;
rightKerningGroup = colon;
unicode = 003B;
},
{
glyphname = less;
layers = (
{
layerId = "E174F030-6324-451A-8951-EA6336064495";
name = Bold;
paths = (
{
closed = 1;
nodes = (
"472 353 LINE",
"211 254 LINE",
"472 146 LINE",
"472 10 LINE",
"66 196 LINE",
"66 306 LINE",
"472 489 LINE"
);
}
);
width = 560;
}
);
rightKerningGroup = numbersign;
unicode = 003C;
},
{
glyphname = equal;
layers = (
{
layerId = "E174F030-6324-451A-8951-EA6336064495";
name = Bold;
paths = (
{
closed = 1;
nodes = (
"58 295 LINE",
"58 416 LINE",
"502 416 LINE",
"502 295 LINE"
);
},
{
closed = 1;
nodes = (
"58 87 LINE",
"58 208 LINE",
"502 208 LINE",
"502 87 LINE"
);
}
);
width = 560;
}
);
rightKerningGroup = numbersign;
unicode = 003D;
},
{
glyphname = greater;
layers = (
{
layerId = "E174F030-6324-451A-8951-EA6336064495";
name = Bold;
paths = (
{
closed = 1;
nodes = (
"349 254 LINE",
"88 353 LINE",
"88 489 LINE",
"494 306 LINE",
"494 196 LINE",
"88 10 LINE",
"88 146 LINE"
);
}
);
width = 560;
}
);
rightKerningGroup = numbersign;
unicode = 003E;
},
{
glyphname = question;
layers = (
{
layerId = "E174F030-6324-451A-8951-EA6336064495";
name = Bold;
paths = (
{
closed = 1;
nodes = (
"340 692 OFFCURVE",
"405 640 OFFCURVE",
"405 536 CURVE SMOOTH",
"405 432 OFFCURVE",
"391 400 OFFCURVE",
"324 350 CURVE SMOOTH",
"291 325 OFFCURVE",
"270 305 OFFCURVE",
"261 292 CURVE SMOOTH",
"252 279 OFFCURVE",
"248 264 OFFCURVE",
"248 248 CURVE SMOOTH",
"248 217 LINE",
"141 217 LINE",
"120 240 OFFCURVE",
"110 270 OFFCURVE",
"110 308 CURVE SMOOTH",
"110 332 OFFCURVE",
"131 361 OFFCURVE",
"174 395 CURVE SMOOTH",
"216 429 OFFCURVE",
"242 453 OFFCURVE",
"252 466 CURVE",
"261 479 OFFCURVE",
"266 494 OFFCURVE",
"266 513 CURVE SMOOTH",
"266 552 OFFCURVE",
"238 572 OFFCURVE",
"181 572 CURVE SMOOTH",
"141 572 OFFCURVE",
"100 568 OFFCURVE",
"58 560 CURVE SMOOTH",
"37 556 LINE",
"30 657 LINE",
"87 680 OFFCURVE",
"148 692 OFFCURVE",
"212 692 CURVE SMOOTH"
);
},
{
closed = 1;
nodes = (
"119 0 LINE",
"119 161 LINE",
"263 161 LINE",
"263 0 LINE"
);
}
);
width = 437;
}
);
rightKerningGroup = numbersign;
unicode = 003F;
},
{
glyphname = at;
layers = (
{
layerId = "E174F030-6324-451A-8951-EA6336064495";
name = Bold;
paths = (
{
closed = 1;
nodes = (
"944 297 LINE SMOOTH",
"944 92 OFFCURVE",
"879 0 OFFCURVE",
"751 0 CURVE SMOOTH",
"704 0 OFFCURVE",
"665 12 OFFCURVE",
"635 36 CURVE",
"628 41 OFFCURVE",
"623 48 OFFCURVE",
"618 56 CURVE",
"565 19 OFFCURVE",
"515 0 OFFCURVE",
"470 0 CURVE SMOOTH",
"345 0 OFFCURVE",
"283 74 OFFCURVE",
"283 248 CURVE SMOOTH",
"283 422 OFFCURVE",
"335 500 OFFCURVE",
"474 500 CURVE SMOOTH",
"497 500 OFFCURVE",
"523 494 OFFCURVE",
"550 482 CURVE SMOOTH",
"565 475 LINE",
"565 488 LINE",
"699 488 LINE",
"699 309 LINE SMOOTH",
"699 217 OFFCURVE",
"701 164 OFFCURVE",
"705 151 CURVE",
"708 138 OFFCURVE",
"712 128 OFFCURVE",
"717 123 CURVE",
"725 112 OFFCURVE",
"733 112 OFFCURVE",
"749 112 CURVE SMOOTH",
"770 112 OFFCURVE",
"786 125 OFFCURVE",
"796 151 CURVE SMOOTH",
"805 177 OFFCURVE",
"810 226 OFFCURVE",
"810 297 CURVE SMOOTH",
"810 306 LINE SMOOTH",
"810 519 OFFCURVE",
"717 611 OFFCURVE",
"503 611 CURVE SMOOTH",
"289 611 OFFCURVE",
"172 486 OFFCURVE",
"172 252 CURVE SMOOTH",
"172 18 OFFCURVE",
"264 -91 OFFCURVE",
"503 -91 CURVE",
"646 -82 LINE",
"651 -199 LINE",
"591 -206 OFFCURVE",
"542 -209 OFFCURVE",
"503 -209 CURVE SMOOTH",
"350 -209 OFFCURVE",
"243 -181 OFFCURVE",
"160 -110 CURVE SMOOTH",
"79 -39 OFFCURVE",
"38 85 OFFCURVE",
"38 261 CURVE SMOOTH",
"38 569 OFFCURVE",
"216 729 OFFCURVE",
"505 729 CURVE SMOOTH",
"794 729 OFFCURVE",
"944 581 OFFCURVE",
"944 305 CURVE SMOOTH"
);
},
{
closed = 1;
nodes = (
"506 118 OFFCURVE",
"536 126 OFFCURVE",
"571 143 CURVE",
"567 167 OFFCURVE",
"565 202 OFFCURVE",
"565 249 CURVE SMOOTH",
"565 372 LINE",
"537 379 OFFCURVE",
"517 382 OFFCURVE",
"504 382 CURVE SMOOTH",
"435 382 OFFCURVE",
"419 348 OFFCURVE",
"419 251 CURVE SMOOTH",
"419 162 OFFCURVE",
"440 118 OFFCURVE",
"481 118 CURVE SMOOTH"
);
}
);
width = 973;
}
);
rightKerningGroup = numbersign;
unicode = 0040;
},
{
glyphname = A;
layers = (
{
layerId = "E174F030-6324-451A-8951-EA6336064495";
name = Bold;
paths = (
{
closed = 1;
nodes = (
"17 0 LINE",
"170 680 LINE",
"432 680 LINE",
"585 0 LINE",
"447 0 LINE",
"420 123 LINE",
"182 123 LINE",
"155 0 LINE"
);
},
{
closed = 1;
nodes = (
"277 566 LINE",
"208 243 LINE",
"394 243 LINE",
"325 566 LINE"
);
}
);
width = 602;
}
);
leftKerningGroup = A;
rightKerningGroup = numbersign;
unicode = 0041;
},
{
glyphname = B;
layers = (
{
layerId = "E174F030-6324-451A-8951-EA6336064495";
name = Bold;
paths = (
{
closed = 1;
nodes = (
"74 680 LINE",
"341 680 LINE SMOOTH",
"482 680 OFFCURVE",
"553 627 OFFCURVE",
"553 500 CURVE SMOOTH",
"553 424 OFFCURVE",
"533 385 OFFCURVE",
"478 350 CURVE",
"538 325 OFFCURVE",
"566 280 OFFCURVE",
"566 195 CURVE SMOOTH",
"566 63 OFFCURVE",
"485 0 OFFCURVE",
"345 0 CURVE SMOOTH",
"74 0 LINE"
);
},
{
closed = 1;
nodes = (
"212 284 LINE",
"212 118 LINE",
"338 118 LINE SMOOTH",
"398 118 OFFCURVE",
"426 138 OFFCURVE",
"426 202 CURVE SMOOTH",
"426 257 OFFCURVE",
"397 284 OFFCURVE",
"338 284 CURVE SMOOTH"
);
},
{
closed = 1;
nodes = (
"212 562 LINE",
"212 400 LINE",
"335 400 LINE SMOOTH",
"387 400 OFFCURVE",
"413 427 OFFCURVE",
"413 481 CURVE SMOOTH",
"413 535 OFFCURVE",
"387 562 OFFCURVE",
"334 562 CURVE SMOOTH"
);
}
);
width = 609;
}
);
leftKerningGroup = B;
rightKerningGroup = numbersign;
unicode = 0042;
},
{
glyphname = C;
layers = (
{
layerId = "E174F030-6324-451A-8951-EA6336064495";
name = Bold;
paths = (
{
closed = 1;
nodes = (
"505 11 LINE",
"434 -4 OFFCURVE",
"371 -12 OFFCURVE",
"314 -12 CURVE SMOOTH",
"201 -12 OFFCURVE",
"137 15 OFFCURVE",
"98 76 CURVE SMOOTH",
"59 137 OFFCURVE",
"47 215 OFFCURVE",
"47 340 CURVE SMOOTH",
"47 603 OFFCURVE",
"108 692 OFFCURVE",
"307 692 CURVE SMOOTH",
"364 692 OFFCURVE",
"431 683 OFFCURVE",
"506 665 CURVE",
"502 555 LINE",
"436 565 OFFCURVE",
"381 570 OFFCURVE",
"338 570 CURVE SMOOTH",
"250 570 OFFCURVE",
"221 551 OFFCURVE",
"203 486 CURVE SMOOTH",
"194 453 OFFCURVE",
"189 398 OFFCURVE",
"189 319 CURVE SMOOTH",
"189 162 OFFCURVE",
"217 110 OFFCURVE",
"327 110 CURVE SMOOTH",
"382 110 OFFCURVE",
"440 115 OFFCURVE",
"502 124 CURVE"
);
}
);
width = 543;
}
);
leftKerningGroup = C;
rightKerningGroup = C;
unicode = 0043;
},
{
glyphname = D;
layers = (
{
layerId = "E174F030-6324-451A-8951-EA6336064495";
name = Bold;
paths = (
{
closed = 1;
nodes = (
"74 0 LINE",
"74 680 LINE",
"303 680 LINE SMOOTH",
"420 680 OFFCURVE",
"495 657 OFFCURVE",
"537 601 CURVE SMOOTH",
"579 544 OFFCURVE",
"592 474 OFFCURVE",
"592 351 CURVE SMOOTH",
"592 228 OFFCURVE",
"580 154 OFFCURVE",
"540 91 CURVE SMOOTH",
"499 27 OFFCURVE",
"423 0 OFFCURVE",
"303 0 CURVE SMOOTH"
);
},
{
closed = 1;
nodes = (
"449 291 OFFCURVE",
"450 321 OFFCURVE",
"450 359 CURVE SMOOTH",
"450 434 OFFCURVE",
"447 474 OFFCURVE",
"427 511 CURVE SMOOTH",
"407 548 OFFCURVE",
"370 560 OFFCURVE",
"303 560 CURVE SMOOTH",
"212 560 LINE",
"212 120 LINE",
"303 120 LINE SMOOTH",
"403 120 OFFCURVE",
"439 162 OFFCURVE",
"448 270 CURVE"
);
}
);
width = 638;
}
);
leftKerningGroup = B;
rightKerningGroup = D;
unicode = 0044;
},
{
glyphname = E;
layers = (
{
layerId = "E174F030-6324-451A-8951-EA6336064495";
name = Bold;
paths = (
{
closed = 1;
nodes = (
"74 0 LINE",
"74 680 LINE",
"514 680 LINE",
"514 560 LINE",
"212 560 LINE",
"212 401 LINE",
"454 401 LINE",
"454 283 LINE",
"212 283 LINE",
"212 120 LINE",
"514 120 LINE",
"514 0 LINE"
);
}
);
width = 554;
}
);
leftKerningGroup = B;
rightKerningGroup = E;
unicode = 0045;
},
{
glyphname = F;
layers = (
{
layerId = "E174F030-6324-451A-8951-EA6336064495";
name = Bold;
paths = (
{
closed = 1;
nodes = (
"74 0 LINE",
"74 680 LINE",
"508 680 LINE",
"508 560 LINE",
"212 560 LINE",
"212 360 LINE",
"454 360 LINE",
"454 240 LINE",
"212 240 LINE",
"212 0 LINE"
);
}
);
width = 531;
}
);
leftKerningGroup = B;
rightKerningGroup = numbersign;
unicode = 0046;
},
{
glyphname = G;
layers = (
{
layerId = "E174F030-6324-451A-8951-EA6336064495";
name = Bold;
paths = (
{
closed = 1;
nodes = (
"357 244 LINE",
"357 364 LINE",
"555 364 LINE",
"555 11 LINE",
"460 -4 OFFCURVE",
"382 -12 OFFCURVE",
"323 -12 CURVE SMOOTH",
"111 -12 OFFCURVE",
"45 96 OFFCURVE",
"45 343 CURVE SMOOTH",
"45 590 OFFCURVE",
"119 692 OFFCURVE",
"318 692 CURVE SMOOTH",
"380 692 OFFCURVE",
"447 685 OFFCURVE",
"519 671 CURVE SMOOTH",
"555 664 LINE",
"551 557 LINE",
"471 566 OFFCURVE",
"406 570 OFFCURVE",
"355 570 CURVE SMOOTH",
"253 570 OFFCURVE",
"221 550 OFFCURVE",
"202 486 CURVE SMOOTH",
"192 453 OFFCURVE",
"187 398 OFFCURVE",
"187 320 CURVE SMOOTH",
"187 163 OFFCURVE",
"215 108 OFFCURVE",
"336 108 CURVE",
"419 112 LINE",
"419 244 LINE"
);
}
);
width = 611;
}
);
leftKerningGroup = G;
rightKerningGroup = G;
unicode = 0047;
},
{
glyphname = H;
layers = (
{
layerId = "E174F030-6324-451A-8951-EA6336064495";
name = Bold;
paths = (
{
closed = 1;
nodes = (
"465 0 LINE",
"465 282 LINE",
"212 282 LINE",
"212 0 LINE",
"74 0 LINE",
"74 680 LINE",
"212 680 LINE",
"212 402 LINE",
"465 402 LINE",
"465 680 LINE",
"603 680 LINE",
"603 0 LINE"
);
}
);
width = 677;
}
);
leftKerningGroup = B;
rightKerningGroup = H;
unicode = 0048;
},
{
glyphname = I;
layers = (
{
layerId = "E174F030-6324-451A-8951-EA6336064495";
name = Bold;
paths = (
{
closed = 1;
nodes = (
"74 0 LINE",
"74 680 LINE",
"212 680 LINE",
"212 0 LINE"
);
}
);
width = 286;
}
);
leftKerningGroup = B;
rightKerningGroup = H;
unicode = 0049;
},
{
glyphname = J;
layers = (
{
layerId = "E174F030-6324-451A-8951-EA6336064495";
name = Bold;
paths = (
{
closed = 1;
nodes = (
"19 50 LINE",
"72 50 OFFCURVE",
"95 66 OFFCURVE",
"95 121 CURVE SMOOTH",
"95 680 LINE",
"232 680 LINE",
"233 115 LINE SMOOTH",
"233 -30 OFFCURVE",
"175 -70 OFFCURVE",
"19 -70 CURVE"
);
}
);
width = 302;
}
);
leftKerningGroup = J;
rightKerningGroup = J;
unicode = 004A;
},
{
glyphname = K;
layers = (
{
layerId = "E174F030-6324-451A-8951-EA6336064495";
name = Bold;
paths = (
{
closed = 1;
nodes = (
"212 0 LINE",
"74 0 LINE",
"74 680 LINE",
"212 680 LINE",
"212 381 LINE",
"304 391 LINE",
"416 680 LINE",
"573 680 LINE",
"425 339 LINE",
"577 0 LINE",
"418 0 LINE",
"304 271 LINE",
"212 261 LINE"
);
}
);
width = 593;
}
);
leftKerningGroup = B;
rightKerningGroup = K;
unicode = 004B;
},
{
glyphname = L;
layers = (
{
layerId = "E174F030-6324-451A-8951-EA6336064495";
name = Bold;
paths = (
{
closed = 1;
nodes = (
"461 0 LINE",
"74 0 LINE",
"74 680 LINE",
"212 680 LINE",
"212 122 LINE",
"461 122 LINE"
);
}
);
width = 472;
}
);
leftKerningGroup = B;
rightKerningGroup = L;
unicode = 004C;
},
{
glyphname = M;
layers = (
{
layerId = "E174F030-6324-451A-8951-EA6336064495";
name = Bold;
paths = (
{
closed = 1;
nodes = (
"74 0 LINE",
"74 680 LINE",
"309 680 LINE",
"429 184 LINE",
"549 680 LINE",
"784 680 LINE",
"784 0 LINE",
"646 0 LINE",
"646 526 LINE",
"631 526 LINE",
"498 30 LINE",
"360 30 LINE",
"227 526 LINE",
"212 526 LINE",
"212 0 LINE"
);
}
);
width = 858;
}
);
leftKerningGroup = B;
rightKerningGroup = H;
unicode = 004D;
},
{
glyphname = N;
layers = (
{
layerId = "E174F030-6324-451A-8951-EA6336064495";
name = Bold;
paths = (
{
closed = 1;
nodes = (
"74 0 LINE",
"74 680 LINE",
"307 680 LINE",
"471 120 LINE",
"481 120 LINE",
"481 680 LINE",
"619 680 LINE",
"619 0 LINE",
"392 0 LINE",
"222 560 LINE",
"212 560 LINE",
"212 0 LINE"
);
}
);
width = 693;
}
);
leftKerningGroup = B;
rightKerningGroup = H;
unicode = 004E;
},
{
glyphname = O;
layers = (
{
layerId = "E174F030-6324-451A-8951-EA6336064495";
name = Bold;
paths = (
{
closed = 1;
nodes = (
"235 126 OFFCURVE",
"272 108 OFFCURVE",
"326 108 CURVE SMOOTH",
"434 108 OFFCURVE",
"466 172 OFFCURVE",
"466 337 CURVE SMOOTH",
"466 501 OFFCURVE",
"433 572 OFFCURVE",
"326 572 CURVE SMOOTH",
"219 572 OFFCURVE",
"186 501 OFFCURVE",
"186 337 CURVE SMOOTH",
"186 254 OFFCURVE",
"196 196 OFFCURVE",
"216 161 CURVE SMOOTH"
);
},
{
closed = 1;
nodes = (
"502 16 OFFCURVE",
"429 -12 OFFCURVE",
"326 -12 CURVE SMOOTH",
"119 -12 OFFCURVE",
"44 97 OFFCURVE",
"44 337 CURVE SMOOTH",
"44 577 OFFCURVE",
"119 692 OFFCURVE",
"326 692 CURVE SMOOTH",
"533 692 OFFCURVE",
"608 577 OFFCURVE",
"608 337 CURVE SMOOTH",
"608 217 OFFCURVE",
"587 129 OFFCURVE",
"545 73 CURVE SMOOTH"
);
}
);
width = 652;
}
);
leftKerningGroup = G;
rightKerningGroup = O;
unicode = 004F;
},
{
glyphname = P;
layers = (
{
layerId = "E174F030-6324-451A-8951-EA6336064495";
name = Bold;
paths = (
{
closed = 1;
nodes = (
"212 198 LINE",
"212 0 LINE",
"74 0 LINE",
"74 680 LINE",
"324 680 LINE SMOOTH",
"485 680 OFFCURVE",
"566 601 OFFCURVE",
"566 444 CURVE SMOOTH",
"566 285 OFFCURVE",
"483 198 OFFCURVE",
"324 198 CURVE SMOOTH"
);
},
{
closed = 1;
nodes = (
"212 316 LINE",
"323 316 LINE SMOOTH",
"392 316 OFFCURVE",
"426 359 OFFCURVE",
"426 444 CURVE SMOOTH",
"426 528 OFFCURVE",
"394 562 OFFCURVE",
"323 562 CURVE SMOOTH",
"212 562 LINE"
);
}
);
width = 589;
}
);
leftKerningGroup = B;
rightKerningGroup = numbersign;
unicode = 0050;
},
{
glyphname = Q;
layers = (
{
layerId = "E174F030-6324-451A-8951-EA6336064495";
name = Bold;
paths = (
{
closed = 1;
nodes = (
"118 -12 OFFCURVE",
"44 96 OFFCURVE",
"44 337 CURVE SMOOTH",
"44 577 OFFCURVE",
"119 692 OFFCURVE",
"326 692 CURVE SMOOTH",
"533 692 OFFCURVE",
"608 577 OFFCURVE",
"608 336 CURVE SMOOTH",
"608 188 OFFCURVE",
"573 88 OFFCURVE",
"503 37 CURVE",
"586 -97 LINE",
"460 -156 LINE",
"370 -9 LINE",
"363 -11 OFFCURVE",
"349 -12 OFFCURVE",
"326 -12 CURVE SMOOTH"
);
},
{
closed = 1;
nodes = (
"235 125 OFFCURVE",
"272 108 OFFCURVE",
"326 108 CURVE SMOOTH",
"434 108 OFFCURVE",
"466 171 OFFCURVE",
"466 336 CURVE SMOOTH",
"466 501 OFFCURVE",
"433 572 OFFCURVE",
"326 572 CURVE SMOOTH",
"219 572 OFFCURVE",
"186 501 OFFCURVE",
"186 336 CURVE SMOOTH",
"186 253 OFFCURVE",
"196 195 OFFCURVE",
"216 160 CURVE SMOOTH"
);
}
);
width = 652;
}
);
leftKerningGroup = G;
rightKerningGroup = O;
unicode = 0051;
},
{
glyphname = R;
layers = (
{
layerId = "E174F030-6324-451A-8951-EA6336064495";
name = Bold;
paths = (
{
closed = 1;
nodes = (
"212 228 LINE",
"212 0 LINE",
"74 0 LINE",
"74 680 LINE",
"338 680 LINE SMOOTH",
"498 680 OFFCURVE",
"578 605 OFFCURVE",
"578 456 CURVE SMOOTH",
"578 367 OFFCURVE",
"545 302 OFFCURVE",
"478 260 CURVE",
"575 0 LINE",
"424 0 LINE",
"345 228 LINE"
);
},
{
closed = 1;
nodes = (
"340 346 LINE SMOOTH",
"405 346 OFFCURVE",
"437 390 OFFCURVE",
"437 455 CURVE SMOOTH",
"437 520 OFFCURVE",
"402 562 OFFCURVE",
"338 562 CURVE SMOOTH",
"212 562 LINE",
"212 346 LINE"
);
}
);
width = 620;
}
);
leftKerningGroup = B;
rightKerningGroup = R;
unicode = 0052;
},
{
glyphname = S;
layers = (
{
layerId = "E174F030-6324-451A-8951-EA6336064495";
name = Bold;
paths = (
{
closed = 1;
nodes = (
"210 572 OFFCURVE",
"174 548 OFFCURVE",
"174 500 CURVE SMOOTH",
"174 479 OFFCURVE",
"183 462 OFFCURVE",
"201 451 CURVE SMOOTH",
"219 440 OFFCURVE",
"261 423 OFFCURVE",
"328 402 CURVE SMOOTH",
"460 359 OFFCURVE",
"507 317 OFFCURVE",
"507 205 CURVE SMOOTH",
"507 62 OFFCURVE",
"412 -12 OFFCURVE",
"272 -12 CURVE SMOOTH",
"220 -12 OFFCURVE",
"156 -4 OFFCURVE",
"81 12 CURVE SMOOTH",
"45 19 LINE",
"59 126 LINE",
"148 114 OFFCURVE",
"217 108 OFFCURVE",
"264 108 CURVE SMOOTH",
"335 108 OFFCURVE",
"370 137 OFFCURVE",
"370 196 CURVE SMOOTH",
"370 217 OFFCURVE",
"362 234 OFFCURVE",
"346 246 CURVE SMOOTH",
"329 258 OFFCURVE",
"297 271 OFFCURVE",
"248 285 CURVE SMOOTH",
"93 329 OFFCURVE",
"37 382 OFFCURVE",
"37 490 CURVE SMOOTH",
"37 626 OFFCURVE",
"125 692 OFFCURVE",
"269 692 CURVE SMOOTH",
"318 692 OFFCURVE",
"381 685 OFFCURVE",
"457 672 CURVE SMOOTH",
"493 665 LINE",
"482 556 LINE",
"388 567 OFFCURVE",
"322 572 OFFCURVE",
"283 572 CURVE SMOOTH"
);
}
);
width = 544;
}
);
leftKerningGroup = S;
rightKerningGroup = S;
unicode = 0053;
},
{
glyphname = T;
layers = (
{
layerId = "E174F030-6324-451A-8951-EA6336064495";
name = Bold;
paths = (
{
closed = 1;
nodes = (
"13 558 LINE",
"13 680 LINE",
"513 680 LINE",
"513 558 LINE",
"333 558 LINE",
"333 0 LINE",
"195 0 LINE",
"195 558 LINE"
);
}
);
width = 526;
}
);
leftKerningGroup = T;
rightKerningGroup = T;
unicode = 0054;
},
{
glyphname = U;
layers = (
{
layerId = "E174F030-6324-451A-8951-EA6336064495";
name = Bold;
paths = (
{
closed = 1;
nodes = (
"206 227 LINE SMOOTH",
"206 148 OFFCURVE",
"246 108 OFFCURVE",
"327 108 CURVE SMOOTH",
"408 108 OFFCURVE",
"448 148 OFFCURVE",
"448 227 CURVE SMOOTH",
"448 680 LINE",
"586 680 LINE",
"586 230 LINE SMOOTH",
"586 63 OFFCURVE",
"500 -12 OFFCURVE",
"327 -12 CURVE SMOOTH",
"154 -12 OFFCURVE",
"68 63 OFFCURVE",
"68 230 CURVE SMOOTH",
"68 680 LINE",
"206 680 LINE"
);
}
);
width = 654;
}
);
leftKerningGroup = U;
rightKerningGroup = U;
unicode = 0055;
},
{
glyphname = V;
layers = (
{
layerId = "E174F030-6324-451A-8951-EA6336064495";
name = Bold;
paths = (
{
closed = 1;
nodes = (
"442 680 LINE",
"587 680 LINE",
"429 0 LINE",
"174 0 LINE",
"16 680 LINE",
"161 680 LINE",
"279 120 LINE",
"324 120 LINE"
);
}
);
width = 603;
}
);
rightKerningGroup = numbersign;
unicode = 0056;
},
{
glyphname = W;
layers = (
{
layerId = "E174F030-6324-451A-8951-EA6336064495";
name = Bold;
paths = (
{
closed = 1;
nodes = (
"19 680 LINE",
"164 680 LINE",
"248 118 LINE",
"263 118 LINE",
"385 680 LINE",
"545 680 LINE",
"667 118 LINE",
"682 118 LINE",
"766 680 LINE",
"911 680 LINE",
"781 0 LINE",
"572 0 LINE",
"465 517 LINE",
"358 0 LINE",
"149 0 LINE"
);
}
);
width = 930;
}
);
leftKerningGroup = W;
rightKerningGroup = W;
unicode = 0057;
},
{
glyphname = X;
layers = (
{
layerId = "E174F030-6324-451A-8951-EA6336064495";
name = Bold;
paths = (
{
closed = 1;
nodes = (
"162 680 LINE",
"288 430 LINE",
"417 680 LINE",
"560 680 LINE",
"364 333 LINE",
"560 0 LINE",
"407 0 LINE",
"281 235 LINE",
"152 0 LINE",
"9 0 LINE",
"205 326 LINE",
"9 680 LINE"
);
}
);
width = 569;
}
);
rightKerningGroup = numbersign;
unicode = 0058;
},
{
glyphname = Y;
layers = (
{
layerId = "E174F030-6324-451A-8951-EA6336064495";
name = Bold;
paths = (
{
closed = 1;
nodes = (
"348 0 LINE",
"210 0 LINE",
"210 275 LINE",
"0 680 LINE",
"153 680 LINE",
"278 409 LINE",
"403 680 LINE",
"556 680 LINE",
"348 275 LINE"
);
}
);
width = 557;
}
);
leftKerningGroup = Y;
rightKerningGroup = Y;
unicode = 0059;
},
{
glyphname = Z;
layers = (
{
layerId = "E174F030-6324-451A-8951-EA6336064495";
name = Bold;
paths = (
{
closed = 1;
nodes = (
"41 560 LINE",
"41 680 LINE",
"491 680 LINE",
"491 560 LINE",
"207 138 LINE",
"207 120 LINE",
"491 120 LINE",
"491 0 LINE",
"41 0 LINE",
"41 119 LINE",
"325 542 LINE",
"325 560 LINE"
);
}
);
width = 532;
}
);
leftKerningGroup = Z;
rightKerningGroup = Z;
unicode = 005A;
},
{
glyphname = bracketleft;
layers = (
{
layerId = "E174F030-6324-451A-8951-EA6336064495";
name = Bold;
paths = (
{
closed = 1;
nodes = (
"320 749 LINE",
"320 629 LINE",
"205 629 LINE",
"205 -3 LINE",
"320 -3 LINE",
"320 -123 LINE",
"68 -123 LINE",
"68 749 LINE"
);
}
);
width = 355;
}
);
rightKerningGroup = numbersign;
unicode = 005B;
},
{
glyphname = backslash;
layers = (
{
layerId = "E174F030-6324-451A-8951-EA6336064495";
name = Bold;
paths = (
{
closed = 1;
nodes = (
"466 13 LINE",
"350 -36 LINE",
"32 664 LINE",
"146 716 LINE"
);
}
);
width = 498;
}
);
rightKerningGroup = numbersign;
unicode = 005C;
},
{
glyphname = bracketright;
layers = (
{
layerId = "E174F030-6324-451A-8951-EA6336064495";
name = Bold;
paths = (
{
closed = 1;
nodes = (
"35 629 LINE",
"35 749 LINE",
"287 749 LINE",
"287 -123 LINE",
"35 -123 LINE",
"35 -3 LINE",
"150 -3 LINE",
"150 629 LINE"
);
}
);
width = 355;
}
);
rightKerningGroup = numbersign;
unicode = 005D;
},
{
glyphname = asciicircum;
layers = (
{
layerId = "E174F030-6324-451A-8951-EA6336064495";
name = Bold;
paths = (
{
closed = 1;
nodes = (
"383 313 LINE",
"274 530 LINE",
"161 313 LINE",
"21 313 LINE",
"215 660 LINE",
"329 660 LINE",
"523 313 LINE"
);
}
);
width = 560;
}
);
rightKerningGroup = numbersign;
unicode = 005E;
},
{
glyphname = underscore;
layers = (
{
layerId = "E174F030-6324-451A-8951-EA6336064495";
name = Bold;
paths = (
{
closed = 1;
nodes = (
"96 -73 LINE",
"524 -73 LINE",
"524 -187 LINE",
"96 -187 LINE"
);
}
);
width = 620;
}
);
rightKerningGroup = numbersign;
unicode = 005F;
},
{
glyphname = grave;
layers = (
{
layerId = "E174F030-6324-451A-8951-EA6336064495";
name = Bold;
paths = (
{
closed = 1;
nodes = (
"23 753 LINE",
"275 651 LINE",
"245 564 LINE",
"-17 638 LINE"
);
}
);
width = 268;
}
);
rightKerningGroup = numbersign;
unicode = 0060;
},
{
glyphname = a;
layers = (
{
layerId = "E174F030-6324-451A-8951-EA6336064495";
name = Bold;
paths = (
{
closed = 1;
nodes = (
"445 136 LINE",
"448 104 OFFCURVE",
"453 94 OFFCURVE",
"478 89 CURVE",
"474 -12 LINE",
"406 -12 OFFCURVE",
"372 -5 OFFCURVE",
"331 23 CURVE",
"283 0 OFFCURVE",
"234 -12 OFFCURVE",
"184 -12 CURVE SMOOTH",
"81 -12 OFFCURVE",
"29 43 OFFCURVE",
"29 152 CURVE SMOOTH",
"29 259 OFFCURVE",
"85 297 OFFCURVE",
"204 305 CURVE SMOOTH",
"311 313 LINE",
"311 344 LINE SMOOTH",
"311 385 OFFCURVE",
"293 398 OFFCURVE",
"252 398 CURVE",
"64 390 LINE",
"60 483 LINE",
"131 502 OFFCURVE",
"199 512 OFFCURVE",
"264 512 CURVE SMOOTH",
"392 512 OFFCURVE",
"445 461 OFFCURVE",
"445 344 CURVE SMOOTH"
);
},
{
closed = 1;
nodes = (
"220 212 LINE SMOOTH",
"183 209 OFFCURVE",
"164 189 OFFCURVE",
"164 152 CURVE SMOOTH",
"164 115 OFFCURVE",
"180 97 OFFCURVE",
"213 97 CURVE SMOOTH",
"238 97 OFFCURVE",
"266 101 OFFCURVE",
"296 109 CURVE SMOOTH",
"311 113 LINE",
"311 220 LINE"
);
}
);
width = 511;
}
);
leftKerningGroup = a;
rightKerningGroup = a;
unicode = 0061;
},
{
glyphname = b;
layers = (
{
layerId = "E174F030-6324-451A-8951-EA6336064495";
name = Bold;
paths = (
{
closed = 1;
nodes = (
"444 512 OFFCURVE",
"506 446 OFFCURVE",
"506 249 CURVE SMOOTH",
"506 52 OFFCURVE",
"440 -12 OFFCURVE",
"257 -12 CURVE SMOOTH",
"228 -12 OFFCURVE",
"176 -9 OFFCURVE",
"100 -2 CURVE SMOOTH",
"62 2 LINE",
"62 700 LINE",
"196 700 LINE",
"196 485 LINE",
"239 503 OFFCURVE",
"275 512 OFFCURVE",
"304 512 CURVE SMOOTH"
);
},
{
closed = 1;
nodes = (
"346 108 OFFCURVE",
"370 145 OFFCURVE",
"370 257 CURVE SMOOTH",
"370 347 OFFCURVE",
"342 392 OFFCURVE",
"286 392 CURVE SMOOTH",
"259 392 OFFCURVE",
"234 389 OFFCURVE",
"210 382 CURVE",
"196 379 LINE",
"196 112 LINE",
"227 109 OFFCURVE",
"247 108 OFFCURVE",
"257 108 CURVE SMOOTH"
);
}
);
width = 544;
}
);
leftKerningGroup = b;
rightKerningGroup = b;
unicode = 0062;
},
{
glyphname = c;
layers = (
{
layerId = "E174F030-6324-451A-8951-EA6336064495";
name = Bold;
paths = (
{
closed = 1;
nodes = (
"284 512 OFFCURVE",
"328 507 OFFCURVE",
"382 496 CURVE SMOOTH",
"409 490 LINE",
"405 384 LINE",
"352 389 OFFCURVE",
"313 392 OFFCURVE",
"288 392 CURVE SMOOTH",
"196 392 OFFCURVE",
"174 360 OFFCURVE",
"174 251 CURVE SMOOTH",
"174 142 OFFCURVE",
"196 108 OFFCURVE",
"289 108 CURVE",
"405 116 LINE",
"409 9 LINE",
"338 -5 OFFCURVE",
"283 -12 OFFCURVE",
"246 -12 CURVE SMOOTH",
"98 -12 OFFCURVE",
"38 67 OFFCURVE",
"38 251 CURVE SMOOTH",
"38 435 OFFCURVE",
"101 512 OFFCURVE",
"249 512 CURVE SMOOTH"
);
}
);
width = 446;
}
);
leftKerningGroup = c;
rightKerningGroup = c;
unicode = 0063;
},
{
glyphname = d;
layers = (
{
layerId = "E174F030-6324-451A-8951-EA6336064495";
name = Bold;
paths = (
{
closed = 1;
nodes = (
"487 700 LINE",
"487 0 LINE",
"354 0 LINE",
"354 21 LINE",
"307 -1 OFFCURVE",
"267 -12 OFFCURVE",
"233 -12 CURVE SMOOTH",
"88 -12 OFFCURVE",
"38 69 OFFCURVE",
"38 251 CURVE SMOOTH",
"38 433 OFFCURVE",
"106 512 OFFCURVE",
"245 512 CURVE SMOOTH",
"266 512 OFFCURVE",
"296 509 OFFCURVE",
"334 502 CURVE SMOOTH",
"353 498 LINE",
"353 700 LINE"
);
},
{
closed = 1;
nodes = (
"353 123 LINE",
"353 386 LINE",
"316 393 OFFCURVE",
"284 396 OFFCURVE",
"255 396 CURVE SMOOTH",
"201 396 OFFCURVE",
"174 348 OFFCURVE",
"174 252 CURVE SMOOTH",
"174 148 OFFCURVE",
"196 108 OFFCURVE",
"252 108 CURVE SMOOTH",
"279 108 OFFCURVE",
"308 112 OFFCURVE",
"339 120 CURVE"
);
}
);
width = 549;
}
);
leftKerningGroup = d;
rightKerningGroup = numbersign;
unicode = 0064;
},
{
glyphname = e;
layers = (
{
layerId = "E174F030-6324-451A-8951-EA6336064495";
name = Bold;
paths = (
{
closed = 1;
nodes = (
"172 193 LINE",
"173 132 OFFCURVE",
"205 106 OFFCURVE",
"264 106 CURVE SMOOTH",
"326 106 OFFCURVE",
"381 108 OFFCURVE",
"430 112 CURVE SMOOTH",
"458 115 LINE",
"460 16 LINE",
"383 -3 OFFCURVE",
"314 -12 OFFCURVE",
"252 -12 CURVE SMOOTH",
"101 -12 OFFCURVE",
"37 63 OFFCURVE",
"37 243 CURVE SMOOTH",
"37 422 OFFCURVE",
"111 512 OFFCURVE",
"258 512 CURVE SMOOTH",
"403 512 OFFCURVE",
"476 437 OFFCURVE",
"476 286 CURVE",
"466 193 LINE"
);
},
{
closed = 1;
nodes = (
"344 295 LINE",
"344 375 OFFCURVE",
"322 402 OFFCURVE",
"259 402 CURVE SMOOTH",
"195 402 OFFCURVE",
"172 372 OFFCURVE",
"171 295 CURVE"
);
}
);
width = 510;
}
);
leftKerningGroup = c;
rightKerningGroup = e;
unicode = 0065;
},
{
glyphname = f;
layers = (
{
layerId = "E174F030-6324-451A-8951-EA6336064495";
name = Bold;
paths = (
{
closed = 1;
nodes = (
"220 386 LINE",
"220 0 LINE",
"86 0 LINE",
"86 386 LINE",
"32 386 LINE",
"32 500 LINE",
"86 500 LINE",
"86 522 LINE SMOOTH",
"86 666 OFFCURVE",
"123 712 OFFCURVE",
"232 712 CURVE SMOOTH",
"256 712 OFFCURVE",
"287 709 OFFCURVE",
"325 702 CURVE",
"346 699 LINE",
"344 590 LINE",
"315 591 OFFCURVE",
"290 592 OFFCURVE",
"270 592 CURVE SMOOTH",
"230 592 OFFCURVE",
"220 573 OFFCURVE",
"220 521 CURVE SMOOTH",
"220 500 LINE",
"341 500 LINE",
"341 386 LINE"
);
}
);
width = 357;
}
);
rightKerningGroup = numbersign;
unicode = 0066;
},
{
glyphname = g;
layers = (
{
layerId = "E174F030-6324-451A-8951-EA6336064495";
name = Bold;
paths = (
{
closed = 1;
nodes = (
"515 -176 OFFCURVE",
"421 -230 OFFCURVE",
"271 -230 CURVE SMOOTH",
"121 -230 OFFCURVE",
"37 -196 OFFCURVE",
"37 -91 CURVE SMOOTH",
"37 -49 OFFCURVE",
"61 -9 OFFCURVE",
"109 28 CURVE",
"84 45 OFFCURVE",
"72 70 OFFCURVE",
"72 104 CURVE SMOOTH",
"72 117 OFFCURVE",
"82 139 OFFCURVE",
"102 170 CURVE SMOOTH",
"111 184 LINE",
"66 217 OFFCURVE",
"43 265 OFFCURVE",
"43 329 CURVE SMOOTH",
"43 456 OFFCURVE",
"126 510 OFFCURVE",
"253 510 CURVE SMOOTH",
"282 510 OFFCURVE",
"310 507 OFFCURVE",
"338 500 CURVE",
"354 497 LINE",
"515 502 LINE",
"515 395 LINE",
"440 401 LINE",
"455 378 OFFCURVE",
"462 356 OFFCURVE",
"462 333 CURVE SMOOTH",
"462 200 OFFCURVE",
"396 157 OFFCURVE",
"251 157 CURVE SMOOTH",
"236 157 OFFCURVE",
"222 158 OFFCURVE",
"210 161 CURVE",
"203 144 OFFCURVE",
"200 130 OFFCURVE",
"200 119 CURVE SMOOTH",
"200 108 OFFCURVE",
"206 100 OFFCURVE",
"217 96 CURVE SMOOTH",
"228 92 OFFCURVE",
"255 90 OFFCURVE",
"297 89 CURVE SMOOTH",
"465 88 OFFCURVE",
"515 52 OFFCURVE",
"515 -62 CURVE SMOOTH"
);
},
{
closed = 1;
nodes = (
"169 -106 OFFCURVE",
"204 -120 OFFCURVE",
"275 -120 CURVE SMOOTH",
"345 -120 OFFCURVE",
"380 -103 OFFCURVE",
"380 -70 CURVE SMOOTH",
"380 -52 OFFCURVE",
"374 -40 OFFCURVE",
"362 -35 CURVE SMOOTH",
"350 -30 OFFCURVE",
"325 -28 OFFCURVE",
"286 -27 CURVE",
"196 -20 LINE",
"178 -38 OFFCURVE",
"169 -57 OFFCURVE",
"169 -77 CURVE SMOOTH"
);
},
{
closed = 1;
nodes = (
"177 284 OFFCURVE",
"203 259 OFFCURVE",
"254 259 CURVE SMOOTH",
"305 259 OFFCURVE",
"330 284 OFFCURVE",
"330 333 CURVE SMOOTH",
"330 382 OFFCURVE",
"305 406 OFFCURVE",
"254 406 CURVE SMOOTH",
"203 406 OFFCURVE",
"177 382 OFFCURVE",
"177 333 CURVE SMOOTH"
);
}
);
width = 534;
}
);
leftKerningGroup = g;
rightKerningGroup = g;
unicode = 0067;
},
{
glyphname = h;
lastChange = "2015-06-24 01:30:28 +0000";
layers = (
{
layerId = "E174F030-6324-451A-8951-EA6336064495";
name = Bold;
paths = (
{
closed = 1;
nodes = (
"196 0 LINE",
"62 0 LINE",
"62 700 LINE",
"196 700 LINE",
"196 476 LINE",
"242 500 OFFCURVE",
"283 512 OFFCURVE",
"320 512 CURVE SMOOTH",
"453 512 OFFCURVE",
"496 435 OFFCURVE",
"496 271 CURVE SMOOTH",
"496 0 LINE",
"362 0 LINE",
"362 268 LINE SMOOTH",
"362 352 OFFCURVE",
"347 392 OFFCURVE",
"287 392 CURVE SMOOTH",
"261 392 OFFCURVE",
"235 388 OFFCURVE",
"209 380 CURVE SMOOTH",
"196 376 LINE"
);
}
);
width = 553;
}
);
leftKerningGroup = h;
rightKerningGroup = h;
unicode = 0068;
},
{
glyphname = i;
layers = (
{
layerId = "E174F030-6324-451A-8951-EA6336064495";
name = Bold;
paths = (
{
closed = 1;
nodes = (
"62 0 LINE",
"62 500 LINE",
"196 500 LINE",
"196 0 LINE"
);
},
{
closed = 1;
nodes = (
"62 564 LINE",
"62 700 LINE",
"196 700 LINE",
"196 564 LINE"
);
}
);
width = 258;
}
);
leftKerningGroup = i;
rightKerningGroup = numbersign;
unicode = 0069;
},
{
glyphname = j;
layers = (
{
layerId = "E174F030-6324-451A-8951-EA6336064495";
name = Bold;
paths = (
{
closed = 1;
nodes = (
"63 500 LINE",
"197 500 LINE",
"197 23 LINE SMOOTH",
"197 -113 OFFCURVE",
"162 -158 OFFCURVE",
"19 -230 CURVE",
"-34 -131 LINE",
"26 -91 OFFCURVE",
"44 -75 OFFCURVE",
"55 -43 CURVE SMOOTH",
"60 -28 OFFCURVE",
"63 -5 OFFCURVE",
"63 24 CURVE SMOOTH"
);
},
{
closed = 1;
nodes = (
"63 564 LINE",
"63 700 LINE",
"197 700 LINE",
"197 564 LINE"
);
}
);
width = 259;
}
);
leftKerningGroup = i;
rightKerningGroup = numbersign;
unicode = 006A;
},
{
glyphname = k;
layers = (
{
layerId = "E174F030-6324-451A-8951-EA6336064495";
name = Bold;
paths = (
{
closed = 1;
nodes = (
"196 0 LINE",
"62 0 LINE",
"62 700 LINE",
"196 700 LINE",
"196 302 LINE",
"247 311 LINE",
"346 500 LINE",
"496 500 LINE",
"366 263 LINE",
"503 0 LINE",
"352 0 LINE",
"251 195 LINE",
"196 186 LINE"
);
}
);
width = 515;
}
);
leftKerningGroup = h;
rightKerningGroup = k;
unicode = 006B;
},
{
glyphname = l;
lastChange = "2015-06-28 01:35:39 +0000";
layers = (
{
layerId = "E174F030-6324-451A-8951-EA6336064495";
name = Bold;
paths = (
{
closed = 1;
nodes = (
"68 0 LINE",
"68 700 LINE",
"202 700 LINE",
"202 0 LINE"
);
}
);
width = 270;
}
);
leftKerningGroup = l;
rightKerningGroup = numbersign;
unicode = 006C;
},
{
glyphname = m;
layers = (
{
layerId = "E174F030-6324-451A-8951-EA6336064495";
name = Bold;
paths = (
{
closed = 1;
nodes = (
"196 0 LINE",
"62 0 LINE",
"62 500 LINE",
"195 500 LINE",
"195 472 LINE",
"241 499 OFFCURVE",
"280 512 OFFCURVE",
"313 512 CURVE SMOOTH",
"367 512 OFFCURVE",
"409 496 OFFCURVE",
"438 465 CURVE",
"499 496 OFFCURVE",
"555 512 OFFCURVE",
"606 512 CURVE SMOOTH",
"738 512 OFFCURVE",
"782 439 OFFCURVE",
"782 271 CURVE SMOOTH",
"782 0 LINE",
"648 0 LINE",
"648 267 LINE SMOOTH",
"648 352 OFFCURVE",
"634 392 OFFCURVE",
"578 392 CURVE SMOOTH",
"557 392 OFFCURVE",
"531 387 OFFCURVE",
"500 378 CURVE",
"485 373 LINE",
"488 323 OFFCURVE",
"489 285 OFFCURVE",
"489 259 CURVE SMOOTH",
"489 0 LINE",
"355 0 LINE",
"355 257 LINE SMOOTH",
"355 356 OFFCURVE",
"344 392 OFFCURVE",
"285 392 CURVE SMOOTH",
"259 392 OFFCURVE",
"233 387 OFFCURVE",
"208 378 CURVE SMOOTH",
"196 374 LINE"
);
}
);
width = 839;
}
);
leftKerningGroup = m;
rightKerningGroup = h;
unicode = 006D;
},
{
glyphname = n;
layers = (
{
layerId = "E174F030-6324-451A-8951-EA6336064495";
name = Bold;
paths = (
{
closed = 1;
nodes = (
"196 0 LINE",
"62 0 LINE",
"62 500 LINE",
"195 500 LINE",
"195 472 LINE",
"240 499 OFFCURVE",
"282 512 OFFCURVE",
"320 512 CURVE SMOOTH",
"453 512 OFFCURVE",
"496 435 OFFCURVE",
"496 271 CURVE SMOOTH",
"496 0 LINE",
"362 0 LINE",
"362 267 LINE SMOOTH",
"362 352 OFFCURVE",
"347 392 OFFCURVE",
"287 392 CURVE SMOOTH",
"260 392 OFFCURVE",
"233 387 OFFCURVE",
"208 378 CURVE SMOOTH",
"196 374 LINE"
);
}
);
width = 553;
}
);
leftKerningGroup = m;
rightKerningGroup = h;
unicode = 006E;
},
{
glyphname = o;
layers = (
{
layerId = "E174F030-6324-451A-8951-EA6336064495";
name = Bold;
paths = (
{
closed = 1;
nodes = (
"124 489 OFFCURVE",
"183 512 OFFCURVE",
"266 512 CURVE SMOOTH",
"431 512 OFFCURVE",
"496 416 OFFCURVE",
"496 251 CURVE SMOOTH",
"496 76 OFFCURVE",
"419 -12 OFFCURVE",
"266 -12 CURVE SMOOTH",
"113 -12 OFFCURVE",
"36 76 OFFCURVE",
"36 251 CURVE SMOOTH",
"36 334 OFFCURVE",
"54 398 OFFCURVE",
"89 444 CURVE SMOOTH"
);
},
{
closed = 1;
nodes = (
"206 114 OFFCURVE",
"231 102 OFFCURVE",
"266 102 CURVE SMOOTH",
"337 102 OFFCURVE",
"360 148 OFFCURVE",
"360 251 CURVE SMOOTH",
"360 354 OFFCURVE",
"337 398 OFFCURVE",
"266 398 CURVE SMOOTH",
"195 398 OFFCURVE",
"172 354 OFFCURVE",
"172 251 CURVE SMOOTH",
"172 200 OFFCURVE",
"179 162 OFFCURVE",
"193 138 CURVE SMOOTH"
);
}
);
width = 532;
}
);
leftKerningGroup = c;
rightKerningGroup = o;
unicode = 006F;
},
{
glyphname = p;
layers = (
{
layerId = "E174F030-6324-451A-8951-EA6336064495";
name = Bold;
paths = (
{
closed = 1;
nodes = (
"62 -210 LINE",
"62 500 LINE",
"195 500 LINE",
"195 473 LINE",
"238 499 OFFCURVE",
"276 512 OFFCURVE",
"309 512 CURVE SMOOTH",
"444 512 OFFCURVE",
"506 439 OFFCURVE",
"506 246 CURVE SMOOTH",
"506 53 OFFCURVE",
"440 -12 OFFCURVE",
"279 -12 CURVE SMOOTH",
"257 -12 OFFCURVE",
"233 -10 OFFCURVE",
"208 -6 CURVE SMOOTH",
"196 -4 LINE",
"196 -210 LINE"
);
},
{
closed = 1;
nodes = (
"258 392 OFFCURVE",
"233 387 OFFCURVE",
"208 377 CURVE SMOOTH",
"196 372 LINE",
"196 110 LINE",
"226 106 OFFCURVE",
"250 104 OFFCURVE",
"269 104 CURVE SMOOTH",
"346 104 OFFCURVE",
"370 145 OFFCURVE",
"370 254 CURVE SMOOTH",
"370 346 OFFCURVE",
"341 392 OFFCURVE",
"283 392 CURVE SMOOTH"
);
}
);
width = 544;
}
);
leftKerningGroup = m;
rightKerningGroup = b;
unicode = 0070;
},
{
glyphname = q;
layers = (
{
layerId = "E174F030-6324-451A-8951-EA6336064495";
name = Bold;
paths = (
{
closed = 1;
nodes = (
"99 -12 OFFCURVE",
"38 54 OFFCURVE",
"38 252 CURVE SMOOTH",
"38 450 OFFCURVE",
"103 512 OFFCURVE",
"286 512 CURVE SMOOTH",
"327 512 OFFCURVE",
"380 509 OFFCURVE",
"445 502 CURVE SMOOTH",
"481 499 LINE",
"481 -210 LINE",
"347 -210 LINE",
"347 15 LINE",
"304 -3 OFFCURVE",
"268 -12 OFFCURVE",
"239 -12 CURVE SMOOTH"
);
},
{
closed = 1;
nodes = (
"197 396 OFFCURVE",
"172 355 OFFCURVE",
"172 243 CURVE SMOOTH",
"172 153 OFFCURVE",
"200 108 OFFCURVE",
"257 108 CURVE SMOOTH",
"284 108 OFFCURVE",
"309 111 OFFCURVE",
"334 118 CURVE",
"347 121 LINE",
"347 392 LINE",
"322 395 OFFCURVE",
"302 396 OFFCURVE",
"286 396 CURVE SMOOTH"
);
}
);
width = 543;
}
);
leftKerningGroup = d;
rightKerningGroup = q;
unicode = 0071;
},
{
glyphname = r;
layers = (
{
layerId = "E174F030-6324-451A-8951-EA6336064495";
name = Bold;
paths = (
{
closed = 1;
nodes = (
"62 0 LINE",
"62 500 LINE",
"195 500 LINE",
"195 447 LINE",
"251 480 OFFCURVE",
"304 502 OFFCURVE",
"355 512 CURVE",
"355 377 LINE",
"301 366 OFFCURVE",
"255 354 OFFCURVE",
"216 342 CURVE",
"196 335 LINE",
"196 0 LINE"
);
}
);
width = 372;
}
);
leftKerningGroup = m;
rightKerningGroup = r;
unicode = 0072;
},
{
glyphname = s;
layers = (
{
layerId = "E174F030-6324-451A-8951-EA6336064495";
name = Bold;
paths = (
{
closed = 1;
nodes = (
"421 375 LINE",
"338 386 OFFCURVE",
"281 391 OFFCURVE",
"248 391 CURVE SMOOTH",
"215 391 OFFCURVE",
"193 388 OFFCURVE",
"184 382 CURVE",
"174 376 OFFCURVE",
"169 367 OFFCURVE",
"169 354 CURVE SMOOTH",
"169 341 OFFCURVE",
"176 332 OFFCURVE",
"189 327 CURVE SMOOTH",
"202 322 OFFCURVE",
"235 314 OFFCURVE",
"289 305 CURVE SMOOTH",
"396 285 OFFCURVE",
"437 249 OFFCURVE",
"437 150 CURVE SMOOTH",
"437 42 OFFCURVE",
"370 -12 OFFCURVE",
"236 -12 CURVE SMOOTH",
"192 -12 OFFCURVE",
"139 -6 OFFCURVE",
"76 6 CURVE SMOOTH",
"44 12 LINE",
"48 124 LINE",
"131 113 OFFCURVE",
"188 108 OFFCURVE",
"221 108 CURVE SMOOTH",
"253 108 OFFCURVE",
"275 111 OFFCURVE",
"287 118 CURVE SMOOTH",
"298 124 OFFCURVE",
"304 133 OFFCURVE",
"304 146 CURVE SMOOTH",
"304 159 OFFCURVE",
"298 168 OFFCURVE",
"286 174 CURVE SMOOTH",
"273 180 OFFCURVE",
"241 187 OFFCURVE",
"190 196 CURVE SMOOTH",
"86 213 OFFCURVE",
"36 245 OFFCURVE",
"36 351 CURVE SMOOTH",
"36 457 OFFCURVE",
"116 511 OFFCURVE",
"229 511 CURVE SMOOTH",
"268 511 OFFCURVE",
"322 505 OFFCURVE",
"390 492 CURVE SMOOTH",
"423 486 LINE"
);
}
);
width = 472;
}
);
leftKerningGroup = s;
rightKerningGroup = s;
unicode = 0073;
},
{
glyphname = t;
layers = (
{
layerId = "E174F030-6324-451A-8951-EA6336064495";
name = Bold;
paths = (
{
closed = 1;
nodes = (
"339 386 LINE",
"216 386 LINE",
"216 181 LINE SMOOTH",
"216 161 OFFCURVE",
"217 147 OFFCURVE",
"218 139 CURVE SMOOTH",
"220 122 OFFCURVE",
"231 108 OFFCURVE",
"258 108 CURVE SMOOTH",
"334 110 LINE",
"340 3 LINE",
"295 -7 OFFCURVE",
"261 -12 OFFCURVE",
"238 -12 CURVE SMOOTH",
"118 -12 OFFCURVE",
"82 33 OFFCURVE",
"82 178 CURVE SMOOTH",
"82 386 LINE",
"23 386 LINE",
"23 500 LINE",
"82 500 LINE",
"82 639 LINE",
"216 639 LINE",
"216 500 LINE",
"339 500 LINE"
);
}
);
width = 364;
}
);
leftKerningGroup = t;
rightKerningGroup = t;
unicode = 0074;
},
{
glyphname = u;
layers = (
{
layerId = "E174F030-6324-451A-8951-EA6336064495";
name = Bold;
paths = (
{
closed = 1;
nodes = (
"357 500 LINE",
"491 500 LINE",
"491 0 LINE",
"358 0 LINE",
"358 28 LINE",
"310 1 OFFCURVE",
"268 -12 OFFCURVE",
"233 -12 CURVE SMOOTH",
"94 -12 OFFCURVE",
"57 58 OFFCURVE",
"57 238 CURVE SMOOTH",
"57 500 LINE",
"191 500 LINE",
"191 236 LINE SMOOTH",
"191 137 OFFCURVE",
"200 108 OFFCURVE",
"261 108 CURVE SMOOTH",
"290 108 OFFCURVE",
"318 113 OFFCURVE",
"344 122 CURVE SMOOTH",
"357 126 LINE"
);
}
);
width = 553;
}
);
leftKerningGroup = u;
rightKerningGroup = q;
unicode = 0075;
},
{
glyphname = v;
layers = (
{
layerId = "E174F030-6324-451A-8951-EA6336064495";
name = Bold;
paths = (
{
closed = 1;
nodes = (
"15 500 LINE",
"155 500 LINE",
"235 114 LINE",
"263 114 LINE",
"347 500 LINE",
"483 500 LINE",
"363 0 LINE",
"135 0 LINE"
);
}
);
width = 498;
}
);
rightKerningGroup = numbersign;
unicode = 0076;
},
{
glyphname = w;
layers = (
{
layerId = "E174F030-6324-451A-8951-EA6336064495";
name = Bold;
paths = (
{
closed = 1;
nodes = (
"24 500 LINE",
"156 500 LINE",
"217 114 LINE",
"241 114 LINE",
"317 490 LINE",
"455 490 LINE",
"531 114 LINE",
"555 114 LINE",
"616 500 LINE",
"748 500 LINE",
"653 0 LINE",
"443 0 LINE",
"386 306 LINE",
"329 0 LINE",
"119 0 LINE"
);
}
);
width = 772;
}
);
leftKerningGroup = w;
rightKerningGroup = w;
unicode = 0077;
},
{
glyphname = x;
layers = (
{
layerId = "E174F030-6324-451A-8951-EA6336064495";
name = Bold;
paths = (
{
closed = 1;
nodes = (
"14 500 LINE",
"157 500 LINE",
"237 345 LINE",
"318 500 LINE",
"461 500 LINE",
"319 255 LINE",
"461 0 LINE",
"318 0 LINE",
"237 153 LINE",
"157 0 LINE",
"14 0 LINE",
"151 251 LINE"
);
}
);
width = 474;
}
);
rightKerningGroup = numbersign;
unicode = 0078;
},
{
glyphname = y;
layers = (
{
layerId = "E174F030-6324-451A-8951-EA6336064495";
name = Bold;
paths = (
{
closed = 1;
nodes = (
"16 500 LINE",
"148 500 LINE",
"239 114 LINE",
"262 114 LINE",
"353 500 LINE",
"485 500 LINE",
"309 -210 LINE",
"178 -210 LINE",
"233 0 LINE",
"139 0 LINE"
);
}
);
width = 500;
}
);
leftKerningGroup = y;
rightKerningGroup = y;
unicode = 0079;
},
{
glyphname = z;
layers = (
{
layerId = "E174F030-6324-451A-8951-EA6336064495";
name = Bold;
paths = (
{
closed = 1;
nodes = (
"41 380 LINE",
"41 500 LINE",
"412 500 LINE",
"412 380 LINE",
"202 120 LINE",
"412 120 LINE",
"412 0 LINE",
"41 0 LINE",
"41 120 LINE",
"251 380 LINE"
);
}
);
width = 454;
}
);
leftKerningGroup = z;
rightKerningGroup = z;
unicode = 007A;
},
{
glyphname = braceleft;
layers = (
{
layerId = "E174F030-6324-451A-8951-EA6336064495";
name = Bold;
paths = (
{
closed = 1;
nodes = (
"258 448 LINE",
"258 364 OFFCURVE",
"241 337 OFFCURVE",
"146 314 CURVE",
"239 291 OFFCURVE",
"259 257 OFFCURVE",
"259 172 CURVE",
"252 55 LINE",
"252 10 OFFCURVE",
"267 -16 OFFCURVE",
"323 -20 CURVE",
"323 -134 LINE",
"175 -129 OFFCURVE",
"121 -82 OFFCURVE",
"121 38 CURVE",
"128 159 LINE",
"128 208 OFFCURVE",
"91 242 OFFCURVE",
"16 261 CURVE",
"16 365 LINE",
"91 382 OFFCURVE",
"128 414 OFFCURVE",
"128 459 CURVE",
"121 586 LINE",
"121 713 OFFCURVE",
"174 756 OFFCURVE",
"325 761 CURVE",
"325 647 LINE",
"268 642 OFFCURVE",
"251 620 OFFCURVE",
"251 576 CURVE"
);
}
);
width = 361;
}
);
rightKerningGroup = numbersign;
unicode = 007B;
},
{
glyphname = bar;
layers = (
{
layerId = "E174F030-6324-451A-8951-EA6336064495";
name = Bold;
paths = (
{
closed = 1;
nodes = (
"67 -210 LINE",
"67 700 LINE",
"201 700 LINE",
"201 -210 LINE"
);
}
);
width = 268;
}
);
rightKerningGroup = numbersign;
unicode = 007C;
},
{
glyphname = braceright;
layers = (
{
layerId = "E174F030-6324-451A-8951-EA6336064495";
name = Bold;
paths = (
{
closed = 1;
nodes = (
"102 172 LINE",
"102 257 OFFCURVE",
"122 291 OFFCURVE",
"215 314 CURVE",
"120 337 OFFCURVE",
"103 364 OFFCURVE",
"103 448 CURVE",
"110 576 LINE",
"110 620 OFFCURVE",
"93 642 OFFCURVE",
"36 647 CURVE",
"36 761 LINE",
"187 756 OFFCURVE",
"240 713 OFFCURVE",
"240 586 CURVE",
"233 459 LINE",
"233 414 OFFCURVE",
"270 382 OFFCURVE",
"345 365 CURVE",
"345 261 LINE",
"270 242 OFFCURVE",
"233 208 OFFCURVE",
"233 159 CURVE",
"240 38 LINE",
"240 -82 OFFCURVE",
"186 -129 OFFCURVE",
"38 -134 CURVE",
"38 -20 LINE",
"94 -16 OFFCURVE",
"109 10 OFFCURVE",
"109 55 CURVE"
);
}
);
width = 361;
}
);
rightKerningGroup = numbersign;
unicode = 007D;
},
{
glyphname = asciitilde;
layers = (
{
layerId = "E174F030-6324-451A-8951-EA6336064495";
name = Bold;
paths = (
{
closed = 1;
nodes = (
"422 175 OFFCURVE",
"402 170 OFFCURVE",
"383 170 CURVE SMOOTH",
"364 170 OFFCURVE",
"329 177 OFFCURVE",
"276 192 CURVE SMOOTH",
"223 207 OFFCURVE",
"191 214 OFFCURVE",
"178 214 CURVE SMOOTH",
"153 214 OFFCURVE",
"109 197 OFFCURVE",
"88 184 CURVE",
"71 175 LINE",
"61 282 LINE",
"103 317 OFFCURVE",
"144 334 OFFCURVE",
"184 334 CURVE SMOOTH",
"203 334 OFFCURVE",
"237 327 OFFCURVE",
"288 312 CURVE SMOOTH",
"339 297 OFFCURVE",
"371 290 OFFCURVE",
"384 290 CURVE SMOOTH",
"409 290 OFFCURVE",
"438 299 OFFCURVE",
"472 318 CURVE SMOOTH",
"489 328 LINE",
"497 221 LINE",
"484 208 OFFCURVE",
"467 197 OFFCURVE",
"445 186 CURVE SMOOTH"
);
}
);
width = 560;
}
);
rightKerningGroup = numbersign;
unicode = 007E;
},
{
glyphname = exclamdown;
layers = (
{
layerId = "E174F030-6324-451A-8951-EA6336064495";
name = Bold;
paths = (
{
closed = 1;
nodes = (
"204 500 LINE",
"204 339 LINE",
"60 339 LINE",
"60 500 LINE"
);
},
{
closed = 1;
nodes = (
"191 250 LINE",
"204 -180 LINE",
"59 -180 LINE",
"73 250 LINE"
);
}
);
width = 264;
}
);
rightKerningGroup = numbersign;
unicode = 00A1;
},
{
glyphname = cent;
layers = (
{
layerId = "E174F030-6324-451A-8951-EA6336064495";
name = Bold;
paths = (
{
closed = 1;
nodes = (
"270 -75 LINE",
"270 29 LINE",
"149 38 OFFCURVE",
"88 111 OFFCURVE",
"88 249 CURVE SMOOTH",
"88 386 OFFCURVE",
"149 460 OFFCURVE",
"270 470 CURVE",
"270 571 LINE",
"380 571 LINE",
"380 466 LINE",
"459 453 LINE",
"455 353 LINE",
"402 355 OFFCURVE",
"359 356 OFFCURVE",
"326 356 CURVE SMOOTH",
"258 356 OFFCURVE",
"224 326 OFFCURVE",
"224 250 CURVE SMOOTH",
"224 174 OFFCURVE",
"255 143 OFFCURVE",
"339 143 CURVE SMOOTH",
"455 147 LINE",
"459 47 LINE",
"433 40 OFFCURVE",
"407 36 OFFCURVE",
"380 34 CURVE",
"380 -75 LINE"
);
}
);
width = 560;
}
);
rightKerningGroup = numbersign;
unicode = 00A2;
},
{
glyphname = sterling;
layers = (
{
layerId = "E174F030-6324-451A-8951-EA6336064495";
name = Bold;
paths = (
{
closed = 1;
nodes = (
"298 551 OFFCURVE",
"281 529 OFFCURVE",
"281 486 CURVE SMOOTH",
"281 433 LINE",
"434 433 LINE",
"434 319 LINE",
"281 319 LINE",
"281 114 LINE",
"405 114 LINE",
"474 130 LINE",
"495 18 LINE",
"414 0 LINE",
"75 0 LINE",
"75 114 LINE",
"149 114 LINE",
"149 319 LINE",
"85 319 LINE",
"85 433 LINE",
"149 433 LINE",
"149 492 LINE SMOOTH",
"149 631 OFFCURVE",
"200 671 OFFCURVE",
"315 671 CURVE SMOOTH",
"360 671 OFFCURVE",
"403 665 OFFCURVE",
"446 653 CURVE SMOOTH",
"468 647 LINE",
"464 543 LINE",
"419 548 OFFCURVE",
"375 551 OFFCURVE",
"333 551 CURVE SMOOTH"
);
}
);
width = 560;
}
);
rightKerningGroup = numbersign;
unicode = 00A3;
},
{
glyphname = currency;
layers = (
{
layerId = "E174F030-6324-451A-8951-EA6336064495";
name = Bold;
paths = (
{
closed = 1;
nodes = (
"365 75 LINE",
"338 62 OFFCURVE",
"310 55 OFFCURVE",
"280 55 CURVE SMOOTH",
"250 55 OFFCURVE",
"222 62 OFFCURVE",
"195 75 CURVE",
"122 2 LINE",
"30 94 LINE",
"102 166 LINE",
"89 193 OFFCURVE",
"83 222 OFFCURVE",
"83 252 CURVE SMOOTH",
"83 281 OFFCURVE",
"89 310 OFFCURVE",
"102 337 CURVE",
"30 410 LINE",
"122 502 LINE",
"194 429 LINE",
"221 442 OFFCURVE",
"249 449 OFFCURVE",
"280 449 CURVE SMOOTH",
"310 449 OFFCURVE",
"338 442 OFFCURVE",
"365 429 CURVE",
"438 502 LINE",
"530 410 LINE",
"457 337 LINE",
"470 310 OFFCURVE",
"477 282 OFFCURVE",
"477 252 CURVE SMOOTH",
"477 221 OFFCURVE",
"470 193 OFFCURVE",
"457 166 CURVE",
"530 94 LINE",
"438 2 LINE"
);
},
{
closed = 1;
nodes = (
"237 175 OFFCURVE",
"257 166 OFFCURVE",
"280 166 CURVE SMOOTH",
"327 166 OFFCURVE",
"366 205 OFFCURVE",
"366 252 CURVE SMOOTH",
"366 299 OFFCURVE",
"327 338 OFFCURVE",
"280 338 CURVE SMOOTH",
"233 338 OFFCURVE",
"194 299 OFFCURVE",
"194 252 CURVE SMOOTH",
"194 229 OFFCURVE",
"203 209 OFFCURVE",
"220 192 CURVE SMOOTH"
);
}
);
width = 560;
}
);
rightKerningGroup = numbersign;
unicode = 00A4;
},
{
glyphname = yen;
layers = (
{
layerId = "E174F030-6324-451A-8951-EA6336064495";
name = Bold;
paths = (
{
closed = 1;
nodes = (
"58 291 LINE",
"58 403 LINE",
"150 403 LINE",
"5 660 LINE",
"158 660 LINE",
"281 449 LINE",
"403 660 LINE",
"556 660 LINE",
"413 403 LINE",
"502 403 LINE",
"502 291 LINE",
"351 291 LINE",
"351 246 LINE",
"502 246 LINE",
"502 134 LINE",
"351 134 LINE",
"351 0 LINE",
"213 0 LINE",
"213 134 LINE",
"58 134 LINE",
"58 246 LINE",
"213 246 LINE",
"213 291 LINE"
);
}
);
width = 560;
}
);
rightKerningGroup = numbersign;
unicode = 00A5;
},
{
glyphname = brokenbar;
layers = (
{
layerId = "E174F030-6324-451A-8951-EA6336064495";
name = Bold;
paths = (
{
closed = 1;
nodes = (
"69 700 LINE",
"203 700 LINE",
"203 328 LINE",
"69 328 LINE"
);
},
{
closed = 1;
nodes = (
"69 170 LINE",
"203 170 LINE",
"203 -210 LINE",
"69 -210 LINE"
);
}
);
width = 272;
}
);
rightKerningGroup = numbersign;
unicode = 00A6;
},
{
glyphname = section;
layers = (
{
layerId = "E174F030-6324-451A-8951-EA6336064495";
name = Bold;
paths = (
{
closed = 1;
nodes = (
"444 506 LINE",
"369 517 OFFCURVE",
"313 522 OFFCURVE",
"278 522 CURVE SMOOTH",
"207 522 OFFCURVE",
"187 506 OFFCURVE",
"187 457 CURVE SMOOTH",
"187 442 OFFCURVE",
"196 431 OFFCURVE",
"214 424 CURVE",
"232 416 OFFCURVE",
"270 405 OFFCURVE",
"327 391 CURVE SMOOTH",
"442 363 OFFCURVE",
"475 335 OFFCURVE",
"475 243 CURVE SMOOTH",
"475 196 OFFCURVE",
"458 149 OFFCURVE",
"425 102 CURVE",
"452 77 OFFCURVE",
"463 54 OFFCURVE",
"463 -7 CURVE SMOOTH",
"463 -136 OFFCURVE",
"398 -190 OFFCURVE",
"246 -190 CURVE SMOOTH",
"209 -190 OFFCURVE",
"157 -184 OFFCURVE",
"91 -172 CURVE SMOOTH",
"60 -167 LINE",
"73 -59 LINE",
"145 -69 OFFCURVE",
"199 -74 OFFCURVE",
"235 -74 CURVE SMOOTH",
"306 -74 OFFCURVE",
"335 -56 OFFCURVE",
"335 -18 CURVE SMOOTH",
"335 1 OFFCURVE",
"327 14 OFFCURVE",
"310 22 CURVE SMOOTH",
"293 30 OFFCURVE",
"255 42 OFFCURVE",
"195 57 CURVE SMOOTH",
"75 87 OFFCURVE",
"37 118 OFFCURVE",
"37 213 CURVE SMOOTH",
"37 260 OFFCURVE",
"69 320 OFFCURVE",
"101 347 CURVE",
"72 368 OFFCURVE",
"57 404 OFFCURVE",
"57 455 CURVE SMOOTH",
"57 577 OFFCURVE",
"129 638 OFFCURVE",
"274 638 CURVE SMOOTH",
"317 638 OFFCURVE",
"366 632 OFFCURVE",
"422 620 CURVE SMOOTH",
"450 614 LINE"
);
},
{
closed = 1;
nodes = (
"178 285 OFFCURVE",
"172 265 OFFCURVE",
"172 243 CURVE SMOOTH",
"172 198 OFFCURVE",
"182 191 OFFCURVE",
"235 176 CURVE SMOOTH",
"261 169 OFFCURVE",
"290 160 OFFCURVE",
"321 149 CURVE",
"333 164 OFFCURVE",
"339 189 OFFCURVE",
"339 222 CURVE SMOOTH",
"339 255 OFFCURVE",
"317 270 OFFCURVE",
"279 280 CURVE SMOOTH",
"260 285 OFFCURVE",
"242 289 OFFCURVE",
"225 293 CURVE SMOOTH",
"208 297 OFFCURVE",
"196 300 OFFCURVE",
"189 302 CURVE"
);
}
);
width = 517;
}
);
rightKerningGroup = numbersign;
unicode = 00A7;
},
{
glyphname = dieresis;
layers = (
{
layerId = "E174F030-6324-451A-8951-EA6336064495";
name = Bold;
paths = (
{
closed = 1;
nodes = (
"-30 596 LINE",
"-30 728 LINE",
"98 728 LINE",
"98 596 LINE"
);
},
{
closed = 1;
nodes = (
"186 596 LINE",
"186 728 LINE",
"314 728 LINE",
"314 596 LINE"
);
}
);
width = 268;
}
);
rightKerningGroup = numbersign;
unicode = 00A8;
},
{
glyphname = copyright;
layers = (
{
layerId = "E174F030-6324-451A-8951-EA6336064495";
name = Bold;
paths = (
{
closed = 1;
nodes = (
"163 150 OFFCURVE",
"46 274 OFFCURVE",
"46 436 CURVE SMOOTH",
"46 598 OFFCURVE",
"162 718 OFFCURVE",
"324 718 CURVE SMOOTH",
"486 718 OFFCURVE",
"597 593 OFFCURVE",
"597 432 CURVE SMOOTH",
"597 271 OFFCURVE",
"485 150 OFFCURVE",
"324 150 CURVE SMOOTH"
);
},
{
closed = 1;
nodes = (
"129 549 OFFCURVE",
"108 496 OFFCURVE",
"108 434 CURVE SMOOTH",
"108 310 OFFCURVE",
"200 210 OFFCURVE",
"322 210 CURVE SMOOTH",
"444 210 OFFCURVE",
"535 309 OFFCURVE",
"535 433 CURVE SMOOTH",
"535 557 OFFCURVE",
"442 658 OFFCURVE",
"322 658 CURVE SMOOTH",
"261 658 OFFCURVE",
"211 636 OFFCURVE",
"170 593 CURVE SMOOTH"
);
},
{
closed = 1;
nodes = (
"414 287 LINE",
"395 275 OFFCURVE",
"365 269 OFFCURVE",
"324 269 CURVE SMOOTH",
"240 269 OFFCURVE",
"202 310 OFFCURVE",
"202 435 CURVE SMOOTH",
"202 559 OFFCURVE",
"239 598 OFFCURVE",
"334 598 CURVE SMOOTH",
"360 598 OFFCURVE",
"383 594 OFFCURVE",
"404 586 CURVE",
"414 583 LINE",
"407 497 LINE",
"384 501 OFFCURVE",
"363 503 OFFCURVE",
"346 503 CURVE SMOOTH",
"311 503 OFFCURVE",
"305 487 OFFCURVE",
"305 439 CURVE SMOOTH",
"305 389 OFFCURVE",
"317 364 OFFCURVE",
"340 364 CURVE",
"407 369 LINE"
);
}
);
width = 643;
}
);
rightKerningGroup = numbersign;
unicode = 00A9;
},
{
glyphname = ordfeminine;
layers = (
{
layerId = "E174F030-6324-451A-8951-EA6336064495";
name = Bold;
paths = (
{
closed = 1;
nodes = (
"351 403 LINE",
"356 399 OFFCURVE",
"362 396 OFFCURVE",
"369 395 CURVE",
"367 313 LINE",
"322 313 OFFCURVE",
"291 316 OFFCURVE",
"276 321 CURVE SMOOTH",
"260 326 OFFCURVE",
"248 334 OFFCURVE",
"240 346 CURVE",
"212 325 OFFCURVE",
"181 314 OFFCURVE",
"148 314 CURVE SMOOTH",
"81 314 OFFCURVE",
"42 356 OFFCURVE",
"42 424 CURVE SMOOTH",
"42 487 OFFCURVE",
"84 521 OFFCURVE",
"169 525 CURVE SMOOTH",
"236 528 LINE",
"236 550 LINE SMOOTH",
"236 560 OFFCURVE",
"221 565 OFFCURVE",
"192 565 CURVE",
"61 558 LINE",
"58 633 LINE",
"105 650 OFFCURVE",
"153 659 OFFCURVE",
"202 659 CURVE SMOOTH",
"301 659 OFFCURVE",
"351 632 OFFCURVE",
"351 544 CURVE SMOOTH"
);
},
{
closed = 1;
nodes = (
"200 402 OFFCURVE",
"216 407 OFFCURVE",
"236 418 CURVE",
"236 458 LINE",
"189 455 LINE SMOOTH",
"168 453 OFFCURVE",
"157 444 OFFCURVE",
"157 428 CURVE SMOOTH",
"157 411 OFFCURVE",
"167 402 OFFCURVE",
"188 402 CURVE SMOOTH"
);
}
);
width = 416;
}
);
rightKerningGroup = numbersign;
unicode = 00AA;
},
{
glyphname = guillemotleft;
layers = (
{
layerId = "E174F030-6324-451A-8951-EA6336064495";
name = Bold;
paths = (
{
closed = 1;
nodes = (
"263 319 LINE",
"154 244 LINE",
"263 158 LINE",
"263 23 LINE",
"40 194 LINE",
"40 290 LINE",
"263 454 LINE"
);
},
{
closed = 1;
nodes = (
"546 319 LINE",
"437 244 LINE",
"546 158 LINE",
"546 23 LINE",
"323 194 LINE",
"323 290 LINE",
"546 454 LINE"
);
}
);
width = 601;
}
);
leftKerningGroup = guillemotleft;
rightKerningGroup = guillemotleft;
unicode = 00AB;
},
{
glyphname = logicalnot;
layers = (
{
layerId = "E174F030-6324-451A-8951-EA6336064495";
name = Bold;
paths = (
{
closed = 1;
nodes = (
"57 358 LINE",
"493 358 LINE",
"493 104 LINE",
"373 104 LINE",
"373 238 LINE",
"57 238 LINE"
);
}
);
width = 560;
}
);
rightKerningGroup = numbersign;
unicode = 00AC;
},
{
glyphname = registered;
layers = (
{
layerId = "E174F030-6324-451A-8951-EA6336064495";
name = Bold;
paths = (
{
closed = 1;
nodes = (
"163 150 OFFCURVE",
"46 272 OFFCURVE",
"46 435 CURVE SMOOTH",
"46 598 OFFCURVE",
"162 718 OFFCURVE",
"323 718 CURVE SMOOTH",
"484 718 OFFCURVE",
"597 593 OFFCURVE",
"597 432 CURVE SMOOTH",
"597 271 OFFCURVE",
"487 150 OFFCURVE",
"325 150 CURVE SMOOTH"
);
},
{
closed = 1;
nodes = (
"129 548 OFFCURVE",
"108 495 OFFCURVE",
"108 434 CURVE SMOOTH",
"108 311 OFFCURVE",
"202 210 OFFCURVE",
"323 210 CURVE SMOOTH",
"443 210 OFFCURVE",
"535 310 OFFCURVE",
"535 434 CURVE SMOOTH",
"535 557 OFFCURVE",
"442 658 OFFCURVE",
"322 658 CURVE SMOOTH",
"261 658 OFFCURVE",
"211 636 OFFCURVE",
"170 592 CURVE SMOOTH"
);
},
{
closed = 1;
nodes = (
"297 369 LINE",
"297 276 LINE",
"201 276 LINE",
"201 591 LINE",
"337 591 LINE SMOOTH",
"406 591 OFFCURVE",
"451 556 OFFCURVE",
"451 494 CURVE SMOOTH",
"451 432 OFFCURVE",
"442 410 OFFCURVE",
"413 386 CURVE",
"454 276 LINE",
"354 276 LINE",
"326 369 LINE"
);
},
{
closed = 1;
nodes = (
"296 519 LINE",
"296 440 LINE",
"324 440 LINE SMOOTH",
"347 440 OFFCURVE",
"358 453 OFFCURVE",
"358 480 CURVE SMOOTH",
"358 506 OFFCURVE",
"346 519 OFFCURVE",
"323 519 CURVE SMOOTH"
);
}
);
width = 643;
}
);
rightKerningGroup = numbersign;
unicode = 00AE;
},
{
glyphname = macron;
layers = (
{
layerId = "E174F030-6324-451A-8951-EA6336064495";
name = Bold;
paths = (
{
closed = 1;
nodes = (
"-5 597 LINE",
"-5 697 LINE",
"282 697 LINE",
"282 597 LINE"
);
}
);
width = 268;
}
);
rightKerningGroup = numbersign;
unicode = 00AF;
},
{
glyphname = degree;
layers = (
{
layerId = "E174F030-6324-451A-8951-EA6336064495";
name = Bold;
paths = (
{
closed = 1;
nodes = (
"144 461 OFFCURVE",
"130 497 OFFCURVE",
"130 542 CURVE SMOOTH",
"130 631 OFFCURVE",
"191 692 OFFCURVE",
"280 692 CURVE SMOOTH",
"369 692 OFFCURVE",
"430 631 OFFCURVE",
"430 542 CURVE SMOOTH",
"430 453 OFFCURVE",
"369 393 OFFCURVE",
"280 393 CURVE SMOOTH",
"235 393 OFFCURVE",
"199 407 OFFCURVE",
"172 434 CURVE SMOOTH"
);
},
{
closed = 1;
nodes = (
"212 583 OFFCURVE",
"205 565 OFFCURVE",
"205 542 CURVE SMOOTH",
"205 497 OFFCURVE",
"235 466 OFFCURVE",
"280 466 CURVE SMOOTH",
"325 466 OFFCURVE",
"357 497 OFFCURVE",
"357 542 CURVE SMOOTH",
"357 587 OFFCURVE",
"325 619 OFFCURVE",
"280 619 CURVE SMOOTH",
"257 619 OFFCURVE",
"239 612 OFFCURVE",
"226 598 CURVE SMOOTH"
);
}
);
width = 560;
}
);
rightKerningGroup = numbersign;
unicode = 00B0;
},
{
glyphname = plusminus;
layers = (
{
layerId = "E174F030-6324-451A-8951-EA6336064495";
name = Bold;
paths = (
{
closed = 1;
nodes = (
"50 270 LINE",
"50 390 LINE",
"219 390 LINE",
"219 498 LINE",
"339 498 LINE",
"339 390 LINE",
"510 390 LINE",
"510 270 LINE",
"339 270 LINE",
"339 170 LINE",
"219 170 LINE",
"219 270 LINE"
);
},
{
closed = 1;
nodes = (
"50 139 LINE",
"510 139 LINE",
"510 19 LINE",
"50 19 LINE"
);
}
);
width = 560;
}
);
rightKerningGroup = numbersign;
unicode = 00B1;
},
{
glyphname = twosuperior;
layers = (
{
layerId = "E174F030-6324-451A-8951-EA6336064495";
name = Bold;
paths = (
{
closed = 1;
nodes = (
"252 478 LINE",
"21 478 LINE",
"21 568 LINE",
"94 627 LINE SMOOTH",
"125 652 OFFCURVE",
"140 671 OFFCURVE",
"140 684 CURVE SMOOTH",
"140 694 OFFCURVE",
"128 699 OFFCURVE",
"103 699 CURVE",
"27 693 LINE",
"23 792 LINE",
"72 798 OFFCURVE",
"114 801 OFFCURVE",
"149 801 CURVE SMOOTH",
"220 801 OFFCURVE",
"252 770 OFFCURVE",
"252 712 CURVE SMOOTH",
"252 654 OFFCURVE",
"236 630 OFFCURVE",
"196 601 CURVE SMOOTH",
"158 573 LINE",
"252 573 LINE"
);
}
);
width = 280;
}
);
rightKerningGroup = numbersign;
unicode = 00B2;
},
{
glyphname = threesuperior;
layers = (
{
layerId = "E174F030-6324-451A-8951-EA6336064495";
name = Bold;
paths = (
{
closed = 1;
nodes = (
"213 801 OFFCURVE",
"253 771 OFFCURVE",
"253 712 CURVE SMOOTH",
"253 677 OFFCURVE",
"243 653 OFFCURVE",
"224 642 CURVE",
"247 632 OFFCURVE",
"259 609 OFFCURVE",
"259 572 CURVE SMOOTH",
"259 502 OFFCURVE",
"220 467 OFFCURVE",
"141 467 CURVE",
"20 475 LINE",
"26 568 LINE",
"67 564 OFFCURVE",
"97 562 OFFCURVE",
"118 562 CURVE SMOOTH",
"139 562 OFFCURVE",
"149 567 OFFCURVE",
"149 578 CURVE SMOOTH",
"149 587 OFFCURVE",
"140 592 OFFCURVE",
"123 592 CURVE SMOOTH",
"57 592 LINE",
"57 677 LINE",
"121 677 LINE SMOOTH",
"134 677 OFFCURVE",
"141 682 OFFCURVE",
"141 692 CURVE SMOOTH",
"141 701 OFFCURVE",
"132 706 OFFCURVE",
"114 706 CURVE",
"30 701 LINE",
"24 792 LINE",
"69 798 OFFCURVE",
"105 801 OFFCURVE",
"132 801 CURVE SMOOTH"
);
}
);
width = 280;
}
);
rightKerningGroup = numbersign;
unicode = 00B3;
},
{
glyphname = acute;
layers = (
{
layerId = "E174F030-6324-451A-8951-EA6336064495";
name = Bold;
paths = (
{
closed = 1;
nodes = (
"5 651 LINE",
"257 753 LINE",
"297 638 LINE",
"35 564 LINE"
);
}
);
width = 268;
}
);
rightKerningGroup = numbersign;
unicode = 00B4;
},
{
glyphname = mu;
layers = (
{
layerId = "E174F030-6324-451A-8951-EA6336064495";
name = Bold;
paths = (
{
closed = 1;
nodes = (
"363 500 LINE",
"497 500 LINE",
"497 0 LINE",
"364 0 LINE",
"364 28 LINE",
"316 1 OFFCURVE",
"274 -12 OFFCURVE",
"239 -12 CURVE SMOOTH",
"224 -12 OFFCURVE",
"210 -11 OFFCURVE",
"197 -9 CURVE",
"197 -210 LINE",
"63 -210 LINE",
"63 500 LINE",
"197 500 LINE",
"197 211 LINE SMOOTH",
"198 134 OFFCURVE",
"210 108 OFFCURVE",
"267 108 CURVE SMOOTH",
"296 108 OFFCURVE",
"324 113 OFFCURVE",
"350 122 CURVE SMOOTH",
"363 126 LINE"
);
}
);
width = 560;
}
);
rightKerningGroup = numbersign;
unicode = 00B5;
},
{
glyphname = paragraph;
layers = (
{
layerId = "E174F030-6324-451A-8951-EA6336064495";
name = Bold;
paths = (
{
closed = 1;
nodes = (
"397 0 LINE",
"397 566 LINE",
"335 566 LINE",
"335 0 LINE",
"221 0 LINE",
"221 286 LINE",
"214 286 LINE SMOOTH",
"102 286 OFFCURVE",
"28 366 OFFCURVE",
"28 482 CURVE SMOOTH",
"28 598 OFFCURVE",
"104 680 OFFCURVE",
"216 680 CURVE SMOOTH",
"547 680 LINE",
"547 566 LINE",
"511 566 LINE",
"511 0 LINE"
);
}
);
width = 599;
}
);
rightKerningGroup = numbersign;
unicode = 00B6;
},
{
glyphname = periodcentered;
layers = (
{
layerId = "E174F030-6324-451A-8951-EA6336064495";
name = Bold;
paths = (
{
closed = 1;
nodes = (
"56 167 LINE",
"56 333 LINE",
"200 333 LINE",
"200 167 LINE"
);
}
);
width = 256;
}
);
rightKerningGroup = numbersign;
unicode = 00B7;
},
{
glyphname = cedilla;
layers = (
{
layerId = "E174F030-6324-451A-8951-EA6336064495";
name = Bold;
paths = (
{
closed = 1;
nodes = (
"111 -37 LINE",
"196 -38 OFFCURVE",
"234 -56 OFFCURVE",
"234 -129 CURVE SMOOTH",
"234 -202 OFFCURVE",
"194 -241 OFFCURVE",
"123 -241 CURVE SMOOTH",
"94 -241 OFFCURVE",
"67 -238 OFFCURVE",
"44 -233 CURVE SMOOTH",
"30 -230 LINE",
"34 -152 LINE",
"55 -153 OFFCURVE",
"71 -153 OFFCURVE",
"82 -153 CURVE SMOOTH",
"107 -153 OFFCURVE",
"120 -144 OFFCURVE",
"120 -127 CURVE SMOOTH",
"120 -112 OFFCURVE",
"107 -105 OFFCURVE",
"82 -105 CURVE SMOOTH",
"58 -105 LINE",
"58 1 LINE",
"111 1 LINE"
);
}
);
width = 264;
}
);
rightKerningGroup = numbersign;
unicode = 00B8;
},
{
glyphname = onesuperior;
layers = (
{
layerId = "E174F030-6324-451A-8951-EA6336064495";
name = Bold;
paths = (
{
closed = 1;
nodes = (
"212 790 LINE",
"212 478 LINE",
"106 478 LINE",
"106 673 LINE",
"59 641 LINE",
"10 715 LINE",
"116 790 LINE"
);
}
);
width = 280;
}
);
rightKerningGroup = numbersign;
unicode = 00B9;
},
{
glyphname = ordmasculine;
layers = (
{
layerId = "E174F030-6324-451A-8951-EA6336064495";
name = Bold;
paths = (
{
closed = 1;
nodes = (
"324 659 OFFCURVE",
"380 602 OFFCURVE",
"380 487 CURVE SMOOTH",
"380 372 OFFCURVE",
"324 314 OFFCURVE",
"211 314 CURVE SMOOTH",
"97 314 OFFCURVE",
"40 372 OFFCURVE",
"40 487 CURVE SMOOTH",
"40 602 OFFCURVE",
"97 659 OFFCURVE",
"211 659 CURVE SMOOTH"
);
},
{
closed = 1;
nodes = (
"178 425 OFFCURVE",
"192 419 OFFCURVE",
"211 419 CURVE SMOOTH",
"250 419 OFFCURVE",
"259 439 OFFCURVE",
"259 488 CURVE SMOOTH",
"259 537 OFFCURVE",
"250 555 OFFCURVE",
"211 555 CURVE SMOOTH",
"172 555 OFFCURVE",
"160 536 OFFCURVE",
"160 488 CURVE SMOOTH",
"160 464 OFFCURVE",
"164 447 OFFCURVE",
"171 436 CURVE SMOOTH"
);
}
);
width = 420;
}
);
rightKerningGroup = numbersign;
unicode = 00BA;
},
{
glyphname = guillemotright;
layers = (
{
layerId = "E174F030-6324-451A-8951-EA6336064495";
name = Bold;
paths = (
{
closed = 1;
nodes = (
"447 244 LINE",
"338 319 LINE",
"338 454 LINE",
"561 290 LINE",
"561 194 LINE",
"338 23 LINE",
"338 158 LINE"
);
},
{
closed = 1;
nodes = (
"164 244 LINE",
"55 319 LINE",
"55 454 LINE",
"278 290 LINE",
"278 194 LINE",
"55 23 LINE",
"55 158 LINE"
);
}
);
width = 603;
}
);
leftKerningGroup = guillemotright;
rightKerningGroup = guillemotright;
unicode = 00BB;
},
{
glyphname = onequarter;
layers = (
{
layerId = "E174F030-6324-451A-8951-EA6336064495";
name = Bold;
paths = (
{
closed = 1;
nodes = (
"220 790 LINE",
"220 478 LINE",
"114 478 LINE",
"114 673 LINE",
"67 641 LINE",
"18 715 LINE",
"124 790 LINE"
);
},
{
closed = 1;
nodes = (
"29 29 LINE",
"422 661 LINE",
"475 626 LINE",
"82 -7 LINE"
);
},
{
closed = 1;
nodes = (
"409 -100 LINE",
"409 -65 LINE",
"277 -65 LINE",
"277 23 LINE",
"316 212 LINE",
"434 212 LINE",
"382 30 LINE",
"409 30 LINE",
"423 120 LINE",
"514 120 LINE",
"514 30 LINE",
"525 30 LINE",
"525 -65 LINE",
"514 -65 LINE",
"514 -100 LINE"
);
}
);
width = 548;
}
);
rightKerningGroup = numbersign;
unicode = 00BC;
},
{
glyphname = onehalf;
layers = (
{
layerId = "E174F030-6324-451A-8951-EA6336064495";
name = Bold;
paths = (
{
closed = 1;
nodes = (
"220 790 LINE",
"220 478 LINE",
"114 478 LINE",
"114 673 LINE",
"67 641 LINE",
"18 715 LINE",
"124 790 LINE"
);
},
{
closed = 1;
nodes = (
"29 29 LINE",
"422 661 LINE",
"475 626 LINE",
"82 -7 LINE"
);
},
{
closed = 1;
nodes = (
"512 -100 LINE",
"281 -100 LINE",
"281 -10 LINE",
"354 49 LINE SMOOTH",
"385 74 OFFCURVE",
"400 93 OFFCURVE",
"400 106 CURVE SMOOTH",
"400 116 OFFCURVE",
"388 121 OFFCURVE",
"363 121 CURVE",
"287 115 LINE",
"283 214 LINE",
"332 220 OFFCURVE",
"374 223 OFFCURVE",
"409 223 CURVE SMOOTH",
"480 223 OFFCURVE",
"512 192 OFFCURVE",
"512 134 CURVE SMOOTH",
"512 76 OFFCURVE",
"496 52 OFFCURVE",
"456 23 CURVE SMOOTH",
"418 -5 LINE",
"512 -5 LINE"
);
}
);
width = 542;
}
);
rightKerningGroup = numbersign;
unicode = 00BD;
},
{
glyphname = threequarters;
layers = (
{
layerId = "E174F030-6324-451A-8951-EA6336064495";
name = Bold;
paths = (
{
closed = 1;
nodes = (
"229 801 OFFCURVE",
"269 771 OFFCURVE",
"269 712 CURVE SMOOTH",
"269 677 OFFCURVE",
"259 653 OFFCURVE",
"240 642 CURVE",
"263 632 OFFCURVE",
"275 609 OFFCURVE",
"275 572 CURVE SMOOTH",
"275 502 OFFCURVE",
"236 467 OFFCURVE",
"157 467 CURVE",
"36 475 LINE",
"42 568 LINE",
"83 564 OFFCURVE",
"113 562 OFFCURVE",
"134 562 CURVE SMOOTH",
"155 562 OFFCURVE",
"165 567 OFFCURVE",
"165 578 CURVE SMOOTH",
"165 587 OFFCURVE",
"156 592 OFFCURVE",
"139 592 CURVE SMOOTH",
"73 592 LINE",
"73 677 LINE",
"137 677 LINE SMOOTH",
"150 677 OFFCURVE",
"157 682 OFFCURVE",
"157 692 CURVE SMOOTH",
"157 701 OFFCURVE",
"148 706 OFFCURVE",
"130 706 CURVE",
"46 701 LINE",
"40 792 LINE",
"85 798 OFFCURVE",
"121 801 OFFCURVE",
"148 801 CURVE SMOOTH"
);
},
{
closed = 1;
nodes = (
"43 29 LINE",
"436 661 LINE",
"489 626 LINE",
"96 -7 LINE"
);
},
{
closed = 1;
nodes = (
"423 -100 LINE",
"423 -65 LINE",
"291 -65 LINE",
"291 23 LINE",
"330 212 LINE",
"448 212 LINE",
"396 30 LINE",
"423 30 LINE",
"437 120 LINE",
"528 120 LINE",
"528 30 LINE",
"539 30 LINE",
"539 -65 LINE",
"528 -65 LINE",
"528 -100 LINE"
);
}
);
width = 561;
}
);
rightKerningGroup = numbersign;
unicode = 00BE;
},
{
glyphname = questiondown;
layers = (
{
layerId = "E174F030-6324-451A-8951-EA6336064495";
name = Bold;
paths = (
{
closed = 1;
nodes = (
"94 -192 OFFCURVE",
"29 -140 OFFCURVE",
"29 -36 CURVE SMOOTH",
"29 68 OFFCURVE",
"43 101 OFFCURVE",
"110 151 CURVE SMOOTH",
"143 176 OFFCURVE",
"164 195 OFFCURVE",
"173 208 CURVE SMOOTH",
"182 221 OFFCURVE",
"186 236 OFFCURVE",
"186 252 CURVE SMOOTH",
"186 283 LINE",
"293 283 LINE",
"314 260 OFFCURVE",
"324 230 OFFCURVE",
"324 192 CURVE SMOOTH",
"324 168 OFFCURVE",
"303 139 OFFCURVE",
"261 105 CURVE SMOOTH",
"218 71 OFFCURVE",
"192 48 OFFCURVE",
"183 35 CURVE",
"173 22 OFFCURVE",
"168 6 OFFCURVE",
"168 -13 CURVE SMOOTH",
"168 -52 OFFCURVE",
"196 -72 OFFCURVE",
"253 -72 CURVE SMOOTH",
"293 -72 OFFCURVE",
"334 -68 OFFCURVE",
"376 -60 CURVE SMOOTH",
"397 -56 LINE",
"404 -157 LINE",
"347 -180 OFFCURVE",
"286 -192 OFFCURVE",
"222 -192 CURVE SMOOTH"
);
},
{
closed = 1;
nodes = (
"315 500 LINE",
"315 339 LINE",
"171 339 LINE",
"171 500 LINE"
);
}
);
width = 433;
}
);
rightKerningGroup = numbersign;
unicode = 00BF;
},
{
glyphname = Agrave;
layers = (
{
layerId = "E174F030-6324-451A-8951-EA6336064495";
name = Bold;
paths = (
{
closed = 1;
nodes = (
"17 0 LINE",
"170 680 LINE",
"432 680 LINE",
"585 0 LINE",
"447 0 LINE",
"420 123 LINE",
"182 123 LINE",
"155 0 LINE"
);
},
{
closed = 1;
nodes = (
"277 566 LINE",
"208 243 LINE",
"394 243 LINE",
"325 566 LINE"
);
},
{
closed = 1;
nodes = (
"183 945 LINE",
"435 839 LINE",
"402 746 LINE",
"142 825 LINE"
);
}
);
width = 602;
}
);
leftKerningGroup = A;
rightKerningGroup = numbersign;
unicode = 00C0;
},
{
glyphname = Aacute;
layers = (
{
layerId = "E174F030-6324-451A-8951-EA6336064495";
name = Bold;
paths = (
{
closed = 1;
nodes = (
"17 0 LINE",
"170 680 LINE",
"432 680 LINE",
"585 0 LINE",
"447 0 LINE",
"420 123 LINE",
"182 123 LINE",
"155 0 LINE"
);
},
{
closed = 1;
nodes = (
"277 566 LINE",
"208 243 LINE",
"394 243 LINE",
"325 566 LINE"
);
},
{
closed = 1;
nodes = (
"162 839 LINE",
"414 945 LINE",
"455 825 LINE",
"195 746 LINE"
);
}
);
width = 602;
}
);
leftKerningGroup = A;
rightKerningGroup = numbersign;
unicode = 00C1;
},
{
glyphname = Acircumflex;
layers = (
{
layerId = "E174F030-6324-451A-8951-EA6336064495";
name = Bold;
paths = (
{
closed = 1;
nodes = (
"17 0 LINE",
"170 680 LINE",
"432 680 LINE",
"585 0 LINE",
"447 0 LINE",
"420 123 LINE",
"182 123 LINE",
"155 0 LINE"
);
},
{
closed = 1;
nodes = (
"277 566 LINE",
"208 243 LINE",
"394 243 LINE",
"325 566 LINE"
);
},
{
closed = 1;
nodes = (
"107 765 LINE",
"241 914 LINE",
"358 914 LINE",
"492 765 LINE",
"350 765 LINE",
"301 821 LINE",
"249 765 LINE"
);
}
);
width = 602;
}
);
leftKerningGroup = A;
rightKerningGroup = numbersign;
unicode = 00C2;
},
{
glyphname = Atilde;
layers = (
{
layerId = "E174F030-6324-451A-8951-EA6336064495";
name = Bold;
paths = (
{
closed = 1;
nodes = (
"17 0 LINE",
"170 680 LINE",
"432 680 LINE",
"585 0 LINE",
"447 0 LINE",
"420 123 LINE",
"182 123 LINE",
"155 0 LINE"
);
},
{
closed = 1;
nodes = (
"277 566 LINE",
"208 243 LINE",
"394 243 LINE",
"325 566 LINE"
);
},
{
closed = 1;
nodes = (
"413 765 OFFCURVE",
"394 758 OFFCURVE",
"377 758 CURVE SMOOTH",
"360 758 OFFCURVE",
"330 766 OFFCURVE",
"288 781 CURVE SMOOTH",
"245 796 OFFCURVE",
"220 804 OFFCURVE",
"211 804 CURVE SMOOTH",
"194 804 OFFCURVE",
"172 793 OFFCURVE",
"144 772 CURVE SMOOTH",
"130 762 LINE",
"101 858 LINE",
"128 890 OFFCURVE",
"174 922 OFFCURVE",
"214 922 CURVE SMOOTH",
"233 922 OFFCURVE",
"263 914 OFFCURVE",
"304 899 CURVE SMOOTH",
"345 884 OFFCURVE",
"369 876 OFFCURVE",
"376 876 CURVE SMOOTH",
"391 876 OFFCURVE",
"413 887 OFFCURVE",
"442 908 CURVE",
"457 918 LINE",
"486 821 LINE",
"472 805 OFFCURVE",
"455 791 OFFCURVE",
"434 778 CURVE SMOOTH"
);
}
);
width = 602;
}
);
leftKerningGroup = A;
rightKerningGroup = numbersign;
unicode = 00C3;
},
{
glyphname = Adieresis;
layers = (
{
layerId = "E174F030-6324-451A-8951-EA6336064495";
name = Bold;
paths = (
{
closed = 1;
nodes = (
"17 0 LINE",
"170 680 LINE",
"432 680 LINE",
"585 0 LINE",
"447 0 LINE",
"420 123 LINE",
"182 123 LINE",
"155 0 LINE"
);
},
{
closed = 1;
nodes = (
"277 566 LINE",
"208 243 LINE",
"394 243 LINE",
"325 566 LINE"
);
},
{
closed = 1;
nodes = (
"129 764 LINE",
"129 896 LINE",
"257 896 LINE",
"257 764 LINE"
);
},
{
closed = 1;
nodes = (
"343 764 LINE",
"343 896 LINE",
"471 896 LINE",
"471 764 LINE"
);
}
);
width = 602;
}
);
leftKerningGroup = A;
rightKerningGroup = numbersign;
unicode = 00C4;
},
{
glyphname = Aring;
layers = (
{
layerId = "E174F030-6324-451A-8951-EA6336064495";
name = Bold;
paths = (
{
closed = 1;
nodes = (
"451 700 OFFCURVE",
"446 681 OFFCURVE",
"436 662 CURVE",
"585 0 LINE",
"447 0 LINE",
"420 123 LINE",
"182 123 LINE",
"155 0 LINE",
"17 0 LINE",
"166 662 LINE",
"156 679 OFFCURVE",
"151 699 OFFCURVE",
"151 721 CURVE SMOOTH",
"151 800 OFFCURVE",
"216 847 OFFCURVE",
"301 847 CURVE SMOOTH",
"386 847 OFFCURVE",
"451 800 OFFCURVE",
"451 721 CURVE SMOOTH"
);
},
{
closed = 1;
nodes = (
"277 566 LINE",
"208 243 LINE",
"394 243 LINE",
"325 566 LINE"
);
},
{
closed = 1;
nodes = (
"265 762 OFFCURVE",
"242 746 OFFCURVE",
"242 722 CURVE SMOOTH",
"242 697 OFFCURVE",
"262 681 OFFCURVE",
"295 680 CURVE SMOOTH",
"301 680 LINE SMOOTH",
"337 680 OFFCURVE",
"360 696 OFFCURVE",
"360 721 CURVE SMOOTH",
"360 746 OFFCURVE",
"337 762 OFFCURVE",
"301 762 CURVE SMOOTH"
);
}
);
width = 602;
}
);
leftKerningGroup = A;
rightKerningGroup = numbersign;
unicode = 00C5;
},
{
glyphname = AE;
layers = (
{
layerId = "E174F030-6324-451A-8951-EA6336064495";
name = Bold;
paths = (
{
closed = 1;
nodes = (
"392 0 LINE",
"392 116 LINE",
"179 116 LINE",
"150 0 LINE",
"12 0 LINE",
"196 690 LINE",
"830 690 LINE",
"830 558 LINE",
"528 558 LINE",
"528 415 LINE",
"770 415 LINE",
"770 284 LINE",
"528 284 LINE",
"528 132 LINE",
"830 132 LINE",
"830 0 LINE"
);
},
{
closed = 1;
nodes = (
"293 558 LINE",
"213 249 LINE",
"392 249 LINE",
"393 558 LINE"
);
}
);
width = 871;
}
);
rightKerningGroup = E;
unicode = 00C6;
},
{
glyphname = Ccedilla;
layers = (
{
layerId = "E174F030-6324-451A-8951-EA6336064495";
name = Bold;
paths = (
{
closed = 1;
nodes = (
"315 -37 LINE",
"400 -38 OFFCURVE",
"438 -56 OFFCURVE",
"438 -129 CURVE SMOOTH",
"438 -202 OFFCURVE",
"398 -241 OFFCURVE",
"327 -241 CURVE SMOOTH",
"298 -241 OFFCURVE",
"272 -238 OFFCURVE",
"248 -233 CURVE SMOOTH",
"234 -230 LINE",
"238 -152 LINE",
"259 -153 OFFCURVE",
"275 -153 OFFCURVE",
"286 -153 CURVE SMOOTH",
"311 -153 OFFCURVE",
"324 -144 OFFCURVE",
"324 -127 CURVE SMOOTH",
"324 -112 OFFCURVE",
"311 -105 OFFCURVE",
"286 -105 CURVE SMOOTH",
"262 -105 LINE",
"262 -10 LINE",
"97 6 OFFCURVE",
"47 104 OFFCURVE",
"47 352 CURVE SMOOTH",
"47 599 OFFCURVE",
"108 692 OFFCURVE",
"307 692 CURVE SMOOTH",
"364 692 OFFCURVE",
"431 683 OFFCURVE",
"506 665 CURVE",
"502 555 LINE",
"436 565 OFFCURVE",
"381 570 OFFCURVE",
"338 570 CURVE SMOOTH",
"250 570 OFFCURVE",
"221 551 OFFCURVE",
"203 486 CURVE SMOOTH",
"194 453 OFFCURVE",
"189 398 OFFCURVE",
"189 319 CURVE SMOOTH",
"189 162 OFFCURVE",
"217 110 OFFCURVE",
"327 110 CURVE SMOOTH",
"382 110 OFFCURVE",
"440 115 OFFCURVE",
"502 124 CURVE",
"505 11 LINE",
"442 -3 OFFCURVE",
"379 -11 OFFCURVE",
"315 -12 CURVE"
);
}
);
width = 543;
}
);
leftKerningGroup = C;
rightKerningGroup = C;
unicode = 00C7;
},
{
glyphname = Egrave;
layers = (
{
layerId = "E174F030-6324-451A-8951-EA6336064495";
name = Bold;
paths = (
{
closed = 1;
nodes = (
"74 0 LINE",
"74 680 LINE",
"514 680 LINE",
"514 560 LINE",
"212 560 LINE",
"212 401 LINE",
"454 401 LINE",
"454 283 LINE",
"212 283 LINE",
"212 120 LINE",
"514 120 LINE",
"514 0 LINE"
);
},
{
closed = 1;
nodes = (
"180 945 LINE",
"432 839 LINE",
"399 746 LINE",
"139 825 LINE"
);
}
);
width = 554;
}
);
leftKerningGroup = B;
rightKerningGroup = E;
unicode = 00C8;
},
{
glyphname = Eacute;
layers = (
{
layerId = "E174F030-6324-451A-8951-EA6336064495";
name = Bold;
paths = (
{
closed = 1;
nodes = (
"74 0 LINE",
"74 680 LINE",
"514 680 LINE",
"514 560 LINE",
"212 560 LINE",
"212 401 LINE",
"454 401 LINE",
"454 283 LINE",
"212 283 LINE",
"212 120 LINE",
"514 120 LINE",
"514 0 LINE"
);
},
{
closed = 1;
nodes = (
"154 839 LINE",
"406 945 LINE",
"447 825 LINE",
"187 746 LINE"
);
}
);
width = 554;
}
);
leftKerningGroup = B;
rightKerningGroup = E;
unicode = 00C9;
},
{
glyphname = Ecircumflex;
layers = (
{
layerId = "E174F030-6324-451A-8951-EA6336064495";
name = Bold;
paths = (
{
closed = 1;
nodes = (
"74 0 LINE",
"74 680 LINE",
"514 680 LINE",
"514 560 LINE",
"212 560 LINE",
"212 401 LINE",
"454 401 LINE",
"454 283 LINE",
"212 283 LINE",
"212 120 LINE",
"514 120 LINE",
"514 0 LINE"
);
},
{
closed = 1;
nodes = (
"105 765 LINE",
"239 914 LINE",
"356 914 LINE",
"490 765 LINE",
"348 765 LINE",
"299 821 LINE",
"247 765 LINE"
);
}
);
width = 554;
}
);
leftKerningGroup = B;
rightKerningGroup = E;
unicode = 00CA;
},
{
glyphname = Edieresis;
layers = (
{
layerId = "E174F030-6324-451A-8951-EA6336064495";
name = Bold;
paths = (
{
closed = 1;
nodes = (
"74 0 LINE",
"74 680 LINE",
"514 680 LINE",
"514 560 LINE",
"212 560 LINE",
"212 401 LINE",
"454 401 LINE",
"454 283 LINE",
"212 283 LINE",
"212 120 LINE",
"514 120 LINE",
"514 0 LINE"
);
},
{
closed = 1;
nodes = (
"123 764 LINE",
"123 896 LINE",
"251 896 LINE",
"251 764 LINE"
);
},
{
closed = 1;
nodes = (
"337 764 LINE",
"337 896 LINE",
"465 896 LINE",
"465 764 LINE"
);
}
);
width = 554;
}
);
leftKerningGroup = B;
rightKerningGroup = E;
unicode = 00CB;
},
{
glyphname = Igrave;
layers = (
{
layerId = "E174F030-6324-451A-8951-EA6336064495";
name = Bold;
paths = (
{
closed = 1;
nodes = (
"74 0 LINE",
"74 680 LINE",
"212 680 LINE",
"212 0 LINE"
);
},
{
closed = 1;
nodes = (
"17 945 LINE",
"269 839 LINE",
"236 746 LINE",
"-24 825 LINE"
);
}
);
width = 286;
}
);
leftKerningGroup = B;
rightKerningGroup = H;
unicode = 00CC;
},
{
glyphname = Iacute;
layers = (
{
layerId = "E174F030-6324-451A-8951-EA6336064495";
name = Bold;
paths = (
{
closed = 1;
nodes = (
"74 0 LINE",
"74 680 LINE",
"212 680 LINE",
"212 0 LINE"
);
},
{
closed = 1;
nodes = (
"7 839 LINE",
"259 945 LINE",
"300 825 LINE",
"40 746 LINE"
);
}
);
width = 286;
}
);
leftKerningGroup = B;
rightKerningGroup = H;
unicode = 00CD;
},
{
glyphname = Icircumflex;
layers = (
{
layerId = "E174F030-6324-451A-8951-EA6336064495";
name = Bold;
paths = (
{
closed = 1;
nodes = (
"74 0 LINE",
"74 680 LINE",
"212 680 LINE",
"212 0 LINE"
);
},
{
closed = 1;
nodes = (
"-50 765 LINE",
"84 914 LINE",
"201 914 LINE",
"335 765 LINE",
"193 765 LINE",
"144 821 LINE",
"92 765 LINE"
);
}
);
width = 286;
}
);
leftKerningGroup = B;
rightKerningGroup = H;
unicode = 00CE;
},
{
glyphname = Idieresis;
layers = (
{
layerId = "E174F030-6324-451A-8951-EA6336064495";
name = Bold;
paths = (
{
closed = 1;
nodes = (
"74 0 LINE",
"74 680 LINE",
"212 680 LINE",
"212 0 LINE"
);
},
{
closed = 1;
nodes = (
"-28 764 LINE",
"-28 896 LINE",
"100 896 LINE",
"100 764 LINE"
);
},
{
closed = 1;
nodes = (
"186 764 LINE",
"186 896 LINE",
"314 896 LINE",
"314 764 LINE"
);
}
);
width = 286;
}
);
leftKerningGroup = B;
rightKerningGroup = H;
unicode = 00CF;
},
{
glyphname = Eth;
layers = (
{
layerId = "E174F030-6324-451A-8951-EA6336064495";
name = Bold;
paths = (
{
closed = 1;
nodes = (
"25 277 LINE",
"25 409 LINE",
"79 409 LINE",
"79 690 LINE",
"306 690 LINE SMOOTH",
"423 690 OFFCURVE",
"498 667 OFFCURVE",
"540 609 CURVE SMOOTH",
"582 551 OFFCURVE",
"595 479 OFFCURVE",
"595 356 CURVE SMOOTH",
"595 232 OFFCURVE",
"583 157 OFFCURVE",
"543 93 CURVE SMOOTH",
"502 28 OFFCURVE",
"426 0 OFFCURVE",
"306 0 CURVE SMOOTH",
"79 0 LINE",
"79 277 LINE"
);
},
{
closed = 1;
nodes = (
"453 411 OFFCURVE",
"452 439 OFFCURVE",
"445 472 CURVE SMOOTH",
"438 505 OFFCURVE",
"425 522 OFFCURVE",
"404 538 CURVE",
"383 552 OFFCURVE",
"351 559 OFFCURVE",
"306 559 CURVE SMOOTH",
"215 559 LINE",
"215 409 LINE",
"345 409 LINE",
"345 277 LINE",
"215 277 LINE",
"215 131 LINE",
"306 131 LINE SMOOTH",
"406 131 OFFCURVE",
"453 162 OFFCURVE",
"453 354 CURVE SMOOTH"
);
}
);
width = 642;
}
);
leftKerningGroup = B;
rightKerningGroup = D;
unicode = 00D0;
},
{
glyphname = Ntilde;
layers = (
{
layerId = "E174F030-6324-451A-8951-EA6336064495";
name = Bold;
paths = (
{
closed = 1;
nodes = (
"74 0 LINE",
"74 680 LINE",
"307 680 LINE",
"471 120 LINE",
"481 120 LINE",
"481 680 LINE",
"619 680 LINE",
"619 0 LINE",
"392 0 LINE",
"222 560 LINE",
"212 560 LINE",
"212 0 LINE"
);
},
{
closed = 1;
nodes = (
"461 765 OFFCURVE",
"442 758 OFFCURVE",
"425 758 CURVE SMOOTH",
"408 758 OFFCURVE",
"378 766 OFFCURVE",
"336 781 CURVE SMOOTH",
"293 796 OFFCURVE",
"268 804 OFFCURVE",
"259 804 CURVE SMOOTH",
"242 804 OFFCURVE",
"220 793 OFFCURVE",
"192 772 CURVE SMOOTH",
"178 762 LINE",
"149 858 LINE",
"176 890 OFFCURVE",
"222 922 OFFCURVE",
"262 922 CURVE SMOOTH",
"281 922 OFFCURVE",
"311 914 OFFCURVE",
"352 899 CURVE SMOOTH",
"393 884 OFFCURVE",
"417 876 OFFCURVE",
"424 876 CURVE SMOOTH",
"439 876 OFFCURVE",
"461 887 OFFCURVE",
"490 908 CURVE",
"505 918 LINE",
"534 821 LINE",
"520 805 OFFCURVE",
"503 791 OFFCURVE",
"482 778 CURVE SMOOTH"
);
}
);
width = 693;
}
);
leftKerningGroup = B;
rightKerningGroup = H;
unicode = 00D1;
},
{
glyphname = Ograve;
layers = (
{
layerId = "E174F030-6324-451A-8951-EA6336064495";
name = Bold;
paths = (
{
closed = 1;
nodes = (
"235 126 OFFCURVE",
"272 108 OFFCURVE",
"326 108 CURVE SMOOTH",
"434 108 OFFCURVE",
"466 172 OFFCURVE",
"466 337 CURVE SMOOTH",
"466 501 OFFCURVE",
"433 572 OFFCURVE",
"326 572 CURVE SMOOTH",
"219 572 OFFCURVE",
"186 501 OFFCURVE",
"186 337 CURVE SMOOTH",
"186 254 OFFCURVE",
"196 196 OFFCURVE",
"216 161 CURVE SMOOTH"
);
},
{
closed = 1;
nodes = (
"502 16 OFFCURVE",
"429 -12 OFFCURVE",
"326 -12 CURVE SMOOTH",
"119 -12 OFFCURVE",
"44 97 OFFCURVE",
"44 337 CURVE SMOOTH",
"44 577 OFFCURVE",
"119 692 OFFCURVE",
"326 692 CURVE SMOOTH",
"533 692 OFFCURVE",
"608 577 OFFCURVE",
"608 337 CURVE SMOOTH",
"608 217 OFFCURVE",
"587 129 OFFCURVE",
"545 73 CURVE SMOOTH"
);
},
{
closed = 1;
nodes = (
"204 945 LINE",
"456 839 LINE",
"423 746 LINE",
"163 825 LINE"
);
}
);
width = 652;
}
);
leftKerningGroup = G;
rightKerningGroup = O;
unicode = 00D2;
},
{
glyphname = Oacute;
layers = (
{
layerId = "E174F030-6324-451A-8951-EA6336064495";
name = Bold;
paths = (
{
closed = 1;
nodes = (
"235 126 OFFCURVE",
"272 108 OFFCURVE",
"326 108 CURVE SMOOTH",
"434 108 OFFCURVE",
"466 172 OFFCURVE",
"466 337 CURVE SMOOTH",
"466 501 OFFCURVE",
"433 572 OFFCURVE",
"326 572 CURVE SMOOTH",
"219 572 OFFCURVE",
"186 501 OFFCURVE",
"186 337 CURVE SMOOTH",
"186 254 OFFCURVE",
"196 196 OFFCURVE",
"216 161 CURVE SMOOTH"
);
},
{
closed = 1;
nodes = (
"502 16 OFFCURVE",
"429 -12 OFFCURVE",
"326 -12 CURVE SMOOTH",
"119 -12 OFFCURVE",
"44 97 OFFCURVE",
"44 337 CURVE SMOOTH",
"44 577 OFFCURVE",
"119 692 OFFCURVE",
"326 692 CURVE SMOOTH",
"533 692 OFFCURVE",
"608 577 OFFCURVE",
"608 337 CURVE SMOOTH",
"608 217 OFFCURVE",
"587 129 OFFCURVE",
"545 73 CURVE SMOOTH"
);
},
{
closed = 1;
nodes = (
"167 839 LINE",
"419 945 LINE",
"460 825 LINE",
"200 746 LINE"
);
}
);
width = 652;
}
);
leftKerningGroup = G;
rightKerningGroup = O;
unicode = 00D3;
},
{
glyphname = Ocircumflex;
layers = (
{
layerId = "E174F030-6324-451A-8951-EA6336064495";
name = Bold;
paths = (
{
closed = 1;
nodes = (
"235 126 OFFCURVE",
"272 108 OFFCURVE",
"326 108 CURVE SMOOTH",
"434 108 OFFCURVE",
"466 172 OFFCURVE",
"466 337 CURVE SMOOTH",
"466 501 OFFCURVE",
"433 572 OFFCURVE",
"326 572 CURVE SMOOTH",
"219 572 OFFCURVE",
"186 501 OFFCURVE",
"186 337 CURVE SMOOTH",
"186 254 OFFCURVE",
"196 196 OFFCURVE",
"216 161 CURVE SMOOTH"
);
},
{
closed = 1;
nodes = (
"502 16 OFFCURVE",
"429 -12 OFFCURVE",
"326 -12 CURVE SMOOTH",
"119 -12 OFFCURVE",
"44 97 OFFCURVE",
"44 337 CURVE SMOOTH",
"44 577 OFFCURVE",
"119 692 OFFCURVE",
"326 692 CURVE SMOOTH",
"533 692 OFFCURVE",
"608 577 OFFCURVE",
"608 337 CURVE SMOOTH",
"608 217 OFFCURVE",
"587 129 OFFCURVE",
"545 73 CURVE SMOOTH"
);
},
{
closed = 1;
nodes = (
"135 765 LINE",
"269 914 LINE",
"386 914 LINE",
"520 765 LINE",
"378 765 LINE",
"329 821 LINE",
"277 765 LINE"
);
}
);
width = 652;
}
);
leftKerningGroup = G;
rightKerningGroup = O;
unicode = 00D4;
},
{
glyphname = Otilde;
layers = (
{
layerId = "E174F030-6324-451A-8951-EA6336064495";
name = Bold;
paths = (
{
closed = 1;
nodes = (
"235 126 OFFCURVE",
"272 108 OFFCURVE",
"326 108 CURVE SMOOTH",
"434 108 OFFCURVE",
"466 172 OFFCURVE",
"466 337 CURVE SMOOTH",
"466 501 OFFCURVE",
"433 572 OFFCURVE",
"326 572 CURVE SMOOTH",
"219 572 OFFCURVE",
"186 501 OFFCURVE",
"186 337 CURVE SMOOTH",
"186 254 OFFCURVE",
"196 196 OFFCURVE",
"216 161 CURVE SMOOTH"
);
},
{
closed = 1;
nodes = (
"502 16 OFFCURVE",
"429 -12 OFFCURVE",
"326 -12 CURVE SMOOTH",
"119 -12 OFFCURVE",
"44 97 OFFCURVE",
"44 337 CURVE SMOOTH",
"44 577 OFFCURVE",
"119 692 OFFCURVE",
"326 692 CURVE SMOOTH",
"533 692 OFFCURVE",
"608 577 OFFCURVE",
"608 337 CURVE SMOOTH",
"608 217 OFFCURVE",
"587 129 OFFCURVE",
"545 73 CURVE SMOOTH"
);
},
{
closed = 1;
nodes = (
"445 765 OFFCURVE",
"426 758 OFFCURVE",
"409 758 CURVE SMOOTH",
"392 758 OFFCURVE",
"362 766 OFFCURVE",
"320 781 CURVE SMOOTH",
"277 796 OFFCURVE",
"252 804 OFFCURVE",
"243 804 CURVE SMOOTH",
"226 804 OFFCURVE",
"204 793 OFFCURVE",
"176 772 CURVE SMOOTH",
"162 762 LINE",
"133 858 LINE",
"160 890 OFFCURVE",
"206 922 OFFCURVE",
"246 922 CURVE SMOOTH",
"265 922 OFFCURVE",
"295 914 OFFCURVE",
"336 899 CURVE SMOOTH",
"377 884 OFFCURVE",
"401 876 OFFCURVE",
"408 876 CURVE SMOOTH",
"423 876 OFFCURVE",
"445 887 OFFCURVE",
"474 908 CURVE",
"489 918 LINE",
"518 821 LINE",
"504 805 OFFCURVE",
"487 791 OFFCURVE",
"466 778 CURVE SMOOTH"
);
}
);
width = 652;
}
);
leftKerningGroup = G;
rightKerningGroup = O;
unicode = 00D5;
},
{
glyphname = Odieresis;
layers = (
{
layerId = "E174F030-6324-451A-8951-EA6336064495";
name = Bold;
paths = (
{
closed = 1;
nodes = (
"235 126 OFFCURVE",
"272 108 OFFCURVE",
"326 108 CURVE SMOOTH",
"434 108 OFFCURVE",
"466 172 OFFCURVE",
"466 337 CURVE SMOOTH",
"466 501 OFFCURVE",
"433 572 OFFCURVE",
"326 572 CURVE SMOOTH",
"219 572 OFFCURVE",
"186 501 OFFCURVE",
"186 337 CURVE SMOOTH",
"186 254 OFFCURVE",
"196 196 OFFCURVE",
"216 161 CURVE SMOOTH"
);
},
{
closed = 1;
nodes = (
"502 16 OFFCURVE",
"429 -12 OFFCURVE",
"326 -12 CURVE SMOOTH",
"119 -12 OFFCURVE",
"44 97 OFFCURVE",
"44 337 CURVE SMOOTH",
"44 577 OFFCURVE",
"119 692 OFFCURVE",
"326 692 CURVE SMOOTH",
"533 692 OFFCURVE",
"608 577 OFFCURVE",
"608 337 CURVE SMOOTH",
"608 217 OFFCURVE",
"587 129 OFFCURVE",
"545 73 CURVE SMOOTH"
);
},
{
closed = 1;
nodes = (
"155 764 LINE",
"155 896 LINE",
"283 896 LINE",
"283 764 LINE"
);
},
{
closed = 1;
nodes = (
"369 764 LINE",
"369 896 LINE",
"497 896 LINE",
"497 764 LINE"
);
}
);
width = 652;
}
);
leftKerningGroup = G;
rightKerningGroup = O;
unicode = 00D6;
},
{
glyphname = multiply;
layers = (
{
layerId = "E174F030-6324-451A-8951-EA6336064495";
name = Bold;
paths = (
{
closed = 1;
nodes = (
"142 473 LINE",
"280 332 LINE",
"420 475 LINE",
"504 390 LINE",
"361 250 LINE",
"504 111 LINE",
"419 26 LINE",
"280 168 LINE",
"141 27 LINE",
"56 111 LINE",
"198 250 LINE",
"57 388 LINE"
);
}
);
width = 560;
}
);
rightKerningGroup = numbersign;
unicode = 00D7;
},
{
glyphname = Oslash;
layers = (
{
layerId = "E174F030-6324-451A-8951-EA6336064495";
name = Bold;
paths = (
{
closed = 1;
nodes = (
"293 -12 OFFCURVE",
"261 -9 OFFCURVE",
"230 -2 CURVE",
"172 -127 LINE",
"74 -78 LINE",
"132 46 LINE",
"73 98 OFFCURVE",
"44 195 OFFCURVE",
"44 336 CURVE SMOOTH",
"44 577 OFFCURVE",
"119 692 OFFCURVE",
"326 692 CURVE SMOOTH",
"365 692 OFFCURVE",
"398 688 OFFCURVE",
"427 680 CURVE",
"488 810 LINE",
"588 767 LINE",
"523 627 LINE",
"580 572 OFFCURVE",
"608 475 OFFCURVE",
"608 336 CURVE SMOOTH",
"608 97 OFFCURVE",
"533 -12 OFFCURVE",
"326 -12 CURVE SMOOTH"
);
},
{
closed = 1;
nodes = (
"219 572 OFFCURVE",
"186 496 OFFCURVE",
"186 352 CURVE SMOOTH",
"186 279 OFFCURVE",
"191 227 OFFCURVE",
"201 194 CURVE",
"374 565 LINE",
"358 570 OFFCURVE",
"342 572 OFFCURVE",
"326 572 CURVE SMOOTH"
);
},
{
closed = 1;
nodes = (
"434 108 OFFCURVE",
"466 178 OFFCURVE",
"466 319 CURVE SMOOTH",
"466 390 OFFCURVE",
"461 442 OFFCURVE",
"452 475 CURVE",
"283 112 LINE",
"294 109 OFFCURVE",
"309 108 OFFCURVE",
"326 108 CURVE SMOOTH"
);
}
);
width = 652;
}
);
leftKerningGroup = G;
rightKerningGroup = O;
unicode = 00D8;
},
{
glyphname = Ugrave;
layers = (
{
layerId = "E174F030-6324-451A-8951-EA6336064495";
name = Bold;
paths = (
{
closed = 1;
nodes = (
"206 227 LINE SMOOTH",
"206 148 OFFCURVE",
"246 108 OFFCURVE",
"327 108 CURVE SMOOTH",
"408 108 OFFCURVE",
"448 148 OFFCURVE",
"448 227 CURVE SMOOTH",
"448 680 LINE",
"586 680 LINE",
"586 230 LINE SMOOTH",
"586 63 OFFCURVE",
"500 -12 OFFCURVE",
"327 -12 CURVE SMOOTH",
"154 -12 OFFCURVE",
"68 63 OFFCURVE",
"68 230 CURVE SMOOTH",
"68 680 LINE",
"206 680 LINE"
);
},
{
closed = 1;
nodes = (
"216 945 LINE",
"468 839 LINE",
"435 746 LINE",
"175 825 LINE"
);
}
);
width = 654;
}
);
leftKerningGroup = U;
rightKerningGroup = U;
unicode = 00D9;
},
{
glyphname = Uacute;
layers = (
{
layerId = "E174F030-6324-451A-8951-EA6336064495";
name = Bold;
paths = (
{
closed = 1;
nodes = (
"206 227 LINE SMOOTH",
"206 148 OFFCURVE",
"246 108 OFFCURVE",
"327 108 CURVE SMOOTH",
"408 108 OFFCURVE",
"448 148 OFFCURVE",
"448 227 CURVE SMOOTH",
"448 680 LINE",
"586 680 LINE",
"586 230 LINE SMOOTH",
"586 63 OFFCURVE",
"500 -12 OFFCURVE",
"327 -12 CURVE SMOOTH",
"154 -12 OFFCURVE",
"68 63 OFFCURVE",
"68 230 CURVE SMOOTH",
"68 680 LINE",
"206 680 LINE"
);
},
{
closed = 1;
nodes = (
"175 839 LINE",
"427 945 LINE",
"468 825 LINE",
"208 746 LINE"
);
}
);
width = 654;
}
);
leftKerningGroup = U;
rightKerningGroup = U;
unicode = 00DA;
},
{
glyphname = Ucircumflex;
layers = (
{
layerId = "E174F030-6324-451A-8951-EA6336064495";
name = Bold;
paths = (
{
closed = 1;
nodes = (
"206 227 LINE SMOOTH",
"206 148 OFFCURVE",
"246 108 OFFCURVE",
"327 108 CURVE SMOOTH",
"408 108 OFFCURVE",
"448 148 OFFCURVE",
"448 227 CURVE SMOOTH",
"448 680 LINE",
"586 680 LINE",
"586 230 LINE SMOOTH",
"586 63 OFFCURVE",
"500 -12 OFFCURVE",
"327 -12 CURVE SMOOTH",
"154 -12 OFFCURVE",
"68 63 OFFCURVE",
"68 230 CURVE SMOOTH",
"68 680 LINE",
"206 680 LINE"
);
},
{
closed = 1;
nodes = (
"135 765 LINE",
"269 914 LINE",
"386 914 LINE",
"520 765 LINE",
"378 765 LINE",
"329 821 LINE",
"277 765 LINE"
);
}
);
width = 654;
}
);
leftKerningGroup = U;
rightKerningGroup = U;
unicode = 00DB;
},
{
glyphname = Udieresis;
layers = (
{
layerId = "E174F030-6324-451A-8951-EA6336064495";
name = Bold;
paths = (
{
closed = 1;
nodes = (
"206 227 LINE SMOOTH",
"206 148 OFFCURVE",
"246 108 OFFCURVE",
"327 108 CURVE SMOOTH",
"408 108 OFFCURVE",
"448 148 OFFCURVE",
"448 227 CURVE SMOOTH",
"448 680 LINE",
"586 680 LINE",
"586 230 LINE SMOOTH",
"586 63 OFFCURVE",
"500 -12 OFFCURVE",
"327 -12 CURVE SMOOTH",
"154 -12 OFFCURVE",
"68 63 OFFCURVE",
"68 230 CURVE SMOOTH",
"68 680 LINE",
"206 680 LINE"
);
},
{
closed = 1;
nodes = (
"156 764 LINE",
"156 896 LINE",
"284 896 LINE",
"284 764 LINE"
);
},
{
closed = 1;
nodes = (
"370 764 LINE",
"370 896 LINE",
"498 896 LINE",
"498 764 LINE"
);
}
);
width = 654;
}
);
leftKerningGroup = U;
rightKerningGroup = U;
unicode = 00DC;
},
{
glyphname = Yacute;
layers = (
{
layerId = "E174F030-6324-451A-8951-EA6336064495";
name = Bold;
paths = (
{
closed = 1;
nodes = (
"348 0 LINE",
"210 0 LINE",
"210 275 LINE",
"0 680 LINE",
"153 680 LINE",
"278 409 LINE",
"403 680 LINE",
"556 680 LINE",
"348 275 LINE"
);
},
{
closed = 1;
nodes = (
"133 839 LINE",
"385 945 LINE",
"426 825 LINE",
"166 746 LINE"
);
}
);
width = 557;
}
);
leftKerningGroup = Y;
rightKerningGroup = Y;
unicode = 00DD;
},
{
glyphname = Thorn;
layers = (
{
layerId = "E174F030-6324-451A-8951-EA6336064495";
name = Bold;
paths = (
{
closed = 1;
nodes = (
"323 233 LINE SMOOTH",
"391 233 OFFCURVE",
"428 277 OFFCURVE",
"428 353 CURVE SMOOTH",
"428 424 OFFCURVE",
"393 460 OFFCURVE",
"323 460 CURVE SMOOTH",
"212 460 LINE",
"212 233 LINE"
);
},
{
closed = 1;
nodes = (
"212 99 LINE",
"212 0 LINE",
"74 0 LINE",
"74 690 LINE",
"212 690 LINE",
"212 592 LINE",
"324 592 LINE SMOOTH",
"487 592 OFFCURVE",
"568 512 OFFCURVE",
"568 353 CURVE SMOOTH",
"568 192 OFFCURVE",
"483 99 OFFCURVE",
"324 99 CURVE SMOOTH"
);
}
);
width = 596;
}
);
leftKerningGroup = B;
rightKerningGroup = numbersign;
unicode = 00DE;
},
{
glyphname = germandbls;
layers = (
{
layerId = "E174F030-6324-451A-8951-EA6336064495";
name = Bold;
paths = (
{
closed = 1;
nodes = (
"196 0 LINE",
"62 0 LINE",
"62 522 LINE SMOOTH",
"62 658 OFFCURVE",
"129 712 OFFCURVE",
"289 712 CURVE SMOOTH",
"449 712 OFFCURVE",
"523 666 OFFCURVE",
"523 555 CURVE SMOOTH",
"523 483 OFFCURVE",
"495 458 OFFCURVE",
"436 432 CURVE SMOOTH",
"407 419 OFFCURVE",
"388 409 OFFCURVE",
"381 403 CURVE SMOOTH",
"374 397 OFFCURVE",
"370 389 OFFCURVE",
"370 380 CURVE SMOOTH",
"370 371 OFFCURVE",
"375 362 OFFCURVE",
"386 354 CURVE SMOOTH",
"397 346 OFFCURVE",
"424 332 OFFCURVE",
"469 312 CURVE SMOOTH",
"557 271 OFFCURVE",
"588 241 OFFCURVE",
"588 164 CURVE SMOOTH",
"588 29 OFFCURVE",
"534 -12 OFFCURVE",
"386 -12 CURVE SMOOTH",
"350 -12 OFFCURVE",
"307 -6 OFFCURVE",
"256 6 CURVE SMOOTH",
"232 11 LINE",
"236 118 LINE",
"301 110 OFFCURVE",
"345 106 OFFCURVE",
"370 106 CURVE SMOOTH",
"423 106 OFFCURVE",
"450 119 OFFCURVE",
"450 144 CURVE SMOOTH",
"450 159 OFFCURVE",
"445 171 OFFCURVE",
"435 179 CURVE SMOOTH",
"425 187 OFFCURVE",
"398 200 OFFCURVE",
"354 219 CURVE SMOOTH",
"266 256 OFFCURVE",
"232 297 OFFCURVE",
"232 365 CURVE SMOOTH",
"232 433 OFFCURVE",
"253 466 OFFCURVE",
"312 490 CURVE SMOOTH",
"341 502 OFFCURVE",
"361 512 OFFCURVE",
"371 519 CURVE",
"380 526 OFFCURVE",
"385 537 OFFCURVE",
"385 551 CURVE SMOOTH",
"385 565 OFFCURVE",
"378 576 OFFCURVE",
"365 583 CURVE SMOOTH",
"352 590 OFFCURVE",
"327 594 OFFCURVE",
"292 594 CURVE SMOOTH",
"220 594 OFFCURVE",
"196 572 OFFCURVE",
"196 519 CURVE SMOOTH"
);
}
);
width = 611;
}
);
leftKerningGroup = h;
rightKerningGroup = numbersign;
unicode = 00DF;
},
{
glyphname = agrave;
layers = (
{
layerId = "E174F030-6324-451A-8951-EA6336064495";
name = Bold;
paths = (
{
closed = 1;
nodes = (
"445 136 LINE",
"448 104 OFFCURVE",
"453 94 OFFCURVE",
"478 89 CURVE",
"474 -12 LINE",
"406 -12 OFFCURVE",
"372 -5 OFFCURVE",
"331 23 CURVE",
"283 0 OFFCURVE",
"234 -12 OFFCURVE",
"184 -12 CURVE SMOOTH",
"81 -12 OFFCURVE",
"29 43 OFFCURVE",
"29 152 CURVE SMOOTH",
"29 259 OFFCURVE",
"85 297 OFFCURVE",
"204 305 CURVE SMOOTH",
"311 313 LINE",
"311 344 LINE SMOOTH",
"311 385 OFFCURVE",
"293 398 OFFCURVE",
"252 398 CURVE",
"64 390 LINE",
"60 483 LINE",
"131 502 OFFCURVE",
"199 512 OFFCURVE",
"264 512 CURVE SMOOTH",
"392 512 OFFCURVE",
"445 461 OFFCURVE",
"445 344 CURVE SMOOTH"
);
},
{
closed = 1;
nodes = (
"220 212 LINE SMOOTH",
"183 209 OFFCURVE",
"164 189 OFFCURVE",
"164 152 CURVE SMOOTH",
"164 115 OFFCURVE",
"180 97 OFFCURVE",
"213 97 CURVE SMOOTH",
"238 97 OFFCURVE",
"266 101 OFFCURVE",
"296 109 CURVE SMOOTH",
"311 113 LINE",
"311 220 LINE"
);
},
{
closed = 1;
nodes = (
"143 753 LINE",
"395 651 LINE",
"365 564 LINE",
"103 638 LINE"
);
}
);
width = 511;
}
);
leftKerningGroup = a;
rightKerningGroup = a;
unicode = 00E0;
},
{
glyphname = aacute;
layers = (
{
layerId = "E174F030-6324-451A-8951-EA6336064495";
name = Bold;
paths = (
{
closed = 1;
nodes = (
"445 136 LINE",
"448 104 OFFCURVE",
"453 94 OFFCURVE",
"478 89 CURVE",
"474 -12 LINE",
"406 -12 OFFCURVE",
"372 -5 OFFCURVE",
"331 23 CURVE",
"283 0 OFFCURVE",
"234 -12 OFFCURVE",
"184 -12 CURVE SMOOTH",
"81 -12 OFFCURVE",
"29 43 OFFCURVE",
"29 152 CURVE SMOOTH",
"29 259 OFFCURVE",
"85 297 OFFCURVE",
"204 305 CURVE SMOOTH",
"311 313 LINE",
"311 344 LINE SMOOTH",
"311 385 OFFCURVE",
"293 398 OFFCURVE",
"252 398 CURVE",
"64 390 LINE",
"60 483 LINE",
"131 502 OFFCURVE",
"199 512 OFFCURVE",
"264 512 CURVE SMOOTH",
"392 512 OFFCURVE",
"445 461 OFFCURVE",
"445 344 CURVE SMOOTH"
);
},
{
closed = 1;
nodes = (
"220 212 LINE SMOOTH",
"183 209 OFFCURVE",
"164 189 OFFCURVE",
"164 152 CURVE SMOOTH",
"164 115 OFFCURVE",
"180 97 OFFCURVE",
"213 97 CURVE SMOOTH",
"238 97 OFFCURVE",
"266 101 OFFCURVE",
"296 109 CURVE SMOOTH",
"311 113 LINE",
"311 220 LINE"
);
},
{
closed = 1;
nodes = (
"96 651 LINE",
"348 753 LINE",
"388 638 LINE",
"126 564 LINE"
);
}
);
width = 511;
}
);
leftKerningGroup = a;
rightKerningGroup = a;
unicode = 00E1;
},
{
glyphname = acircumflex;
layers = (
{
layerId = "E174F030-6324-451A-8951-EA6336064495";
name = Bold;
paths = (
{
closed = 1;
nodes = (
"445 136 LINE",
"448 104 OFFCURVE",
"453 94 OFFCURVE",
"478 89 CURVE",
"474 -12 LINE",
"406 -12 OFFCURVE",
"372 -5 OFFCURVE",
"331 23 CURVE",
"283 0 OFFCURVE",
"234 -12 OFFCURVE",
"184 -12 CURVE SMOOTH",
"81 -12 OFFCURVE",
"29 43 OFFCURVE",
"29 152 CURVE SMOOTH",
"29 259 OFFCURVE",
"85 297 OFFCURVE",
"204 305 CURVE SMOOTH",
"311 313 LINE",
"311 344 LINE SMOOTH",
"311 385 OFFCURVE",
"293 398 OFFCURVE",
"252 398 CURVE",
"64 390 LINE",
"60 483 LINE",
"131 502 OFFCURVE",
"199 512 OFFCURVE",
"264 512 CURVE SMOOTH",
"392 512 OFFCURVE",
"445 461 OFFCURVE",
"445 344 CURVE SMOOTH"
);
},
{
closed = 1;
nodes = (
"220 212 LINE SMOOTH",
"183 209 OFFCURVE",
"164 189 OFFCURVE",
"164 152 CURVE SMOOTH",
"164 115 OFFCURVE",
"180 97 OFFCURVE",
"213 97 CURVE SMOOTH",
"238 97 OFFCURVE",
"266 101 OFFCURVE",
"296 109 CURVE SMOOTH",
"311 113 LINE",
"311 220 LINE"
);
},
{
closed = 1;
nodes = (
"83 580 LINE",
"209 731 LINE",
"293 731 LINE",
"421 580 LINE",
"298 580 LINE",
"252 647 LINE",
"206 580 LINE"
);
}
);
width = 511;
}
);
leftKerningGroup = a;
rightKerningGroup = a;
unicode = 00E2;
},
{
glyphname = atilde;
layers = (
{
layerId = "E174F030-6324-451A-8951-EA6336064495";
name = Bold;
paths = (
{
closed = 1;
nodes = (
"445 136 LINE",
"448 104 OFFCURVE",
"453 94 OFFCURVE",
"478 89 CURVE",
"474 -12 LINE",
"406 -12 OFFCURVE",
"372 -5 OFFCURVE",
"331 23 CURVE",
"283 0 OFFCURVE",
"234 -12 OFFCURVE",
"184 -12 CURVE SMOOTH",
"81 -12 OFFCURVE",
"29 43 OFFCURVE",
"29 152 CURVE SMOOTH",
"29 259 OFFCURVE",
"85 297 OFFCURVE",
"204 305 CURVE SMOOTH",
"311 313 LINE",
"311 344 LINE SMOOTH",
"311 385 OFFCURVE",
"293 398 OFFCURVE",
"252 398 CURVE",
"64 390 LINE",
"60 483 LINE",
"131 502 OFFCURVE",
"199 512 OFFCURVE",
"264 512 CURVE SMOOTH",
"392 512 OFFCURVE",
"445 461 OFFCURVE",
"445 344 CURVE SMOOTH"
);
},
{
closed = 1;
nodes = (
"220 212 LINE SMOOTH",
"183 209 OFFCURVE",
"164 189 OFFCURVE",
"164 152 CURVE SMOOTH",
"164 115 OFFCURVE",
"180 97 OFFCURVE",
"213 97 CURVE SMOOTH",
"238 97 OFFCURVE",
"266 101 OFFCURVE",
"296 109 CURVE SMOOTH",
"311 113 LINE",
"311 220 LINE"
);
},
{
closed = 1;
nodes = (
"365 616 OFFCURVE",
"320 585 OFFCURVE",
"290 585 CURVE SMOOTH",
"275 585 OFFCURVE",
"252 591 OFFCURVE",
"221 603 CURVE SMOOTH",
"190 615 OFFCURVE",
"171 621 OFFCURVE",
"162 621 CURVE SMOOTH",
"143 621 OFFCURVE",
"121 613 OFFCURVE",
"96 598 CURVE SMOOTH",
"83 590 LINE",
"54 665 LINE",
"81 696 OFFCURVE",
"128 725 OFFCURVE",
"158 725 CURVE SMOOTH",
"173 725 OFFCURVE",
"196 719 OFFCURVE",
"227 707 CURVE SMOOTH",
"258 695 OFFCURVE",
"277 689 OFFCURVE",
"285 689 CURVE SMOOTH",
"301 689 OFFCURVE",
"323 697 OFFCURVE",
"351 714 CURVE SMOOTH",
"365 723 LINE",
"394 647 LINE",
"390 642 OFFCURVE",
"385 637 OFFCURVE",
"378 630 CURVE"
);
}
);
width = 511;
}
);
leftKerningGroup = a;
rightKerningGroup = a;
unicode = 00E3;
},
{
glyphname = adieresis;
layers = (
{
layerId = "E174F030-6324-451A-8951-EA6336064495";
name = Bold;
paths = (
{
closed = 1;
nodes = (
"445 136 LINE",
"448 104 OFFCURVE",
"453 94 OFFCURVE",
"478 89 CURVE",
"474 -12 LINE",
"406 -12 OFFCURVE",
"372 -5 OFFCURVE",
"331 23 CURVE",
"283 0 OFFCURVE",
"234 -12 OFFCURVE",
"184 -12 CURVE SMOOTH",
"81 -12 OFFCURVE",
"29 43 OFFCURVE",
"29 152 CURVE SMOOTH",
"29 259 OFFCURVE",
"85 297 OFFCURVE",
"204 305 CURVE SMOOTH",
"311 313 LINE",
"311 344 LINE SMOOTH",
"311 385 OFFCURVE",
"293 398 OFFCURVE",
"252 398 CURVE",
"64 390 LINE",
"60 483 LINE",
"131 502 OFFCURVE",
"199 512 OFFCURVE",
"264 512 CURVE SMOOTH",
"392 512 OFFCURVE",
"445 461 OFFCURVE",
"445 344 CURVE SMOOTH"
);
},
{
closed = 1;
nodes = (
"220 212 LINE SMOOTH",
"183 209 OFFCURVE",
"164 189 OFFCURVE",
"164 152 CURVE SMOOTH",
"164 115 OFFCURVE",
"180 97 OFFCURVE",
"213 97 CURVE SMOOTH",
"238 97 OFFCURVE",
"266 101 OFFCURVE",
"296 109 CURVE SMOOTH",
"311 113 LINE",
"311 220 LINE"
);
},
{
closed = 1;
nodes = (
"65 596 LINE",
"65 728 LINE",
"193 728 LINE",
"193 596 LINE"
);
},
{
closed = 1;
nodes = (
"281 596 LINE",
"281 728 LINE",
"409 728 LINE",
"409 596 LINE"
);
}
);
width = 511;
}
);
leftKerningGroup = a;
rightKerningGroup = a;
unicode = 00E4;
},
{
glyphname = aring;
layers = (
{
layerId = "E174F030-6324-451A-8951-EA6336064495";
name = Bold;
paths = (
{
closed = 1;
nodes = (
"445 136 LINE",
"448 104 OFFCURVE",
"453 94 OFFCURVE",
"478 89 CURVE",
"474 -12 LINE",
"406 -12 OFFCURVE",
"372 -5 OFFCURVE",
"331 23 CURVE",
"283 0 OFFCURVE",
"234 -12 OFFCURVE",
"184 -12 CURVE SMOOTH",
"81 -12 OFFCURVE",
"29 43 OFFCURVE",
"29 152 CURVE SMOOTH",
"29 259 OFFCURVE",
"85 297 OFFCURVE",
"204 305 CURVE SMOOTH",
"311 313 LINE",
"311 344 LINE SMOOTH",
"311 385 OFFCURVE",
"293 398 OFFCURVE",
"252 398 CURVE",
"64 390 LINE",
"60 483 LINE",
"131 502 OFFCURVE",
"199 512 OFFCURVE",
"264 512 CURVE SMOOTH",
"392 512 OFFCURVE",
"445 461 OFFCURVE",
"445 344 CURVE SMOOTH"
);
},
{
closed = 1;
nodes = (
"220 212 LINE SMOOTH",
"183 209 OFFCURVE",
"164 189 OFFCURVE",
"164 152 CURVE SMOOTH",
"164 115 OFFCURVE",
"180 97 OFFCURVE",
"213 97 CURVE SMOOTH",
"238 97 OFFCURVE",
"266 101 OFFCURVE",
"296 109 CURVE SMOOTH",
"311 113 LINE",
"311 220 LINE"
);
},
{
closed = 1;
nodes = (
"199 521 OFFCURVE",
"148 572 OFFCURVE",
"148 638 CURVE SMOOTH",
"148 704 OFFCURVE",
"199 755 OFFCURVE",
"265 755 CURVE SMOOTH",
"331 755 OFFCURVE",
"382 704 OFFCURVE",
"382 638 CURVE SMOOTH",
"382 572 OFFCURVE",
"331 521 OFFCURVE",
"265 521 CURVE SMOOTH"
);
},
{
closed = 1;
nodes = (
"224 662 OFFCURVE",
"220 651 OFFCURVE",
"220 638 CURVE SMOOTH",
"220 611 OFFCURVE",
"239 592 OFFCURVE",
"266 592 CURVE SMOOTH",
"293 592 OFFCURVE",
"311 611 OFFCURVE",
"311 638 CURVE SMOOTH",
"311 665 OFFCURVE",
"293 683 OFFCURVE",
"266 683 CURVE SMOOTH",
"253 683 OFFCURVE",
"242 679 OFFCURVE",
"233 671 CURVE"
);
}
);
width = 511;
}
);
leftKerningGroup = a;
rightKerningGroup = a;
unicode = 00E5;
},
{
glyphname = ae;
layers = (
{
layerId = "E174F030-6324-451A-8951-EA6336064495";
name = Bold;
paths = (
{
closed = 1;
nodes = (
"445 192 LINE",
"446 135 OFFCURVE",
"477 111 OFFCURVE",
"537 111 CURVE SMOOTH",
"582 111 OFFCURVE",
"638 113 OFFCURVE",
"703 118 CURVE SMOOTH",
"731 120 LINE",
"733 16 LINE",
"656 -3 OFFCURVE",
"586 -12 OFFCURVE",
"521 -12 CURVE SMOOTH",
"456 -12 OFFCURVE",
"406 4 OFFCURVE",
"372 36 CURVE",
"349 25 LINE SMOOTH",
"293 0 OFFCURVE",
"238 -12 OFFCURVE",
"185 -12 CURVE SMOOTH",
"78 -12 OFFCURVE",
"29 49 OFFCURVE",
"29 154 CURVE SMOOTH",
"29 258 OFFCURVE",
"87 299 OFFCURVE",
"203 306 CURVE SMOOTH",
"311 313 LINE",
"311 338 LINE SMOOTH",
"311 365 OFFCURVE",
"292 383 OFFCURVE",
"256 383 CURVE SMOOTH",
"208 383 OFFCURVE",
"156 380 OFFCURVE",
"99 375 CURVE SMOOTH",
"67 372 LINE",
"63 489 LINE",
"152 504 OFFCURVE",
"223 511 OFFCURVE",
"276 511 CURVE SMOOTH",
"329 511 OFFCURVE",
"369 499 OFFCURVE",
"398 474 CURVE",
"433 499 OFFCURVE",
"477 511 OFFCURVE",
"531 511 CURVE SMOOTH",
"676 511 OFFCURVE",
"749 436 OFFCURVE",
"749 286 CURVE",
"739 192 LINE"
);
},
{
closed = 1;
nodes = (
"311 118 LINE",
"310 211 LINE",
"220 207 LINE SMOOTH",
"183 205 OFFCURVE",
"164 188 OFFCURVE",
"164 156 CURVE SMOOTH",
"164 121 OFFCURVE",
"178 103 OFFCURVE",
"205 103 CURVE SMOOTH",
"232 103 OFFCURVE",
"261 107 OFFCURVE",
"294 114 CURVE SMOOTH"
);
},
{
closed = 1;
nodes = (
"617 295 LINE",
"617 366 OFFCURVE",
"594 392 OFFCURVE",
"531 392 CURVE SMOOTH",
"467 392 OFFCURVE",
"445 363 OFFCURVE",
"445 295 CURVE"
);
}
);
width = 784;
}
);
leftKerningGroup = a;
rightKerningGroup = e;
unicode = 00E6;
},
{
glyphname = ccedilla;
layers = (
{
layerId = "E174F030-6324-451A-8951-EA6336064495";
name = Bold;
paths = (
{
closed = 1;
nodes = (
"255 -37 LINE",
"340 -38 OFFCURVE",
"378 -56 OFFCURVE",
"378 -129 CURVE SMOOTH",
"378 -202 OFFCURVE",
"338 -241 OFFCURVE",
"267 -241 CURVE SMOOTH",
"238 -241 OFFCURVE",
"212 -238 OFFCURVE",
"188 -233 CURVE SMOOTH",
"174 -230 LINE",
"178 -152 LINE",
"199 -153 OFFCURVE",
"215 -153 OFFCURVE",
"226 -153 CURVE SMOOTH",
"251 -153 OFFCURVE",
"264 -144 OFFCURVE",
"264 -127 CURVE SMOOTH",
"264 -112 OFFCURVE",
"251 -105 OFFCURVE",
"226 -105 CURVE SMOOTH",
"202 -105 LINE",
"202 -9 LINE",
"86 6 OFFCURVE",
"38 85 OFFCURVE",
"38 259 CURVE SMOOTH",
"38 433 OFFCURVE",
"101 512 OFFCURVE",
"249 512 CURVE SMOOTH",
"284 512 OFFCURVE",
"328 507 OFFCURVE",
"382 496 CURVE SMOOTH",
"409 490 LINE",
"405 384 LINE",
"352 389 OFFCURVE",
"313 392 OFFCURVE",
"288 392 CURVE SMOOTH",
"196 392 OFFCURVE",
"174 360 OFFCURVE",
"174 251 CURVE SMOOTH",
"174 142 OFFCURVE",
"196 108 OFFCURVE",
"289 108 CURVE",
"405 116 LINE",
"409 9 LINE",
"344 -4 OFFCURVE",
"293 -11 OFFCURVE",
"255 -12 CURVE"
);
}
);
width = 446;
}
);
leftKerningGroup = c;
rightKerningGroup = c;
unicode = 00E7;
},
{
glyphname = egrave;
layers = (
{
layerId = "E174F030-6324-451A-8951-EA6336064495";
name = Bold;
paths = (
{
closed = 1;
nodes = (
"172 193 LINE",
"173 132 OFFCURVE",
"205 106 OFFCURVE",
"264 106 CURVE SMOOTH",
"326 106 OFFCURVE",
"381 108 OFFCURVE",
"430 112 CURVE SMOOTH",
"458 115 LINE",
"460 16 LINE",
"383 -3 OFFCURVE",
"314 -12 OFFCURVE",
"252 -12 CURVE SMOOTH",
"101 -12 OFFCURVE",
"37 63 OFFCURVE",
"37 243 CURVE SMOOTH",
"37 422 OFFCURVE",
"111 512 OFFCURVE",
"258 512 CURVE SMOOTH",
"403 512 OFFCURVE",
"476 437 OFFCURVE",
"476 286 CURVE",
"466 193 LINE"
);
},
{
closed = 1;
nodes = (
"344 295 LINE",
"344 375 OFFCURVE",
"322 402 OFFCURVE",
"259 402 CURVE SMOOTH",
"195 402 OFFCURVE",
"172 372 OFFCURVE",
"171 295 CURVE"
);
},
{
closed = 1;
nodes = (
"150 753 LINE",
"402 651 LINE",
"372 564 LINE",
"110 638 LINE"
);
}
);
width = 510;
}
);
leftKerningGroup = c;
rightKerningGroup = e;
unicode = 00E8;
},
{
glyphname = eacute;
layers = (
{
layerId = "E174F030-6324-451A-8951-EA6336064495";
name = Bold;
paths = (
{
closed = 1;
nodes = (
"172 193 LINE",
"173 132 OFFCURVE",
"205 106 OFFCURVE",
"264 106 CURVE SMOOTH",
"326 106 OFFCURVE",
"381 108 OFFCURVE",
"430 112 CURVE SMOOTH",
"458 115 LINE",
"460 16 LINE",
"383 -3 OFFCURVE",
"314 -12 OFFCURVE",
"252 -12 CURVE SMOOTH",
"101 -12 OFFCURVE",
"37 63 OFFCURVE",
"37 243 CURVE SMOOTH",
"37 422 OFFCURVE",
"111 512 OFFCURVE",
"258 512 CURVE SMOOTH",
"403 512 OFFCURVE",
"476 437 OFFCURVE",
"476 286 CURVE",
"466 193 LINE"
);
},
{
closed = 1;
nodes = (
"344 295 LINE",
"344 375 OFFCURVE",
"322 402 OFFCURVE",
"259 402 CURVE SMOOTH",
"195 402 OFFCURVE",
"172 372 OFFCURVE",
"171 295 CURVE"
);
},
{
closed = 1;
nodes = (
"105 651 LINE",
"357 753 LINE",
"397 638 LINE",
"135 564 LINE"
);
}
);
width = 510;
}
);
leftKerningGroup = c;
rightKerningGroup = e;
unicode = 00E9;
},
{
glyphname = ecircumflex;
layers = (
{
layerId = "E174F030-6324-451A-8951-EA6336064495";
name = Bold;
paths = (
{
closed = 1;
nodes = (
"172 193 LINE",
"173 132 OFFCURVE",
"205 106 OFFCURVE",
"264 106 CURVE SMOOTH",
"326 106 OFFCURVE",
"381 108 OFFCURVE",
"430 112 CURVE SMOOTH",
"458 115 LINE",
"460 16 LINE",
"383 -3 OFFCURVE",
"314 -12 OFFCURVE",
"252 -12 CURVE SMOOTH",
"101 -12 OFFCURVE",
"37 63 OFFCURVE",
"37 243 CURVE SMOOTH",
"37 422 OFFCURVE",
"111 512 OFFCURVE",
"258 512 CURVE SMOOTH",
"403 512 OFFCURVE",
"476 437 OFFCURVE",
"476 286 CURVE",
"466 193 LINE"
);
},
{
closed = 1;
nodes = (
"344 295 LINE",
"344 375 OFFCURVE",
"322 402 OFFCURVE",
"259 402 CURVE SMOOTH",
"195 402 OFFCURVE",
"172 372 OFFCURVE",
"171 295 CURVE"
);
},
{
closed = 1;
nodes = (
"89 580 LINE",
"215 731 LINE",
"299 731 LINE",
"427 580 LINE",
"304 580 LINE",
"258 647 LINE",
"212 580 LINE"
);
}
);
width = 510;
}
);
leftKerningGroup = c;
rightKerningGroup = e;
unicode = 00EA;
},
{
glyphname = edieresis;
layers = (
{
layerId = "E174F030-6324-451A-8951-EA6336064495";
name = Bold;
paths = (
{
closed = 1;
nodes = (
"172 193 LINE",
"173 132 OFFCURVE",
"205 106 OFFCURVE",
"264 106 CURVE SMOOTH",
"326 106 OFFCURVE",
"381 108 OFFCURVE",
"430 112 CURVE SMOOTH",
"458 115 LINE",
"460 16 LINE",
"383 -3 OFFCURVE",
"314 -12 OFFCURVE",
"252 -12 CURVE SMOOTH",
"101 -12 OFFCURVE",
"37 63 OFFCURVE",
"37 243 CURVE SMOOTH",
"37 422 OFFCURVE",
"111 512 OFFCURVE",
"258 512 CURVE SMOOTH",
"403 512 OFFCURVE",
"476 437 OFFCURVE",
"476 286 CURVE",
"466 193 LINE"
);
},
{
closed = 1;
nodes = (
"344 295 LINE",
"344 375 OFFCURVE",
"322 402 OFFCURVE",
"259 402 CURVE SMOOTH",
"195 402 OFFCURVE",
"172 372 OFFCURVE",
"171 295 CURVE"
);
},
{
closed = 1;
nodes = (
"84 596 LINE",
"84 728 LINE",
"212 728 LINE",
"212 596 LINE"
);
},
{
closed = 1;
nodes = (
"300 596 LINE",
"300 728 LINE",
"428 728 LINE",
"428 596 LINE"
);
}
);
width = 510;
}
);
leftKerningGroup = c;
rightKerningGroup = e;
unicode = 00EB;
},
{
glyphname = igrave;
layers = (
{
layerId = "E174F030-6324-451A-8951-EA6336064495";
name = Bold;
paths = (
{
closed = 1;
nodes = (
"62 0 LINE",
"62 500 LINE",
"196 500 LINE",
"196 0 LINE"
);
},
{
closed = 1;
nodes = (
"-19 753 LINE",
"233 651 LINE",
"203 564 LINE",
"-59 638 LINE"
);
}
);
width = 258;
}
);
leftKerningGroup = i;
rightKerningGroup = numbersign;
unicode = 00EC;
},
{
glyphname = iacute;
layers = (
{
layerId = "E174F030-6324-451A-8951-EA6336064495";
name = Bold;
paths = (
{
closed = 1;
nodes = (
"31 651 LINE",
"283 753 LINE",
"323 638 LINE",
"61 564 LINE"
);
},
{
closed = 1;
nodes = (
"62 500 LINE",
"196 500 LINE",
"196 0 LINE",
"62 0 LINE"
);
}
);
width = 258;
}
);
leftKerningGroup = i;
rightKerningGroup = numbersign;
unicode = 00ED;
},
{
glyphname = icircumflex;
layers = (
{
layerId = "E174F030-6324-451A-8951-EA6336064495";
name = Bold;
paths = (
{
closed = 1;
nodes = (
"62 500 LINE",
"196 500 LINE",
"196 0 LINE",
"62 0 LINE"
);
},
{
closed = 1;
nodes = (
"-45 580 LINE",
"81 731 LINE",
"165 731 LINE",
"293 580 LINE",
"170 580 LINE",
"124 647 LINE",
"78 580 LINE"
);
}
);
width = 258;
}
);
leftKerningGroup = i;
rightKerningGroup = numbersign;
unicode = 00EE;
},
{
glyphname = idieresis;
layers = (
{
layerId = "E174F030-6324-451A-8951-EA6336064495";
name = Bold;
paths = (
{
closed = 1;
nodes = (
"62 500 LINE",
"196 500 LINE",
"196 0 LINE",
"62 0 LINE"
);
},
{
closed = 1;
nodes = (
"-48 596 LINE",
"-48 728 LINE",
"80 728 LINE",
"80 596 LINE"
);
},
{
closed = 1;
nodes = (
"168 596 LINE",
"168 728 LINE",
"296 728 LINE",
"296 596 LINE"
);
}
);
width = 258;
}
);
leftKerningGroup = i;
rightKerningGroup = numbersign;
unicode = 00EF;
},
{
glyphname = eth;
layers = (
{
layerId = "E174F030-6324-451A-8951-EA6336064495";
name = Bold;
paths = (
{
closed = 1;
nodes = (
"405 625 LINE",
"487 566 OFFCURVE",
"528 475 OFFCURVE",
"528 351 CURVE SMOOTH",
"528 102 OFFCURVE",
"453 -9 OFFCURVE",
"273 -9 CURVE SMOOTH",
"116 -9 OFFCURVE",
"38 66 OFFCURVE",
"38 216 CURVE SMOOTH",
"38 355 OFFCURVE",
"111 438 OFFCURVE",
"256 438 CURVE SMOOTH",
"297 438 OFFCURVE",
"335 432 OFFCURVE",
"369 420 CURVE SMOOTH",
"386 414 LINE",
"379 477 OFFCURVE",
"356 520 OFFCURVE",
"297 553 CURVE",
"168 467 LINE",
"114 543 LINE",
"190 594 LINE",
"159 602 OFFCURVE",
"123 610 OFFCURVE",
"82 618 CURVE",
"100 712 LINE",
"181 706 OFFCURVE",
"250 693 OFFCURVE",
"309 673 CURVE",
"405 737 LINE",
"459 661 LINE"
);
},
{
closed = 1;
nodes = (
"209 320 OFFCURVE",
"180 273 OFFCURVE",
"180 216 CURVE SMOOTH",
"180 146 OFFCURVE",
"211 111 OFFCURVE",
"273 111 CURVE SMOOTH",
"348 111 OFFCURVE",
"386 166 OFFCURVE",
"386 298 CURVE",
"353 313 OFFCURVE",
"312 320 OFFCURVE",
"264 320 CURVE SMOOTH"
);
}
);
width = 567;
}
);
rightKerningGroup = numbersign;
unicode = 00F0;
},
{
glyphname = ntilde;
layers = (
{
layerId = "E174F030-6324-451A-8951-EA6336064495";
name = Bold;
paths = (
{
closed = 1;
nodes = (
"62 0 LINE",
"62 500 LINE",
"195 500 LINE",
"195 472 LINE",
"214 482 LINE SMOOTH",
"238 495 OFFCURVE",
"287 512 OFFCURVE",
"320 512 CURVE SMOOTH",
"453 512 OFFCURVE",
"496 435 OFFCURVE",
"496 271 CURVE",
"496 271 OFFCURVE",
"496 181 OFFCURVE",
"496 0 CURVE",
"362 0 LINE",
"362 267 LINE SMOOTH",
"362 352 OFFCURVE",
"347 392 OFFCURVE",
"286 392 CURVE SMOOTH",
"255 392 OFFCURVE",
"225 386 OFFCURVE",
"196 374 CURVE",
"196 0 LINE"
);
},
{
closed = 1;
nodes = (
"422 616 OFFCURVE",
"377 585 OFFCURVE",
"347 585 CURVE SMOOTH",
"332 585 OFFCURVE",
"309 591 OFFCURVE",
"278 603 CURVE SMOOTH",
"247 615 OFFCURVE",
"227 621 OFFCURVE",
"218 621 CURVE SMOOTH",
"199 621 OFFCURVE",
"178 613 OFFCURVE",
"153 598 CURVE SMOOTH",
"140 590 LINE",
"111 665 LINE",
"138 696 OFFCURVE",
"185 725 OFFCURVE",
"215 725 CURVE SMOOTH",
"230 725 OFFCURVE",
"253 719 OFFCURVE",
"284 707 CURVE SMOOTH",
"315 695 OFFCURVE",
"334 689 OFFCURVE",
"342 689 CURVE SMOOTH",
"358 689 OFFCURVE",
"380 697 OFFCURVE",
"408 714 CURVE SMOOTH",
"422 723 LINE",
"451 647 LINE",
"447 642 OFFCURVE",
"442 637 OFFCURVE",
"435 630 CURVE"
);
}
);
width = 553;
}
);
leftKerningGroup = m;
rightKerningGroup = h;
unicode = 00F1;
},
{
glyphname = ograve;
layers = (
{
layerId = "E174F030-6324-451A-8951-EA6336064495";
name = Bold;
paths = (
{
closed = 1;
nodes = (
"124 489 OFFCURVE",
"183 512 OFFCURVE",
"266 512 CURVE SMOOTH",
"431 512 OFFCURVE",
"496 416 OFFCURVE",
"496 251 CURVE SMOOTH",
"496 76 OFFCURVE",
"419 -12 OFFCURVE",
"266 -12 CURVE SMOOTH",
"113 -12 OFFCURVE",
"36 76 OFFCURVE",
"36 251 CURVE SMOOTH",
"36 334 OFFCURVE",
"54 398 OFFCURVE",
"89 444 CURVE SMOOTH"
);
},
{
closed = 1;
nodes = (
"206 114 OFFCURVE",
"231 102 OFFCURVE",
"266 102 CURVE SMOOTH",
"337 102 OFFCURVE",
"360 148 OFFCURVE",
"360 251 CURVE SMOOTH",
"360 354 OFFCURVE",
"337 398 OFFCURVE",
"266 398 CURVE SMOOTH",
"195 398 OFFCURVE",
"172 354 OFFCURVE",
"172 251 CURVE SMOOTH",
"172 200 OFFCURVE",
"179 162 OFFCURVE",
"193 138 CURVE SMOOTH"
);
},
{
closed = 1;
nodes = (
"163 753 LINE",
"415 651 LINE",
"385 564 LINE",
"123 638 LINE"
);
}
);
width = 532;
}
);
leftKerningGroup = c;
rightKerningGroup = o;
unicode = 00F2;
},
{
glyphname = oacute;
layers = (
{
layerId = "E174F030-6324-451A-8951-EA6336064495";
name = Bold;
paths = (
{
closed = 1;
nodes = (
"124 489 OFFCURVE",
"183 512 OFFCURVE",
"266 512 CURVE SMOOTH",
"431 512 OFFCURVE",
"496 416 OFFCURVE",
"496 251 CURVE SMOOTH",
"496 76 OFFCURVE",
"419 -12 OFFCURVE",
"266 -12 CURVE SMOOTH",
"113 -12 OFFCURVE",
"36 76 OFFCURVE",
"36 251 CURVE SMOOTH",
"36 334 OFFCURVE",
"54 398 OFFCURVE",
"89 444 CURVE SMOOTH"
);
},
{
closed = 1;
nodes = (
"206 114 OFFCURVE",
"231 102 OFFCURVE",
"266 102 CURVE SMOOTH",
"337 102 OFFCURVE",
"360 148 OFFCURVE",
"360 251 CURVE SMOOTH",
"360 354 OFFCURVE",
"337 398 OFFCURVE",
"266 398 CURVE SMOOTH",
"195 398 OFFCURVE",
"172 354 OFFCURVE",
"172 251 CURVE SMOOTH",
"172 200 OFFCURVE",
"179 162 OFFCURVE",
"193 138 CURVE SMOOTH"
);
},
{
closed = 1;
nodes = (
"116 651 LINE",
"368 753 LINE",
"408 638 LINE",
"146 564 LINE"
);
}
);
width = 532;
}
);
leftKerningGroup = c;
rightKerningGroup = o;
unicode = 00F3;
},
{
glyphname = ocircumflex;
layers = (
{
layerId = "E174F030-6324-451A-8951-EA6336064495";
name = Bold;
paths = (
{
closed = 1;
nodes = (
"124 489 OFFCURVE",
"183 512 OFFCURVE",
"266 512 CURVE SMOOTH",
"431 512 OFFCURVE",
"496 416 OFFCURVE",
"496 251 CURVE SMOOTH",
"496 76 OFFCURVE",
"419 -12 OFFCURVE",
"266 -12 CURVE SMOOTH",
"113 -12 OFFCURVE",
"36 76 OFFCURVE",
"36 251 CURVE SMOOTH",
"36 334 OFFCURVE",
"54 398 OFFCURVE",
"89 444 CURVE SMOOTH"
);
},
{
closed = 1;
nodes = (
"206 114 OFFCURVE",
"231 102 OFFCURVE",
"266 102 CURVE SMOOTH",
"337 102 OFFCURVE",
"360 148 OFFCURVE",
"360 251 CURVE SMOOTH",
"360 354 OFFCURVE",
"337 398 OFFCURVE",
"266 398 CURVE SMOOTH",
"195 398 OFFCURVE",
"172 354 OFFCURVE",
"172 251 CURVE SMOOTH",
"172 200 OFFCURVE",
"179 162 OFFCURVE",
"193 138 CURVE SMOOTH"
);
},
{
closed = 1;
nodes = (
"91 580 LINE",
"217 731 LINE",
"301 731 LINE",
"429 580 LINE",
"306 580 LINE",
"260 647 LINE",
"214 580 LINE"
);
}
);
width = 532;
}
);
leftKerningGroup = c;
rightKerningGroup = o;
unicode = 00F4;
},
{
glyphname = otilde;
layers = (
{
layerId = "E174F030-6324-451A-8951-EA6336064495";
name = Bold;
paths = (
{
closed = 1;
nodes = (
"124 489 OFFCURVE",
"183 512 OFFCURVE",
"266 512 CURVE SMOOTH",
"431 512 OFFCURVE",
"496 416 OFFCURVE",
"496 251 CURVE SMOOTH",
"496 76 OFFCURVE",
"419 -12 OFFCURVE",
"266 -12 CURVE SMOOTH",
"113 -12 OFFCURVE",
"36 76 OFFCURVE",
"36 251 CURVE SMOOTH",
"36 334 OFFCURVE",
"54 398 OFFCURVE",
"89 444 CURVE SMOOTH"
);
},
{
closed = 1;
nodes = (
"206 114 OFFCURVE",
"231 102 OFFCURVE",
"266 102 CURVE SMOOTH",
"337 102 OFFCURVE",
"360 148 OFFCURVE",
"360 251 CURVE SMOOTH",
"360 354 OFFCURVE",
"337 398 OFFCURVE",
"266 398 CURVE SMOOTH",
"195 398 OFFCURVE",
"172 354 OFFCURVE",
"172 251 CURVE SMOOTH",
"172 200 OFFCURVE",
"179 162 OFFCURVE",
"193 138 CURVE SMOOTH"
);
},
{
closed = 1;
nodes = (
"402 616 OFFCURVE",
"357 585 OFFCURVE",
"327 585 CURVE SMOOTH",
"312 585 OFFCURVE",
"289 591 OFFCURVE",
"258 603 CURVE SMOOTH",
"227 615 OFFCURVE",
"207 621 OFFCURVE",
"198 621 CURVE SMOOTH",
"179 621 OFFCURVE",
"158 613 OFFCURVE",
"133 598 CURVE SMOOTH",
"120 590 LINE",
"91 665 LINE",
"118 696 OFFCURVE",
"165 725 OFFCURVE",
"195 725 CURVE SMOOTH",
"210 725 OFFCURVE",
"233 719 OFFCURVE",
"264 707 CURVE SMOOTH",
"295 695 OFFCURVE",
"314 689 OFFCURVE",
"322 689 CURVE SMOOTH",
"338 689 OFFCURVE",
"360 697 OFFCURVE",
"388 714 CURVE SMOOTH",
"402 723 LINE",
"431 647 LINE",
"427 642 OFFCURVE",
"422 637 OFFCURVE",
"415 630 CURVE"
);
}
);
width = 532;
}
);
leftKerningGroup = c;
rightKerningGroup = o;
unicode = 00F5;
},
{
glyphname = odieresis;
layers = (
{
layerId = "E174F030-6324-451A-8951-EA6336064495";
name = Bold;
paths = (
{
closed = 1;
nodes = (
"124 489 OFFCURVE",
"183 512 OFFCURVE",
"266 512 CURVE SMOOTH",
"431 512 OFFCURVE",
"496 416 OFFCURVE",
"496 251 CURVE SMOOTH",
"496 76 OFFCURVE",
"419 -12 OFFCURVE",
"266 -12 CURVE SMOOTH",
"113 -12 OFFCURVE",
"36 76 OFFCURVE",
"36 251 CURVE SMOOTH",
"36 334 OFFCURVE",
"54 398 OFFCURVE",
"89 444 CURVE SMOOTH"
);
},
{
closed = 1;
nodes = (
"206 114 OFFCURVE",
"231 102 OFFCURVE",
"266 102 CURVE SMOOTH",
"337 102 OFFCURVE",
"360 148 OFFCURVE",
"360 251 CURVE SMOOTH",
"360 354 OFFCURVE",
"337 398 OFFCURVE",
"266 398 CURVE SMOOTH",
"195 398 OFFCURVE",
"172 354 OFFCURVE",
"172 251 CURVE SMOOTH",
"172 200 OFFCURVE",
"179 162 OFFCURVE",
"193 138 CURVE SMOOTH"
);
},
{
closed = 1;
nodes = (
"93 596 LINE",
"93 728 LINE",
"221 728 LINE",
"221 596 LINE"
);
},
{
closed = 1;
nodes = (
"309 596 LINE",
"309 728 LINE",
"437 728 LINE",
"437 596 LINE"
);
}
);
width = 532;
}
);
leftKerningGroup = c;
rightKerningGroup = o;
unicode = 00F6;
},
{
glyphname = divide;
layers = (
{
layerId = "E174F030-6324-451A-8951-EA6336064495";
name = Bold;
paths = (
{
closed = 1;
nodes = (
"213 352 LINE",
"213 484 LINE",
"345 484 LINE",
"345 352 LINE"
);
},
{
closed = 1;
nodes = (
"50 191 LINE",
"50 311 LINE",
"510 311 LINE",
"510 191 LINE"
);
},
{
closed = 1;
nodes = (
"213 17 LINE",
"213 149 LINE",
"345 149 LINE",
"345 17 LINE"
);
}
);
width = 560;
}
);
rightKerningGroup = numbersign;
unicode = 00F7;
},
{
glyphname = oslash;
layers = (
{
layerId = "E174F030-6324-451A-8951-EA6336064495";
name = Bold;
paths = (
{
closed = 1;
nodes = (
"285 512 OFFCURVE",
"303 510 OFFCURVE",
"322 507 CURVE",
"362 607 LINE",
"443 577 LINE",
"402 479 LINE",
"465 440 OFFCURVE",
"496 364 OFFCURVE",
"496 251 CURVE SMOOTH",
"496 76 OFFCURVE",
"419 -12 OFFCURVE",
"266 -12 CURVE SMOOTH",
"243 -12 OFFCURVE",
"222 -10 OFFCURVE",
"203 -6 CURVE",
"162 -108 LINE",
"82 -78 LINE",
"125 25 LINE",
"66 65 OFFCURVE",
"36 140 OFFCURVE",
"36 251 CURVE SMOOTH",
"36 416 OFFCURVE",
"101 512 OFFCURVE",
"266 512 CURVE SMOOTH"
);
},
{
closed = 1;
nodes = (
"337 102 OFFCURVE",
"360 150 OFFCURVE",
"360 245 CURVE SMOOTH",
"360 292 OFFCURVE",
"355 327 OFFCURVE",
"346 350 CURVE",
"246 103 LINE",
"250 102 OFFCURVE",
"257 102 OFFCURVE",
"266 102 CURVE SMOOTH"
);
},
{
closed = 1;
nodes = (
"279 397 LINE",
"266 398 LINE",
"195 398 OFFCURVE",
"172 351 OFFCURVE",
"172 258 CURVE SMOOTH",
"172 211 OFFCURVE",
"176 177 OFFCURVE",
"184 156 CURVE"
);
}
);
width = 532;
}
);
leftKerningGroup = c;
rightKerningGroup = o;
unicode = 00F8;
},
{
glyphname = ugrave;
layers = (
{
layerId = "E174F030-6324-451A-8951-EA6336064495";
name = Bold;
paths = (
{
closed = 1;
nodes = (
"357 500 LINE",
"491 500 LINE",
"491 0 LINE",
"358 0 LINE",
"358 28 LINE",
"310 1 OFFCURVE",
"268 -12 OFFCURVE",
"233 -12 CURVE SMOOTH",
"94 -12 OFFCURVE",
"57 58 OFFCURVE",
"57 238 CURVE SMOOTH",
"57 500 LINE",
"191 500 LINE",
"191 236 LINE SMOOTH",
"191 137 OFFCURVE",
"200 108 OFFCURVE",
"261 108 CURVE SMOOTH",
"290 108 OFFCURVE",
"318 113 OFFCURVE",
"344 122 CURVE SMOOTH",
"357 126 LINE"
);
},
{
closed = 1;
nodes = (
"138 753 LINE",
"390 651 LINE",
"360 564 LINE",
"98 638 LINE"
);
}
);
width = 553;
}
);
leftKerningGroup = u;
rightKerningGroup = q;
unicode = 00F9;
},
{
glyphname = uacute;
layers = (
{
layerId = "E174F030-6324-451A-8951-EA6336064495";
name = Bold;
paths = (
{
closed = 1;
nodes = (
"491 500 LINE",
"491 0 LINE",
"358 0 LINE",
"358 28 LINE",
"338 18 LINE SMOOTH",
"313 5 OFFCURVE",
"265 -12 OFFCURVE",
"233 -12 CURVE SMOOTH",
"94 -12 OFFCURVE",
"57 58 OFFCURVE",
"57 238 CURVE",
"57 238 OFFCURVE",
"57 325 OFFCURVE",
"57 500 CURVE",
"191 500 LINE",
"191 236 LINE SMOOTH",
"191 137 OFFCURVE",
"199 108 OFFCURVE",
"263 108 CURVE SMOOTH",
"295 108 OFFCURVE",
"326 114 OFFCURVE",
"357 126 CURVE",
"357 500 LINE"
);
},
{
closed = 1;
nodes = (
"130 651 LINE",
"382 753 LINE",
"422 638 LINE",
"160 564 LINE"
);
}
);
width = 553;
}
);
leftKerningGroup = u;
rightKerningGroup = q;
unicode = 00FA;
},
{
glyphname = ucircumflex;
layers = (
{
layerId = "E174F030-6324-451A-8951-EA6336064495";
name = Bold;
paths = (
{
closed = 1;
nodes = (
"491 500 LINE",
"491 0 LINE",
"358 0 LINE",
"358 28 LINE",
"338 18 LINE SMOOTH",
"313 5 OFFCURVE",
"265 -12 OFFCURVE",
"233 -12 CURVE SMOOTH",
"94 -12 OFFCURVE",
"57 58 OFFCURVE",
"57 238 CURVE",
"57 238 OFFCURVE",
"57 325 OFFCURVE",
"57 500 CURVE",
"191 500 LINE",
"191 236 LINE SMOOTH",
"191 137 OFFCURVE",
"199 108 OFFCURVE",
"263 108 CURVE SMOOTH",
"295 108 OFFCURVE",
"326 114 OFFCURVE",
"357 126 CURVE",
"357 500 LINE"
);
},
{
closed = 1;
nodes = (
"82 580 LINE",
"208 731 LINE",
"292 731 LINE",
"420 580 LINE",
"297 580 LINE",
"251 647 LINE",
"205 580 LINE"
);
}
);
width = 553;
}
);
leftKerningGroup = u;
rightKerningGroup = q;
unicode = 00FB;
},
{
glyphname = udieresis;
layers = (
{
layerId = "E174F030-6324-451A-8951-EA6336064495";
name = Bold;
paths = (
{
closed = 1;
nodes = (
"491 500 LINE",
"491 0 LINE",
"358 0 LINE",
"358 28 LINE",
"338 18 LINE SMOOTH",
"313 5 OFFCURVE",
"265 -12 OFFCURVE",
"233 -12 CURVE SMOOTH",
"94 -12 OFFCURVE",
"57 58 OFFCURVE",
"57 238 CURVE",
"57 238 OFFCURVE",
"57 325 OFFCURVE",
"57 500 CURVE",
"191 500 LINE",
"191 236 LINE SMOOTH",
"191 137 OFFCURVE",
"199 108 OFFCURVE",
"263 108 CURVE SMOOTH",
"295 108 OFFCURVE",
"326 114 OFFCURVE",
"357 126 CURVE",
"357 500 LINE"
);
},
{
closed = 1;
nodes = (
"106 596 LINE",
"106 728 LINE",
"234 728 LINE",
"234 596 LINE"
);
},
{
closed = 1;
nodes = (
"322 596 LINE",
"322 728 LINE",
"450 728 LINE",
"450 596 LINE"
);
}
);
width = 553;
}
);
leftKerningGroup = u;
rightKerningGroup = q;
unicode = 00FC;
},
{
glyphname = yacute;
layers = (
{
layerId = "E174F030-6324-451A-8951-EA6336064495";
name = Bold;
paths = (
{
closed = 1;
nodes = (
"16 500 LINE",
"148 500 LINE",
"239 114 LINE",
"262 114 LINE",
"353 500 LINE",
"485 500 LINE",
"309 -210 LINE",
"178 -210 LINE",
"233 0 LINE",
"139 0 LINE"
);
},
{
closed = 1;
nodes = (
"122 651 LINE",
"374 753 LINE",
"414 638 LINE",
"152 564 LINE"
);
}
);
width = 500;
}
);
leftKerningGroup = y;
rightKerningGroup = y;
unicode = 00FD;
},
{
glyphname = thorn;
layers = (
{
layerId = "E174F030-6324-451A-8951-EA6336064495";
name = Bold;
paths = (
{
closed = 1;
nodes = (
"346 104 OFFCURVE",
"370 144 OFFCURVE",
"370 255 CURVE SMOOTH",
"370 346 OFFCURVE",
"342 392 OFFCURVE",
"286 392 CURVE SMOOTH",
"259 392 OFFCURVE",
"234 389 OFFCURVE",
"210 382 CURVE",
"196 379 LINE",
"196 110 LINE",
"226 106 OFFCURVE",
"250 104 OFFCURVE",
"269 104 CURVE SMOOTH"
);
},
{
closed = 1;
nodes = (
"444 512 OFFCURVE",
"506 446 OFFCURVE",
"506 249 CURVE SMOOTH",
"506 52 OFFCURVE",
"440 -12 OFFCURVE",
"279 -12 CURVE SMOOTH",
"257 -12 OFFCURVE",
"233 -10 OFFCURVE",
"208 -6 CURVE SMOOTH",
"196 -4 LINE",
"196 -210 LINE",
"62 -210 LINE",
"62 700 LINE",
"196 700 LINE",
"196 485 LINE",
"239 503 OFFCURVE",
"275 512 OFFCURVE",
"304 512 CURVE SMOOTH"
);
}
);
width = 544;
}
);
leftKerningGroup = b;
rightKerningGroup = b;
unicode = 00FE;
},
{
glyphname = ydieresis;
layers = (
{
layerId = "E174F030-6324-451A-8951-EA6336064495";
name = Bold;
paths = (
{
closed = 1;
nodes = (
"16 500 LINE",
"148 500 LINE",
"239 114 LINE",
"262 114 LINE",
"353 500 LINE",
"485 500 LINE",
"309 -210 LINE",
"178 -210 LINE",
"233 0 LINE",
"139 0 LINE"
);
},
{
closed = 1;
nodes = (
"79 596 LINE",
"79 728 LINE",
"207 728 LINE",
"207 596 LINE"
);
},
{
closed = 1;
nodes = (
"295 596 LINE",
"295 728 LINE",
"423 728 LINE",
"423 596 LINE"
);
}
);
width = 500;
}
);
leftKerningGroup = y;
rightKerningGroup = y;
unicode = 00FF;
},
{
glyphname = Amacron;
layers = (
{
layerId = "E174F030-6324-451A-8951-EA6336064495";
name = Bold;
paths = (
{
closed = 1;
nodes = (
"17 0 LINE",
"170 680 LINE",
"432 680 LINE",
"585 0 LINE",
"447 0 LINE",
"420 123 LINE",
"182 123 LINE",
"155 0 LINE"
);
},
{
closed = 1;
nodes = (
"277 566 LINE",
"208 243 LINE",
"394 243 LINE",
"325 566 LINE"
);
},
{
closed = 1;
nodes = (
"124 782 LINE",
"124 880 LINE",
"471 880 LINE",
"471 782 LINE"
);
}
);
width = 602;
}
);
leftKerningGroup = A;
rightKerningGroup = numbersign;
unicode = 0100;
},
{
glyphname = amacron;
layers = (
{
layerId = "E174F030-6324-451A-8951-EA6336064495";
name = Bold;
paths = (
{
closed = 1;
nodes = (
"445 136 LINE",
"448 104 OFFCURVE",
"453 94 OFFCURVE",
"478 89 CURVE",
"474 -12 LINE",
"406 -12 OFFCURVE",
"372 -5 OFFCURVE",
"331 23 CURVE",
"283 0 OFFCURVE",
"234 -12 OFFCURVE",
"184 -12 CURVE SMOOTH",
"81 -12 OFFCURVE",
"29 43 OFFCURVE",
"29 152 CURVE SMOOTH",
"29 259 OFFCURVE",
"85 297 OFFCURVE",
"204 305 CURVE SMOOTH",
"311 313 LINE",
"311 344 LINE SMOOTH",
"311 385 OFFCURVE",
"293 398 OFFCURVE",
"252 398 CURVE",
"64 390 LINE",
"60 483 LINE",
"131 502 OFFCURVE",
"199 512 OFFCURVE",
"264 512 CURVE SMOOTH",
"392 512 OFFCURVE",
"445 461 OFFCURVE",
"445 344 CURVE SMOOTH"
);
},
{
closed = 1;
nodes = (
"220 212 LINE SMOOTH",
"183 209 OFFCURVE",
"164 189 OFFCURVE",
"164 152 CURVE SMOOTH",
"164 115 OFFCURVE",
"180 97 OFFCURVE",
"213 97 CURVE SMOOTH",
"238 97 OFFCURVE",
"266 101 OFFCURVE",
"296 109 CURVE SMOOTH",
"311 113 LINE",
"311 220 LINE"
);
},
{
closed = 1;
nodes = (
"107 597 LINE",
"107 697 LINE",
"394 697 LINE",
"394 597 LINE"
);
}
);
width = 511;
}
);
leftKerningGroup = a;
rightKerningGroup = a;
unicode = 0101;
},
{
glyphname = Abreve;
layers = (
{
layerId = "E174F030-6324-451A-8951-EA6336064495";
name = Bold;
paths = (
{
closed = 1;
nodes = (
"17 0 LINE",
"170 680 LINE",
"432 680 LINE",
"585 0 LINE",
"447 0 LINE",
"420 123 LINE",
"182 123 LINE",
"155 0 LINE"
);
},
{
closed = 1;
nodes = (
"277 566 LINE",
"208 243 LINE",
"394 243 LINE",
"325 566 LINE"
);
},
{
closed = 1;
nodes = (
"232 910 LINE",
"237 877 OFFCURVE",
"261 853 OFFCURVE",
"298 853 CURVE SMOOTH",
"334 853 OFFCURVE",
"359 877 OFFCURVE",
"363 910 CURVE",
"484 910 LINE",
"473 819 OFFCURVE",
"412 759 OFFCURVE",
"297 759 CURVE SMOOTH",
"182 759 OFFCURVE",
"122 819 OFFCURVE",
"111 910 CURVE"
);
}
);
width = 602;
}
);
leftKerningGroup = A;
rightKerningGroup = numbersign;
unicode = 0102;
},
{
glyphname = abreve;
layers = (
{
layerId = "E174F030-6324-451A-8951-EA6336064495";
name = Bold;
paths = (
{
closed = 1;
nodes = (
"445 154 LINE SMOOTH",
"445 115 OFFCURVE",
"450 107 OFFCURVE",
"477 102 CURVE",
"473 -12 LINE",
"393 -12 OFFCURVE",
"368 -3 OFFCURVE",
"331 22 CURVE",
"308 14 LINE SMOOTH",
"262 -3 OFFCURVE",
"219 -12 OFFCURVE",
"178 -12 CURVE SMOOTH",
"81 -12 OFFCURVE",
"29 49 OFFCURVE",
"29 154 CURVE SMOOTH",
"29 258 OFFCURVE",
"84 298 OFFCURVE",
"203 306 CURVE SMOOTH",
"311 313 LINE",
"311 338 LINE SMOOTH",
"311 365 OFFCURVE",
"290 383 OFFCURVE",
"261 383 CURVE SMOOTH",
"212 383 OFFCURVE",
"147 380 OFFCURVE",
"67 375 CURVE",
"63 489 LINE",
"98 494 LINE SMOOTH",
"169 505 OFFCURVE",
"226 511 OFFCURVE",
"269 511 CURVE SMOOTH",
"386 511 OFFCURVE",
"445 463 OFFCURVE",
"445 339 CURVE SMOOTH"
);
},
{
closed = 1;
nodes = (
"164 121 OFFCURVE",
"178 103 OFFCURVE",
"205 103 CURVE SMOOTH",
"232 103 OFFCURVE",
"268 108 OFFCURVE",
"311 118 CURVE",
"311 211 LINE",
"220 207 LINE SMOOTH",
"183 205 OFFCURVE",
"164 188 OFFCURVE",
"164 156 CURVE SMOOTH"
);
},
{
closed = 1;
nodes = (
"198 748 LINE",
"203 719 OFFCURVE",
"221 704 OFFCURVE",
"254 704 CURVE SMOOTH",
"286 704 OFFCURVE",
"304 719 OFFCURVE",
"308 748 CURVE",
"447 748 LINE",
"436 648 OFFCURVE",
"372 585 OFFCURVE",
"253 585 CURVE SMOOTH",
"134 585 OFFCURVE",
"70 648 OFFCURVE",
"59 748 CURVE"
);
}
);
width = 512;
}
);
leftKerningGroup = a;
rightKerningGroup = a;
unicode = 0103;
},
{
glyphname = Aogonek;
layers = (
{
layerId = "E174F030-6324-451A-8951-EA6336064495";
name = Bold;
paths = (
{
closed = 1;
nodes = (
"567 0 LINE",
"530 -31 OFFCURVE",
"511 -58 OFFCURVE",
"511 -80 CURVE SMOOTH",
"511 -103 OFFCURVE",
"522 -114 OFFCURVE",
"543 -114 CURVE",
"585 -110 LINE",
"597 -205 LINE",
"558 -212 OFFCURVE",
"523 -216 OFFCURVE",
"493 -216 CURVE SMOOTH",
"432 -216 OFFCURVE",
"386 -179 OFFCURVE",
"386 -120 CURVE SMOOTH",
"386 -75 OFFCURVE",
"408 -35 OFFCURVE",
"452 0 CURVE",
"447 0 LINE",
"420 123 LINE",
"182 123 LINE",
"155 0 LINE",
"17 0 LINE",
"170 680 LINE",
"432 680 LINE",
"585 0 LINE"
);
},
{
closed = 1;
nodes = (
"277 566 LINE",
"208 243 LINE",
"394 243 LINE",
"325 566 LINE"
);
}
);
width = 602;
}
);
leftKerningGroup = A;
rightKerningGroup = numbersign;
unicode = 0104;
},
{
glyphname = aogonek;
layers = (
{
layerId = "E174F030-6324-451A-8951-EA6336064495";
name = Bold;
paths = (
{
closed = 1;
nodes = (
"474 -12 LINE",
"436 -11 LINE",
"407 -38 OFFCURVE",
"392 -62 OFFCURVE",
"392 -81 CURVE SMOOTH",
"392 -103 OFFCURVE",
"403 -114 OFFCURVE",
"424 -114 CURVE",
"466 -110 LINE",
"478 -205 LINE",
"439 -212 OFFCURVE",
"404 -216 OFFCURVE",
"374 -216 CURVE SMOOTH",
"313 -216 OFFCURVE",
"267 -177 OFFCURVE",
"267 -124 CURVE SMOOTH",
"267 -71 OFFCURVE",
"301 -24 OFFCURVE",
"328 -4 CURVE SMOOTH",
"348 11 LINE",
"351 10 LINE",
"331 23 LINE",
"283 0 OFFCURVE",
"234 -12 OFFCURVE",
"184 -12 CURVE SMOOTH",
"81 -12 OFFCURVE",
"29 43 OFFCURVE",
"29 152 CURVE SMOOTH",
"29 259 OFFCURVE",
"85 297 OFFCURVE",
"204 305 CURVE SMOOTH",
"311 313 LINE",
"311 344 LINE SMOOTH",
"311 385 OFFCURVE",
"293 398 OFFCURVE",
"252 398 CURVE",
"64 390 LINE",
"60 483 LINE",
"131 502 OFFCURVE",
"199 512 OFFCURVE",
"264 512 CURVE SMOOTH",
"392 512 OFFCURVE",
"445 461 OFFCURVE",
"445 344 CURVE SMOOTH",
"445 136 LINE",
"448 104 OFFCURVE",
"453 94 OFFCURVE",
"478 89 CURVE"
);
},
{
closed = 1;
nodes = (
"220 212 LINE SMOOTH",
"183 209 OFFCURVE",
"164 189 OFFCURVE",
"164 152 CURVE SMOOTH",
"164 115 OFFCURVE",
"180 97 OFFCURVE",
"213 97 CURVE SMOOTH",
"238 97 OFFCURVE",
"266 101 OFFCURVE",
"296 109 CURVE SMOOTH",
"311 113 LINE",
"311 220 LINE"
);
}
);
width = 510;
}
);
leftKerningGroup = a;
rightKerningGroup = a;
unicode = 0105;
},
{
glyphname = Cacute;
layers = (
{
layerId = "E174F030-6324-451A-8951-EA6336064495";
name = Bold;
paths = (
{
closed = 1;
nodes = (
"505 11 LINE",
"434 -4 OFFCURVE",
"371 -12 OFFCURVE",
"314 -12 CURVE SMOOTH",
"201 -12 OFFCURVE",
"137 15 OFFCURVE",
"98 76 CURVE SMOOTH",
"59 137 OFFCURVE",
"47 215 OFFCURVE",
"47 340 CURVE SMOOTH",
"47 603 OFFCURVE",
"108 692 OFFCURVE",
"307 692 CURVE SMOOTH",
"364 692 OFFCURVE",
"431 683 OFFCURVE",
"506 665 CURVE",
"502 555 LINE",
"436 565 OFFCURVE",
"381 570 OFFCURVE",
"338 570 CURVE SMOOTH",
"250 570 OFFCURVE",
"221 551 OFFCURVE",
"203 486 CURVE SMOOTH",
"194 453 OFFCURVE",
"189 398 OFFCURVE",
"189 319 CURVE SMOOTH",
"189 162 OFFCURVE",
"217 110 OFFCURVE",
"327 110 CURVE SMOOTH",
"382 110 OFFCURVE",
"440 115 OFFCURVE",
"502 124 CURVE"
);
},
{
closed = 1;
nodes = (
"147 839 LINE",
"399 945 LINE",
"440 825 LINE",
"180 746 LINE"
);
}
);
width = 543;
}
);
leftKerningGroup = C;
rightKerningGroup = C;
unicode = 0106;
},
{
glyphname = cacute;
layers = (
{
layerId = "E174F030-6324-451A-8951-EA6336064495";
name = Bold;
paths = (
{
closed = 1;
nodes = (
"284 512 OFFCURVE",
"328 507 OFFCURVE",
"382 496 CURVE SMOOTH",
"409 490 LINE",
"405 384 LINE",
"352 389 OFFCURVE",
"313 392 OFFCURVE",
"288 392 CURVE SMOOTH",
"196 392 OFFCURVE",
"174 360 OFFCURVE",
"174 251 CURVE SMOOTH",
"174 142 OFFCURVE",
"196 108 OFFCURVE",
"289 108 CURVE",
"405 116 LINE",
"409 9 LINE",
"338 -5 OFFCURVE",
"283 -12 OFFCURVE",
"246 -12 CURVE SMOOTH",
"98 -12 OFFCURVE",
"38 67 OFFCURVE",
"38 251 CURVE SMOOTH",
"38 435 OFFCURVE",
"101 512 OFFCURVE",
"249 512 CURVE SMOOTH"
);
},
{
closed = 1;
nodes = (
"97 651 LINE",
"349 753 LINE",
"389 638 LINE",
"127 564 LINE"
);
}
);
width = 446;
}
);
leftKerningGroup = c;
rightKerningGroup = c;
unicode = 0107;
},
{
glyphname = Ccircumflex;
layers = (
{
layerId = "E174F030-6324-451A-8951-EA6336064495";
name = Bold;
paths = (
{
closed = 1;
nodes = (
"505 11 LINE",
"434 -4 OFFCURVE",
"371 -12 OFFCURVE",
"314 -12 CURVE SMOOTH",
"201 -12 OFFCURVE",
"137 15 OFFCURVE",
"98 76 CURVE SMOOTH",
"59 137 OFFCURVE",
"47 215 OFFCURVE",
"47 340 CURVE SMOOTH",
"47 603 OFFCURVE",
"108 692 OFFCURVE",
"307 692 CURVE SMOOTH",
"364 692 OFFCURVE",
"431 683 OFFCURVE",
"506 665 CURVE",
"502 555 LINE",
"436 565 OFFCURVE",
"381 570 OFFCURVE",
"338 570 CURVE SMOOTH",
"250 570 OFFCURVE",
"221 551 OFFCURVE",
"203 486 CURVE SMOOTH",
"194 453 OFFCURVE",
"189 398 OFFCURVE",
"189 319 CURVE SMOOTH",
"189 162 OFFCURVE",
"217 110 OFFCURVE",
"327 110 CURVE SMOOTH",
"382 110 OFFCURVE",
"440 115 OFFCURVE",
"502 124 CURVE"
);
},
{
closed = 1;
nodes = (
"107 765 LINE",
"241 914 LINE",
"358 914 LINE",
"492 765 LINE",
"350 765 LINE",
"301 821 LINE",
"249 765 LINE"
);
}
);
width = 543;
}
);
leftKerningGroup = C;
rightKerningGroup = C;
unicode = 0108;
},
{
glyphname = ccircumflex;
layers = (
{
layerId = "E174F030-6324-451A-8951-EA6336064495";
name = Bold;
paths = (
{
closed = 1;
nodes = (
"284 512 OFFCURVE",
"328 507 OFFCURVE",
"382 496 CURVE SMOOTH",
"409 490 LINE",
"405 384 LINE",
"352 389 OFFCURVE",
"313 392 OFFCURVE",
"288 392 CURVE SMOOTH",
"196 392 OFFCURVE",
"174 360 OFFCURVE",
"174 251 CURVE SMOOTH",
"174 142 OFFCURVE",
"196 108 OFFCURVE",
"289 108 CURVE",
"405 116 LINE",
"409 9 LINE",
"338 -5 OFFCURVE",
"283 -12 OFFCURVE",
"246 -12 CURVE SMOOTH",
"98 -12 OFFCURVE",
"38 67 OFFCURVE",
"38 251 CURVE SMOOTH",
"38 435 OFFCURVE",
"101 512 OFFCURVE",
"249 512 CURVE SMOOTH"
);
},
{
closed = 1;
nodes = (
"54 580 LINE",
"180 731 LINE",
"264 731 LINE",
"392 580 LINE",
"269 580 LINE",
"223 647 LINE",
"177 580 LINE"
);
}
);
width = 446;
}
);
leftKerningGroup = c;
rightKerningGroup = c;
unicode = 0109;
},
{
glyphname = Cdotaccent;
layers = (
{
layerId = "E174F030-6324-451A-8951-EA6336064495";
name = Bold;
paths = (
{
closed = 1;
nodes = (
"505 11 LINE",
"434 -4 OFFCURVE",
"371 -12 OFFCURVE",
"314 -12 CURVE SMOOTH",
"201 -12 OFFCURVE",
"137 15 OFFCURVE",
"98 76 CURVE SMOOTH",
"59 137 OFFCURVE",
"47 215 OFFCURVE",
"47 340 CURVE SMOOTH",
"47 603 OFFCURVE",
"108 692 OFFCURVE",
"307 692 CURVE SMOOTH",
"364 692 OFFCURVE",
"431 683 OFFCURVE",
"506 665 CURVE",
"502 555 LINE",
"436 565 OFFCURVE",
"381 570 OFFCURVE",
"338 570 CURVE SMOOTH",
"250 570 OFFCURVE",
"221 551 OFFCURVE",
"203 486 CURVE SMOOTH",
"194 453 OFFCURVE",
"189 398 OFFCURVE",
"189 319 CURVE SMOOTH",
"189 162 OFFCURVE",
"217 110 OFFCURVE",
"327 110 CURVE SMOOTH",
"382 110 OFFCURVE",
"440 115 OFFCURVE",
"502 124 CURVE"
);
},
{
closed = 1;
nodes = (
"219 760 LINE",
"219 895 LINE",
"353 895 LINE",
"353 760 LINE"
);
}
);
width = 543;
}
);
leftKerningGroup = C;
rightKerningGroup = C;
unicode = 010A;
},
{
glyphname = cdotaccent;
layers = (
{
layerId = "E174F030-6324-451A-8951-EA6336064495";
name = Bold;
paths = (
{
closed = 1;
nodes = (
"284 512 OFFCURVE",
"328 507 OFFCURVE",
"382 496 CURVE SMOOTH",
"409 490 LINE",
"405 384 LINE",
"352 389 OFFCURVE",
"313 392 OFFCURVE",
"288 392 CURVE SMOOTH",
"196 392 OFFCURVE",
"174 360 OFFCURVE",
"174 251 CURVE SMOOTH",
"174 142 OFFCURVE",
"196 108 OFFCURVE",
"289 108 CURVE",
"405 116 LINE",
"409 9 LINE",
"338 -5 OFFCURVE",
"283 -12 OFFCURVE",
"246 -12 CURVE SMOOTH",
"98 -12 OFFCURVE",
"38 67 OFFCURVE",
"38 251 CURVE SMOOTH",
"38 435 OFFCURVE",
"101 512 OFFCURVE",
"249 512 CURVE SMOOTH"
);
},
{
closed = 1;
nodes = (
"189 556 LINE",
"189 691 LINE",
"323 691 LINE",
"323 556 LINE"
);
}
);
width = 446;
}
);
leftKerningGroup = c;
rightKerningGroup = c;
unicode = 010B;
},
{
glyphname = Ccaron;
layers = (
{
layerId = "E174F030-6324-451A-8951-EA6336064495";
name = Bold;
paths = (
{
closed = 1;
nodes = (
"505 11 LINE",
"434 -4 OFFCURVE",
"371 -12 OFFCURVE",
"314 -12 CURVE SMOOTH",
"201 -12 OFFCURVE",
"137 15 OFFCURVE",
"98 76 CURVE SMOOTH",
"59 137 OFFCURVE",
"47 215 OFFCURVE",
"47 340 CURVE SMOOTH",
"47 603 OFFCURVE",
"108 692 OFFCURVE",
"307 692 CURVE SMOOTH",
"364 692 OFFCURVE",
"431 683 OFFCURVE",
"506 665 CURVE",
"502 555 LINE",
"436 565 OFFCURVE",
"381 570 OFFCURVE",
"338 570 CURVE SMOOTH",
"250 570 OFFCURVE",
"221 551 OFFCURVE",
"203 486 CURVE SMOOTH",
"194 453 OFFCURVE",
"189 398 OFFCURVE",
"189 319 CURVE SMOOTH",
"189 162 OFFCURVE",
"217 110 OFFCURVE",
"327 110 CURVE SMOOTH",
"382 110 OFFCURVE",
"440 115 OFFCURVE",
"502 124 CURVE"
);
},
{
closed = 1;
nodes = (
"250 765 LINE",
"116 914 LINE",
"258 914 LINE",
"310 858 LINE",
"359 914 LINE",
"501 914 LINE",
"367 765 LINE"
);
}
);
width = 543;
}
);
leftKerningGroup = C;
rightKerningGroup = C;
unicode = 010C;
},
{
glyphname = ccaron;
layers = (
{
layerId = "E174F030-6324-451A-8951-EA6336064495";
name = Bold;
paths = (
{
closed = 1;
nodes = (
"284 512 OFFCURVE",
"328 507 OFFCURVE",
"382 496 CURVE SMOOTH",
"409 490 LINE",
"405 384 LINE",
"352 389 OFFCURVE",
"313 392 OFFCURVE",
"288 392 CURVE SMOOTH",
"196 392 OFFCURVE",
"174 360 OFFCURVE",
"174 251 CURVE SMOOTH",
"174 142 OFFCURVE",
"196 108 OFFCURVE",
"289 108 CURVE",
"405 116 LINE",
"409 9 LINE",
"338 -5 OFFCURVE",
"283 -12 OFFCURVE",
"246 -12 CURVE SMOOTH",
"98 -12 OFFCURVE",
"38 67 OFFCURVE",
"38 251 CURVE SMOOTH",
"38 435 OFFCURVE",
"101 512 OFFCURVE",
"249 512 CURVE SMOOTH"
);
},
{
closed = 1;
nodes = (
"199 580 LINE",
"73 731 LINE",
"196 731 LINE",
"242 664 LINE",
"288 731 LINE",
"411 731 LINE",
"283 580 LINE"
);
}
);
width = 446;
}
);
leftKerningGroup = c;
rightKerningGroup = c;
unicode = 010D;
},
{
glyphname = Dcaron;
layers = (
{
layerId = "E174F030-6324-451A-8951-EA6336064495";
name = Bold;
paths = (
{
closed = 1;
nodes = (
"74 0 LINE",
"74 680 LINE",
"303 680 LINE SMOOTH",
"420 680 OFFCURVE",
"495 657 OFFCURVE",
"537 601 CURVE SMOOTH",
"579 544 OFFCURVE",
"592 474 OFFCURVE",
"592 351 CURVE SMOOTH",
"592 228 OFFCURVE",
"580 154 OFFCURVE",
"540 91 CURVE SMOOTH",
"499 27 OFFCURVE",
"423 0 OFFCURVE",
"303 0 CURVE SMOOTH"
);
},
{
closed = 1;
nodes = (
"449 291 OFFCURVE",
"450 321 OFFCURVE",
"450 359 CURVE SMOOTH",
"450 434 OFFCURVE",
"447 474 OFFCURVE",
"427 511 CURVE SMOOTH",
"407 548 OFFCURVE",
"370 560 OFFCURVE",
"303 560 CURVE SMOOTH",
"212 560 LINE",
"212 120 LINE",
"303 120 LINE SMOOTH",
"403 120 OFFCURVE",
"439 162 OFFCURVE",
"448 270 CURVE"
);
},
{
closed = 1;
nodes = (
"246 765 LINE",
"112 914 LINE",
"254 914 LINE",
"306 858 LINE",
"355 914 LINE",
"497 914 LINE",
"363 765 LINE"
);
}
);
width = 638;
}
);
leftKerningGroup = B;
rightKerningGroup = D;
unicode = 010E;
},
{
glyphname = dcaron;
layers = (
{
layerId = "E174F030-6324-451A-8951-EA6336064495";
name = Bold;
paths = (
{
closed = 1;
nodes = (
"590 678 LINE",
"720 678 LINE",
"665 444 LINE",
"544 444 LINE"
);
},
{
closed = 1;
nodes = (
"487 700 LINE",
"487 0 LINE",
"354 0 LINE",
"354 21 LINE",
"307 -1 OFFCURVE",
"267 -12 OFFCURVE",
"233 -12 CURVE SMOOTH",
"88 -12 OFFCURVE",
"38 69 OFFCURVE",
"38 251 CURVE SMOOTH",
"38 433 OFFCURVE",
"106 512 OFFCURVE",
"245 512 CURVE SMOOTH",
"266 512 OFFCURVE",
"296 509 OFFCURVE",
"334 502 CURVE SMOOTH",
"353 498 LINE",
"353 700 LINE"
);
},
{
closed = 1;
nodes = (
"353 123 LINE",
"353 386 LINE",
"316 393 OFFCURVE",
"284 396 OFFCURVE",
"255 396 CURVE SMOOTH",
"201 396 OFFCURVE",
"174 348 OFFCURVE",
"174 252 CURVE SMOOTH",
"174 148 OFFCURVE",
"196 108 OFFCURVE",
"252 108 CURVE SMOOTH",
"279 108 OFFCURVE",
"308 112 OFFCURVE",
"339 120 CURVE"
);
}
);
width = 664;
}
);
leftKerningGroup = d;
rightKerningGroup = dcaron;
unicode = 010F;
},
{
glyphname = Dcroat;
layers = (
{
layerId = "E174F030-6324-451A-8951-EA6336064495";
name = Bold;
paths = (
{
closed = 1;
nodes = (
"25 277 LINE",
"25 409 LINE",
"79 409 LINE",
"79 690 LINE",
"306 690 LINE SMOOTH",
"423 690 OFFCURVE",
"498 667 OFFCURVE",
"540 609 CURVE SMOOTH",
"582 551 OFFCURVE",
"595 479 OFFCURVE",
"595 356 CURVE SMOOTH",
"595 232 OFFCURVE",
"583 157 OFFCURVE",
"543 93 CURVE SMOOTH",
"502 28 OFFCURVE",
"426 0 OFFCURVE",
"306 0 CURVE SMOOTH",
"79 0 LINE",
"79 277 LINE"
);
},
{
closed = 1;
nodes = (
"453 411 OFFCURVE",
"452 439 OFFCURVE",
"445 472 CURVE SMOOTH",
"438 505 OFFCURVE",
"425 522 OFFCURVE",
"404 538 CURVE",
"383 552 OFFCURVE",
"351 559 OFFCURVE",
"306 559 CURVE SMOOTH",
"215 559 LINE",
"215 409 LINE",
"345 409 LINE",
"345 277 LINE",
"215 277 LINE",
"215 131 LINE",
"306 131 LINE SMOOTH",
"406 131 OFFCURVE",
"453 162 OFFCURVE",
"453 354 CURVE SMOOTH"
);
}
);
width = 642;
}
);
leftKerningGroup = B;
rightKerningGroup = D;
unicode = 0110;
},
{
glyphname = dcroat;
layers = (
{
layerId = "E174F030-6324-451A-8951-EA6336064495";
name = Bold;
paths = (
{
closed = 1;
nodes = (
"129 622 LINE",
"129 738 LINE",
"456 738 LINE",
"456 700 LINE",
"487 700 LINE",
"487 0 LINE",
"354 0 LINE",
"354 21 LINE",
"307 -1 OFFCURVE",
"267 -12 OFFCURVE",
"233 -12 CURVE SMOOTH",
"88 -12 OFFCURVE",
"38 69 OFFCURVE",
"38 251 CURVE SMOOTH",
"38 433 OFFCURVE",
"106 512 OFFCURVE",
"245 512 CURVE SMOOTH",
"266 512 OFFCURVE",
"296 509 OFFCURVE",
"334 502 CURVE SMOOTH",
"353 498 LINE",
"353 622 LINE"
);
},
{
closed = 1;
nodes = (
"353 123 LINE",
"353 386 LINE",
"316 393 OFFCURVE",
"284 396 OFFCURVE",
"255 396 CURVE SMOOTH",
"201 396 OFFCURVE",
"174 348 OFFCURVE",
"174 252 CURVE SMOOTH",
"174 148 OFFCURVE",
"196 108 OFFCURVE",
"252 108 CURVE SMOOTH",
"279 108 OFFCURVE",
"308 112 OFFCURVE",
"339 120 CURVE"
);
}
);
width = 549;
}
);
leftKerningGroup = d;
rightKerningGroup = numbersign;
unicode = 0111;
},
{
glyphname = Emacron;
layers = (
{
layerId = "E174F030-6324-451A-8951-EA6336064495";
name = Bold;
paths = (
{
closed = 1;
nodes = (
"74 0 LINE",
"74 680 LINE",
"514 680 LINE",
"514 560 LINE",
"212 560 LINE",
"212 401 LINE",
"454 401 LINE",
"454 283 LINE",
"212 283 LINE",
"212 120 LINE",
"514 120 LINE",
"514 0 LINE"
);
},
{
closed = 1;
nodes = (
"116 782 LINE",
"116 880 LINE",
"463 880 LINE",
"463 782 LINE"
);
}
);
width = 554;
}
);
leftKerningGroup = B;
rightKerningGroup = E;
unicode = 0112;
},
{
glyphname = emacron;
layers = (
{
layerId = "E174F030-6324-451A-8951-EA6336064495";
name = Bold;
paths = (
{
closed = 1;
nodes = (
"172 193 LINE",
"173 132 OFFCURVE",
"205 106 OFFCURVE",
"264 106 CURVE SMOOTH",
"326 106 OFFCURVE",
"381 108 OFFCURVE",
"430 112 CURVE SMOOTH",
"458 115 LINE",
"460 16 LINE",
"383 -3 OFFCURVE",
"314 -12 OFFCURVE",
"252 -12 CURVE SMOOTH",
"101 -12 OFFCURVE",
"37 63 OFFCURVE",
"37 243 CURVE SMOOTH",
"37 422 OFFCURVE",
"111 512 OFFCURVE",
"258 512 CURVE SMOOTH",
"403 512 OFFCURVE",
"476 437 OFFCURVE",
"476 286 CURVE",
"466 193 LINE"
);
},
{
closed = 1;
nodes = (
"344 295 LINE",
"344 375 OFFCURVE",
"322 402 OFFCURVE",
"259 402 CURVE SMOOTH",
"195 402 OFFCURVE",
"172 372 OFFCURVE",
"171 295 CURVE"
);
},
{
closed = 1;
nodes = (
"113 597 LINE",
"113 697 LINE",
"400 697 LINE",
"400 597 LINE"
);
}
);
width = 510;
}
);
leftKerningGroup = c;
rightKerningGroup = e;
unicode = 0113;
},
{
glyphname = Ebreve;
layers = (
{
layerId = "E174F030-6324-451A-8951-EA6336064495";
name = Bold;
paths = (
{
closed = 1;
nodes = (
"74 0 LINE",
"74 680 LINE",
"514 680 LINE",
"514 560 LINE",
"212 560 LINE",
"212 401 LINE",
"454 401 LINE",
"454 283 LINE",
"212 283 LINE",
"212 120 LINE",
"514 120 LINE",
"514 0 LINE"
);
},
{
closed = 1;
nodes = (
"235 910 LINE",
"240 877 OFFCURVE",
"264 853 OFFCURVE",
"301 853 CURVE SMOOTH",
"337 853 OFFCURVE",
"362 877 OFFCURVE",
"366 910 CURVE",
"487 910 LINE",
"476 819 OFFCURVE",
"415 759 OFFCURVE",
"300 759 CURVE SMOOTH",
"185 759 OFFCURVE",
"125 819 OFFCURVE",
"114 910 CURVE"
);
}
);
width = 554;
}
);
leftKerningGroup = B;
rightKerningGroup = E;
unicode = 0114;
},
{
glyphname = ebreve;
layers = (
{
layerId = "E174F030-6324-451A-8951-EA6336064495";
name = Bold;
paths = (
{
closed = 1;
nodes = (
"172 193 LINE",
"173 132 OFFCURVE",
"205 106 OFFCURVE",
"264 106 CURVE SMOOTH",
"326 106 OFFCURVE",
"381 108 OFFCURVE",
"430 112 CURVE SMOOTH",
"458 115 LINE",
"460 16 LINE",
"383 -3 OFFCURVE",
"314 -12 OFFCURVE",
"252 -12 CURVE SMOOTH",
"101 -12 OFFCURVE",
"37 63 OFFCURVE",
"37 243 CURVE SMOOTH",
"37 422 OFFCURVE",
"111 512 OFFCURVE",
"258 512 CURVE SMOOTH",
"403 512 OFFCURVE",
"476 437 OFFCURVE",
"476 286 CURVE",
"466 193 LINE"
);
},
{
closed = 1;
nodes = (
"344 295 LINE",
"344 375 OFFCURVE",
"322 402 OFFCURVE",
"259 402 CURVE SMOOTH",
"195 402 OFFCURVE",
"172 372 OFFCURVE",
"171 295 CURVE"
);
},
{
closed = 1;
nodes = (
"295 664 OFFCURVE",
"316 686 OFFCURVE",
"321 730 CURVE",
"422 730 LINE",
"411 643 OFFCURVE",
"353 573 OFFCURVE",
"258 573 CURVE SMOOTH",
"163 573 OFFCURVE",
"105 643 OFFCURVE",
"94 730 CURVE",
"195 730 LINE",
"200 689 OFFCURVE",
"223 664 OFFCURVE",
"258 664 CURVE SMOOTH"
);
}
);
width = 510;
}
);
leftKerningGroup = c;
rightKerningGroup = e;
unicode = 0115;
},
{
glyphname = Edotaccent;
layers = (
{
layerId = "E174F030-6324-451A-8951-EA6336064495";
name = Bold;
paths = (
{
closed = 1;
nodes = (
"74 0 LINE",
"74 680 LINE",
"514 680 LINE",
"514 560 LINE",
"212 560 LINE",
"212 401 LINE",
"454 401 LINE",
"454 283 LINE",
"212 283 LINE",
"212 120 LINE",
"514 120 LINE",
"514 0 LINE"
);
},
{
closed = 1;
nodes = (
"233 767 LINE",
"233 902 LINE",
"367 902 LINE",
"367 767 LINE"
);
}
);
width = 554;
}
);
leftKerningGroup = B;
rightKerningGroup = E;
unicode = 0116;
},
{
glyphname = edotaccent;
layers = (
{
layerId = "E174F030-6324-451A-8951-EA6336064495";
name = Bold;
paths = (
{
closed = 1;
nodes = (
"172 193 LINE",
"173 132 OFFCURVE",
"205 106 OFFCURVE",
"264 106 CURVE SMOOTH",
"326 106 OFFCURVE",
"381 108 OFFCURVE",
"430 112 CURVE SMOOTH",
"458 115 LINE",
"460 16 LINE",
"383 -3 OFFCURVE",
"314 -12 OFFCURVE",
"252 -12 CURVE SMOOTH",
"101 -12 OFFCURVE",
"37 63 OFFCURVE",
"37 243 CURVE SMOOTH",
"37 422 OFFCURVE",
"111 512 OFFCURVE",
"258 512 CURVE SMOOTH",
"403 512 OFFCURVE",
"476 437 OFFCURVE",
"476 286 CURVE",
"466 193 LINE"
);
},
{
closed = 1;
nodes = (
"344 295 LINE",
"344 375 OFFCURVE",
"322 402 OFFCURVE",
"259 402 CURVE SMOOTH",
"195 402 OFFCURVE",
"172 372 OFFCURVE",
"171 295 CURVE"
);
},
{
closed = 1;
nodes = (
"190 556 LINE",
"190 691 LINE",
"324 691 LINE",
"324 556 LINE"
);
}
);
width = 510;
}
);
leftKerningGroup = c;
rightKerningGroup = e;
unicode = 0117;
},
{
glyphname = Eogonek;
layers = (
{
layerId = "E174F030-6324-451A-8951-EA6336064495";
name = Bold;
paths = (
{
closed = 1;
nodes = (
"74 0 LINE",
"74 680 LINE",
"514 680 LINE",
"514 560 LINE",
"212 560 LINE",
"212 401 LINE",
"454 401 LINE",
"454 283 LINE",
"212 283 LINE",
"212 120 LINE",
"514 120 LINE",
"514 0 LINE",
"486 0 LINE",
"449 -31 OFFCURVE",
"430 -58 OFFCURVE",
"430 -80 CURVE SMOOTH",
"430 -103 OFFCURVE",
"441 -114 OFFCURVE",
"462 -114 CURVE",
"504 -110 LINE",
"516 -205 LINE",
"477 -212 OFFCURVE",
"442 -216 OFFCURVE",
"412 -216 CURVE SMOOTH",
"351 -216 OFFCURVE",
"305 -179 OFFCURVE",
"305 -120 CURVE SMOOTH",
"305 -75 OFFCURVE",
"327 -35 OFFCURVE",
"371 0 CURVE"
);
}
);
width = 554;
}
);
leftKerningGroup = B;
rightKerningGroup = E;
unicode = 0118;
},
{
glyphname = eogonek;
layers = (
{
layerId = "E174F030-6324-451A-8951-EA6336064495";
name = Bold;
paths = (
{
closed = 1;
nodes = (
"407 1 LINE",
"368 -30 OFFCURVE",
"349 -57 OFFCURVE",
"349 -80 CURVE SMOOTH",
"349 -103 OFFCURVE",
"360 -114 OFFCURVE",
"381 -114 CURVE",
"423 -110 LINE",
"435 -205 LINE",
"396 -212 OFFCURVE",
"361 -216 OFFCURVE",
"331 -216 CURVE SMOOTH",
"270 -216 OFFCURVE",
"224 -179 OFFCURVE",
"224 -120 CURVE SMOOTH",
"224 -81 OFFCURVE",
"241 -44 OFFCURVE",
"276 -11 CURVE",
"271 -12 OFFCURVE",
"263 -12 OFFCURVE",
"252 -12 CURVE SMOOTH",
"101 -12 OFFCURVE",
"37 63 OFFCURVE",
"37 243 CURVE SMOOTH",
"37 422 OFFCURVE",
"111 512 OFFCURVE",
"258 512 CURVE SMOOTH",
"403 512 OFFCURVE",
"476 437 OFFCURVE",
"476 286 CURVE",
"466 193 LINE",
"172 193 LINE",
"173 132 OFFCURVE",
"205 106 OFFCURVE",
"264 106 CURVE SMOOTH",
"326 106 OFFCURVE",
"381 108 OFFCURVE",
"430 112 CURVE SMOOTH",
"458 115 LINE",
"460 16 LINE",
"440 11 OFFCURVE",
"418 7 OFFCURVE",
"393 2 CURVE"
);
},
{
closed = 1;
nodes = (
"344 295 LINE",
"344 375 OFFCURVE",
"322 402 OFFCURVE",
"259 402 CURVE SMOOTH",
"195 402 OFFCURVE",
"172 372 OFFCURVE",
"171 295 CURVE"
);
}
);
width = 511;
}
);
leftKerningGroup = c;
rightKerningGroup = e;
unicode = 0119;
},
{
glyphname = Ecaron;
layers = (
{
layerId = "E174F030-6324-451A-8951-EA6336064495";
name = Bold;
paths = (
{
closed = 1;
nodes = (
"74 0 LINE",
"74 680 LINE",
"514 680 LINE",
"514 560 LINE",
"212 560 LINE",
"212 401 LINE",
"454 401 LINE",
"454 283 LINE",
"212 283 LINE",
"212 120 LINE",
"514 120 LINE",
"514 0 LINE"
);
},
{
closed = 1;
nodes = (
"221 765 LINE",
"87 914 LINE",
"229 914 LINE",
"281 858 LINE",
"330 914 LINE",
"472 914 LINE",
"338 765 LINE"
);
}
);
width = 554;
}
);
leftKerningGroup = B;
rightKerningGroup = E;
unicode = 011A;
},
{
glyphname = ecaron;
layers = (
{
layerId = "E174F030-6324-451A-8951-EA6336064495";
name = Bold;
paths = (
{
closed = 1;
nodes = (
"172 193 LINE",
"173 132 OFFCURVE",
"205 106 OFFCURVE",
"264 106 CURVE SMOOTH",
"326 106 OFFCURVE",
"381 108 OFFCURVE",
"430 112 CURVE SMOOTH",
"458 115 LINE",
"460 16 LINE",
"383 -3 OFFCURVE",
"314 -12 OFFCURVE",
"252 -12 CURVE SMOOTH",
"101 -12 OFFCURVE",
"37 63 OFFCURVE",
"37 243 CURVE SMOOTH",
"37 422 OFFCURVE",
"111 512 OFFCURVE",
"258 512 CURVE SMOOTH",
"403 512 OFFCURVE",
"476 437 OFFCURVE",
"476 286 CURVE",
"466 193 LINE"
);
},
{
closed = 1;
nodes = (
"344 295 LINE",
"344 375 OFFCURVE",
"322 402 OFFCURVE",
"259 402 CURVE SMOOTH",
"195 402 OFFCURVE",
"172 372 OFFCURVE",
"171 295 CURVE"
);
},
{
closed = 1;
nodes = (
"211 580 LINE",
"85 731 LINE",
"208 731 LINE",
"254 664 LINE",
"300 731 LINE",
"423 731 LINE",
"295 580 LINE"
);
}
);
width = 510;
}
);
leftKerningGroup = c;
rightKerningGroup = e;
unicode = 011B;
},
{
glyphname = Gcircumflex;
layers = (
{
layerId = "E174F030-6324-451A-8951-EA6336064495";
name = Bold;
paths = (
{
closed = 1;
nodes = (
"357 244 LINE",
"357 364 LINE",
"555 364 LINE",
"555 11 LINE",
"460 -4 OFFCURVE",
"382 -12 OFFCURVE",
"323 -12 CURVE SMOOTH",
"111 -12 OFFCURVE",
"45 96 OFFCURVE",
"45 343 CURVE SMOOTH",
"45 590 OFFCURVE",
"119 692 OFFCURVE",
"318 692 CURVE SMOOTH",
"380 692 OFFCURVE",
"447 685 OFFCURVE",
"519 671 CURVE SMOOTH",
"555 664 LINE",
"551 557 LINE",
"471 566 OFFCURVE",
"406 570 OFFCURVE",
"355 570 CURVE SMOOTH",
"253 570 OFFCURVE",
"221 550 OFFCURVE",
"202 486 CURVE SMOOTH",
"192 453 OFFCURVE",
"187 398 OFFCURVE",
"187 320 CURVE SMOOTH",
"187 163 OFFCURVE",
"215 108 OFFCURVE",
"336 108 CURVE",
"419 112 LINE",
"419 244 LINE"
);
},
{
closed = 1;
nodes = (
"136 765 LINE",
"270 914 LINE",
"387 914 LINE",
"521 765 LINE",
"379 765 LINE",
"330 821 LINE",
"278 765 LINE"
);
}
);
width = 611;
}
);
leftKerningGroup = G;
rightKerningGroup = G;
unicode = 011C;
},
{
glyphname = gcircumflex;
layers = (
{
layerId = "E174F030-6324-451A-8951-EA6336064495";
name = Bold;
paths = (
{
closed = 1;
nodes = (
"515 -176 OFFCURVE",
"421 -230 OFFCURVE",
"271 -230 CURVE SMOOTH",
"121 -230 OFFCURVE",
"37 -196 OFFCURVE",
"37 -91 CURVE SMOOTH",
"37 -49 OFFCURVE",
"61 -9 OFFCURVE",
"109 28 CURVE",
"84 45 OFFCURVE",
"72 70 OFFCURVE",
"72 104 CURVE SMOOTH",
"72 117 OFFCURVE",
"82 139 OFFCURVE",
"102 170 CURVE SMOOTH",
"111 184 LINE",
"66 217 OFFCURVE",
"43 265 OFFCURVE",
"43 329 CURVE SMOOTH",
"43 456 OFFCURVE",
"126 510 OFFCURVE",
"253 510 CURVE SMOOTH",
"282 510 OFFCURVE",
"310 507 OFFCURVE",
"338 500 CURVE",
"354 497 LINE",
"515 502 LINE",
"515 395 LINE",
"440 401 LINE",
"455 378 OFFCURVE",
"462 356 OFFCURVE",
"462 333 CURVE SMOOTH",
"462 200 OFFCURVE",
"396 157 OFFCURVE",
"251 157 CURVE SMOOTH",
"236 157 OFFCURVE",
"222 158 OFFCURVE",
"210 161 CURVE",
"203 144 OFFCURVE",
"200 130 OFFCURVE",
"200 119 CURVE SMOOTH",
"200 108 OFFCURVE",
"206 100 OFFCURVE",
"217 96 CURVE SMOOTH",
"228 92 OFFCURVE",
"255 90 OFFCURVE",
"297 89 CURVE SMOOTH",
"465 88 OFFCURVE",
"515 52 OFFCURVE",
"515 -62 CURVE SMOOTH"
);
},
{
closed = 1;
nodes = (
"169 -106 OFFCURVE",
"204 -120 OFFCURVE",
"275 -120 CURVE SMOOTH",
"345 -120 OFFCURVE",
"380 -103 OFFCURVE",
"380 -70 CURVE SMOOTH",
"380 -52 OFFCURVE",
"374 -40 OFFCURVE",
"362 -35 CURVE SMOOTH",
"350 -30 OFFCURVE",
"325 -28 OFFCURVE",
"286 -27 CURVE",
"196 -20 LINE",
"178 -38 OFFCURVE",
"169 -57 OFFCURVE",
"169 -77 CURVE SMOOTH"
);
},
{
closed = 1;
nodes = (
"177 284 OFFCURVE",
"203 259 OFFCURVE",
"254 259 CURVE SMOOTH",
"305 259 OFFCURVE",
"330 284 OFFCURVE",
"330 333 CURVE SMOOTH",
"330 382 OFFCURVE",
"305 406 OFFCURVE",
"254 406 CURVE SMOOTH",
"203 406 OFFCURVE",
"177 382 OFFCURVE",
"177 333 CURVE SMOOTH"
);
},
{
closed = 1;
nodes = (
"103 580 LINE",
"229 731 LINE",
"313 731 LINE",
"441 580 LINE",
"318 580 LINE",
"272 647 LINE",
"226 580 LINE"
);
}
);
width = 534;
}
);
leftKerningGroup = g;
rightKerningGroup = g;
unicode = 011D;
},
{
glyphname = Gbreve;
layers = (
{
layerId = "E174F030-6324-451A-8951-EA6336064495";
name = Bold;
paths = (
{
closed = 1;
nodes = (
"357 244 LINE",
"357 364 LINE",
"555 364 LINE",
"555 11 LINE",
"460 -4 OFFCURVE",
"382 -12 OFFCURVE",
"323 -12 CURVE SMOOTH",
"111 -12 OFFCURVE",
"45 96 OFFCURVE",
"45 343 CURVE SMOOTH",
"45 590 OFFCURVE",
"119 692 OFFCURVE",
"318 692 CURVE SMOOTH",
"380 692 OFFCURVE",
"447 685 OFFCURVE",
"519 671 CURVE SMOOTH",
"555 664 LINE",
"551 557 LINE",
"471 566 OFFCURVE",
"406 570 OFFCURVE",
"355 570 CURVE SMOOTH",
"253 570 OFFCURVE",
"221 550 OFFCURVE",
"202 486 CURVE SMOOTH",
"192 453 OFFCURVE",
"187 398 OFFCURVE",
"187 320 CURVE SMOOTH",
"187 163 OFFCURVE",
"215 108 OFFCURVE",
"336 108 CURVE",
"419 112 LINE",
"419 244 LINE"
);
},
{
closed = 1;
nodes = (
"257 910 LINE",
"262 877 OFFCURVE",
"286 853 OFFCURVE",
"323 853 CURVE SMOOTH",
"359 853 OFFCURVE",
"384 877 OFFCURVE",
"388 910 CURVE",
"509 910 LINE",
"498 819 OFFCURVE",
"437 759 OFFCURVE",
"322 759 CURVE SMOOTH",
"207 759 OFFCURVE",
"147 819 OFFCURVE",
"136 910 CURVE"
);
}
);
width = 611;
}
);
leftKerningGroup = G;
rightKerningGroup = G;
unicode = 011E;
},
{
glyphname = gbreve;
layers = (
{
layerId = "E174F030-6324-451A-8951-EA6336064495";
name = Bold;
paths = (
{
closed = 1;
nodes = (
"515 -176 OFFCURVE",
"421 -230 OFFCURVE",
"271 -230 CURVE SMOOTH",
"121 -230 OFFCURVE",
"37 -196 OFFCURVE",
"37 -91 CURVE SMOOTH",
"37 -49 OFFCURVE",
"61 -9 OFFCURVE",
"109 28 CURVE",
"84 45 OFFCURVE",
"72 70 OFFCURVE",
"72 104 CURVE SMOOTH",
"72 117 OFFCURVE",
"82 139 OFFCURVE",
"102 170 CURVE SMOOTH",
"111 184 LINE",
"66 217 OFFCURVE",
"43 265 OFFCURVE",
"43 329 CURVE SMOOTH",
"43 456 OFFCURVE",
"126 510 OFFCURVE",
"253 510 CURVE SMOOTH",
"282 510 OFFCURVE",
"310 507 OFFCURVE",
"338 500 CURVE",
"354 497 LINE",
"515 502 LINE",
"515 395 LINE",
"440 401 LINE",
"455 378 OFFCURVE",
"462 356 OFFCURVE",
"462 333 CURVE SMOOTH",
"462 200 OFFCURVE",
"396 157 OFFCURVE",
"251 157 CURVE SMOOTH",
"236 157 OFFCURVE",
"222 158 OFFCURVE",
"210 161 CURVE",
"203 144 OFFCURVE",
"200 130 OFFCURVE",
"200 119 CURVE SMOOTH",
"200 108 OFFCURVE",
"206 100 OFFCURVE",
"217 96 CURVE SMOOTH",
"228 92 OFFCURVE",
"255 90 OFFCURVE",
"297 89 CURVE SMOOTH",
"465 88 OFFCURVE",
"515 52 OFFCURVE",
"515 -62 CURVE SMOOTH"
);
},
{
closed = 1;
nodes = (
"169 -106 OFFCURVE",
"204 -120 OFFCURVE",
"275 -120 CURVE SMOOTH",
"345 -120 OFFCURVE",
"380 -103 OFFCURVE",
"380 -70 CURVE SMOOTH",
"380 -52 OFFCURVE",
"374 -40 OFFCURVE",
"362 -35 CURVE SMOOTH",
"350 -30 OFFCURVE",
"325 -28 OFFCURVE",
"286 -27 CURVE",
"196 -20 LINE",
"178 -38 OFFCURVE",
"169 -57 OFFCURVE",
"169 -77 CURVE SMOOTH"
);
},
{
closed = 1;
nodes = (
"177 284 OFFCURVE",
"203 259 OFFCURVE",
"254 259 CURVE SMOOTH",
"305 259 OFFCURVE",
"330 284 OFFCURVE",
"330 333 CURVE SMOOTH",
"330 382 OFFCURVE",
"305 406 OFFCURVE",
"254 406 CURVE SMOOTH",
"203 406 OFFCURVE",
"177 382 OFFCURVE",
"177 333 CURVE SMOOTH"
);
},
{
closed = 1;
nodes = (
"308 664 OFFCURVE",
"329 686 OFFCURVE",
"334 730 CURVE",
"435 730 LINE",
"424 643 OFFCURVE",
"366 573 OFFCURVE",
"271 573 CURVE SMOOTH",
"176 573 OFFCURVE",
"118 643 OFFCURVE",
"107 730 CURVE",
"208 730 LINE",
"213 689 OFFCURVE",
"236 664 OFFCURVE",
"271 664 CURVE SMOOTH"
);
}
);
width = 534;
}
);
leftKerningGroup = g;
rightKerningGroup = g;
unicode = 011F;
},
{
glyphname = Gdotaccent;
layers = (
{
layerId = "E174F030-6324-451A-8951-EA6336064495";
name = Bold;
paths = (
{
closed = 1;
nodes = (
"357 244 LINE",
"357 364 LINE",
"555 364 LINE",
"555 11 LINE",
"460 -4 OFFCURVE",
"382 -12 OFFCURVE",
"323 -12 CURVE SMOOTH",
"111 -12 OFFCURVE",
"45 96 OFFCURVE",
"45 343 CURVE SMOOTH",
"45 590 OFFCURVE",
"119 692 OFFCURVE",
"318 692 CURVE SMOOTH",
"380 692 OFFCURVE",
"447 685 OFFCURVE",
"519 671 CURVE SMOOTH",
"555 664 LINE",
"551 557 LINE",
"471 566 OFFCURVE",
"406 570 OFFCURVE",
"355 570 CURVE SMOOTH",
"253 570 OFFCURVE",
"221 550 OFFCURVE",
"202 486 CURVE SMOOTH",
"192 453 OFFCURVE",
"187 398 OFFCURVE",
"187 320 CURVE SMOOTH",
"187 163 OFFCURVE",
"215 108 OFFCURVE",
"336 108 CURVE",
"419 112 LINE",
"419 244 LINE"
);
},
{
closed = 1;
nodes = (
"245 767 LINE",
"245 902 LINE",
"379 902 LINE",
"379 767 LINE"
);
}
);
width = 611;
}
);
leftKerningGroup = G;
rightKerningGroup = G;
unicode = 0120;
},
{
glyphname = gdotaccent;
layers = (
{
layerId = "E174F030-6324-451A-8951-EA6336064495";
name = Bold;
paths = (
{
closed = 1;
nodes = (
"515 -176 OFFCURVE",
"421 -230 OFFCURVE",
"271 -230 CURVE SMOOTH",
"121 -230 OFFCURVE",
"37 -196 OFFCURVE",
"37 -91 CURVE SMOOTH",
"37 -49 OFFCURVE",
"61 -9 OFFCURVE",
"109 28 CURVE",
"84 45 OFFCURVE",
"72 70 OFFCURVE",
"72 104 CURVE SMOOTH",
"72 117 OFFCURVE",
"82 139 OFFCURVE",
"102 170 CURVE SMOOTH",
"111 184 LINE",
"66 217 OFFCURVE",
"43 265 OFFCURVE",
"43 329 CURVE SMOOTH",
"43 456 OFFCURVE",
"126 510 OFFCURVE",
"253 510 CURVE SMOOTH",
"282 510 OFFCURVE",
"310 507 OFFCURVE",
"338 500 CURVE",
"354 497 LINE",
"515 502 LINE",
"515 395 LINE",
"440 401 LINE",
"455 378 OFFCURVE",
"462 356 OFFCURVE",
"462 333 CURVE SMOOTH",
"462 200 OFFCURVE",
"396 157 OFFCURVE",
"251 157 CURVE SMOOTH",
"236 157 OFFCURVE",
"222 158 OFFCURVE",
"210 161 CURVE",
"203 144 OFFCURVE",
"200 130 OFFCURVE",
"200 119 CURVE SMOOTH",
"200 108 OFFCURVE",
"206 100 OFFCURVE",
"217 96 CURVE SMOOTH",
"228 92 OFFCURVE",
"255 90 OFFCURVE",
"297 89 CURVE SMOOTH",
"465 88 OFFCURVE",
"515 52 OFFCURVE",
"515 -62 CURVE SMOOTH"
);
},
{
closed = 1;
nodes = (
"169 -106 OFFCURVE",
"204 -120 OFFCURVE",
"275 -120 CURVE SMOOTH",
"345 -120 OFFCURVE",
"380 -103 OFFCURVE",
"380 -70 CURVE SMOOTH",
"380 -52 OFFCURVE",
"374 -40 OFFCURVE",
"362 -35 CURVE SMOOTH",
"350 -30 OFFCURVE",
"325 -28 OFFCURVE",
"286 -27 CURVE",
"196 -20 LINE",
"178 -38 OFFCURVE",
"169 -57 OFFCURVE",
"169 -77 CURVE SMOOTH"
);
},
{
closed = 1;
nodes = (
"177 284 OFFCURVE",
"203 259 OFFCURVE",
"254 259 CURVE SMOOTH",
"305 259 OFFCURVE",
"330 284 OFFCURVE",
"330 333 CURVE SMOOTH",
"330 382 OFFCURVE",
"305 406 OFFCURVE",
"254 406 CURVE SMOOTH",
"203 406 OFFCURVE",
"177 382 OFFCURVE",
"177 333 CURVE SMOOTH"
);
},
{
closed = 1;
nodes = (
"203 556 LINE",
"203 691 LINE",
"337 691 LINE",
"337 556 LINE"
);
}
);
width = 534;
}
);
leftKerningGroup = g;
rightKerningGroup = g;
unicode = 0121;
},
{
glyphname = Gcommaaccent;
layers = (
{
layerId = "E174F030-6324-451A-8951-EA6336064495";
name = Bold;
paths = (
{
closed = 1;
nodes = (
"357 244 LINE",
"357 364 LINE",
"555 364 LINE",
"555 11 LINE",
"460 -4 OFFCURVE",
"382 -12 OFFCURVE",
"323 -12 CURVE SMOOTH",
"111 -12 OFFCURVE",
"45 96 OFFCURVE",
"45 343 CURVE SMOOTH",
"45 590 OFFCURVE",
"119 692 OFFCURVE",
"318 692 CURVE SMOOTH",
"380 692 OFFCURVE",
"447 685 OFFCURVE",
"519 671 CURVE SMOOTH",
"555 664 LINE",
"551 557 LINE",
"471 566 OFFCURVE",
"406 570 OFFCURVE",
"355 570 CURVE SMOOTH",
"253 570 OFFCURVE",
"221 550 OFFCURVE",
"202 486 CURVE SMOOTH",
"192 453 OFFCURVE",
"187 398 OFFCURVE",
"187 320 CURVE SMOOTH",
"187 163 OFFCURVE",
"215 108 OFFCURVE",
"336 108 CURVE",
"419 112 LINE",
"419 244 LINE"
);
},
{
closed = 1;
nodes = (
"266 -77 LINE",
"396 -77 LINE",
"341 -311 LINE",
"220 -311 LINE"
);
}
);
width = 611;
}
);
leftKerningGroup = G;
rightKerningGroup = G;
unicode = 0122;
},
{
glyphname = gcommaaccent;
layers = (
{
layerId = "E174F030-6324-451A-8951-EA6336064495";
name = Bold;
paths = (
{
closed = 1;
nodes = (
"346 817 LINE",
"300 583 LINE",
"170 583 LINE",
"225 817 LINE"
);
},
{
closed = 1;
nodes = (
"515 -176 OFFCURVE",
"421 -230 OFFCURVE",
"271 -230 CURVE SMOOTH",
"121 -230 OFFCURVE",
"37 -196 OFFCURVE",
"37 -91 CURVE SMOOTH",
"37 -49 OFFCURVE",
"61 -9 OFFCURVE",
"109 28 CURVE",
"84 45 OFFCURVE",
"72 70 OFFCURVE",
"72 104 CURVE SMOOTH",
"72 117 OFFCURVE",
"82 139 OFFCURVE",
"102 170 CURVE SMOOTH",
"111 184 LINE",
"66 217 OFFCURVE",
"43 265 OFFCURVE",
"43 329 CURVE SMOOTH",
"43 456 OFFCURVE",
"126 510 OFFCURVE",
"253 510 CURVE SMOOTH",
"282 510 OFFCURVE",
"310 507 OFFCURVE",
"338 500 CURVE",
"354 497 LINE",
"515 502 LINE",
"515 395 LINE",
"440 401 LINE",
"455 378 OFFCURVE",
"462 356 OFFCURVE",
"462 333 CURVE SMOOTH",
"462 200 OFFCURVE",
"396 157 OFFCURVE",
"251 157 CURVE SMOOTH",
"236 157 OFFCURVE",
"222 158 OFFCURVE",
"210 161 CURVE",
"203 144 OFFCURVE",
"200 130 OFFCURVE",
"200 119 CURVE SMOOTH",
"200 108 OFFCURVE",
"206 100 OFFCURVE",
"217 96 CURVE SMOOTH",
"228 92 OFFCURVE",
"255 90 OFFCURVE",
"297 89 CURVE SMOOTH",
"465 88 OFFCURVE",
"515 52 OFFCURVE",
"515 -62 CURVE SMOOTH"
);
},
{
closed = 1;
nodes = (
"169 -106 OFFCURVE",
"204 -120 OFFCURVE",
"275 -120 CURVE SMOOTH",
"345 -120 OFFCURVE",
"380 -103 OFFCURVE",
"380 -70 CURVE SMOOTH",
"380 -52 OFFCURVE",
"374 -40 OFFCURVE",
"362 -35 CURVE SMOOTH",
"350 -30 OFFCURVE",
"325 -28 OFFCURVE",
"286 -27 CURVE",
"196 -20 LINE",
"178 -38 OFFCURVE",
"169 -57 OFFCURVE",
"169 -77 CURVE SMOOTH"
);
},
{
closed = 1;
nodes = (
"177 284 OFFCURVE",
"203 259 OFFCURVE",
"254 259 CURVE SMOOTH",
"305 259 OFFCURVE",
"330 284 OFFCURVE",
"330 333 CURVE SMOOTH",
"330 382 OFFCURVE",
"305 406 OFFCURVE",
"254 406 CURVE SMOOTH",
"203 406 OFFCURVE",
"177 382 OFFCURVE",
"177 333 CURVE SMOOTH"
);
}
);
width = 534;
}
);
leftKerningGroup = g;
rightKerningGroup = g;
unicode = 0123;
},
{
glyphname = Hcircumflex;
layers = (
{
layerId = "E174F030-6324-451A-8951-EA6336064495";
name = Bold;
paths = (
{
closed = 1;
nodes = (
"465 0 LINE",
"465 282 LINE",
"212 282 LINE",
"212 0 LINE",
"74 0 LINE",
"74 680 LINE",
"212 680 LINE",
"212 402 LINE",
"465 402 LINE",
"465 680 LINE",
"603 680 LINE",
"603 0 LINE"
);
},
{
closed = 1;
nodes = (
"146 765 LINE",
"280 914 LINE",
"397 914 LINE",
"531 765 LINE",
"389 765 LINE",
"340 821 LINE",
"288 765 LINE"
);
}
);
width = 677;
}
);
leftKerningGroup = B;
rightKerningGroup = H;
unicode = 0124;
},
{
glyphname = hcircumflex;
layers = (
{
layerId = "E174F030-6324-451A-8951-EA6336064495";
name = Bold;
paths = (
{
closed = 1;
nodes = (
"196 0 LINE",
"62 0 LINE",
"62 700 LINE",
"196 700 LINE",
"196 476 LINE",
"242 500 OFFCURVE",
"283 512 OFFCURVE",
"320 512 CURVE SMOOTH",
"453 512 OFFCURVE",
"496 435 OFFCURVE",
"496 271 CURVE SMOOTH",
"496 0 LINE",
"362 0 LINE",
"362 268 LINE SMOOTH",
"362 352 OFFCURVE",
"347 392 OFFCURVE",
"287 392 CURVE SMOOTH",
"261 392 OFFCURVE",
"235 388 OFFCURVE",
"209 380 CURVE SMOOTH",
"196 376 LINE"
);
},
{
closed = 1;
nodes = (
"107 750 LINE",
"233 901 LINE",
"317 901 LINE",
"445 750 LINE",
"322 750 LINE",
"276 817 LINE",
"230 750 LINE"
);
}
);
width = 553;
}
);
leftKerningGroup = h;
rightKerningGroup = h;
unicode = 0125;
},
{
glyphname = Hbar;
layers = (
{
layerId = "E174F030-6324-451A-8951-EA6336064495";
name = Bold;
paths = (
{
closed = 1;
nodes = (
"19 486 LINE",
"19 602 LINE",
"78 602 LINE",
"78 680 LINE",
"216 680 LINE",
"216 602 LINE",
"469 602 LINE",
"469 680 LINE",
"607 680 LINE",
"607 602 LINE",
"673 602 LINE",
"673 486 LINE",
"607 486 LINE",
"607 0 LINE",
"469 0 LINE",
"469 282 LINE",
"216 282 LINE",
"216 0 LINE",
"78 0 LINE",
"78 486 LINE"
);
},
{
closed = 1;
nodes = (
"216 402 LINE",
"469 402 LINE",
"469 486 LINE",
"216 486 LINE"
);
}
);
width = 685;
}
);
leftKerningGroup = B;
rightKerningGroup = H;
unicode = 0126;
},
{
glyphname = hbar;
layers = (
{
layerId = "E174F030-6324-451A-8951-EA6336064495";
name = Bold;
paths = (
{
closed = 1;
nodes = (
"12 532 LINE",
"12 648 LINE",
"62 648 LINE",
"62 700 LINE",
"196 700 LINE",
"196 648 LINE",
"339 648 LINE",
"339 532 LINE",
"196 532 LINE",
"196 476 LINE",
"242 500 OFFCURVE",
"283 512 OFFCURVE",
"320 512 CURVE SMOOTH",
"453 512 OFFCURVE",
"496 435 OFFCURVE",
"496 271 CURVE SMOOTH",
"496 0 LINE",
"362 0 LINE",
"362 268 LINE SMOOTH",
"362 352 OFFCURVE",
"347 392 OFFCURVE",
"287 392 CURVE SMOOTH",
"261 392 OFFCURVE",
"235 388 OFFCURVE",
"209 380 CURVE SMOOTH",
"196 376 LINE",
"196 0 LINE",
"62 0 LINE",
"62 532 LINE"
);
}
);
width = 553;
}
);
leftKerningGroup = h;
rightKerningGroup = h;
unicode = 0127;
},
{
glyphname = Itilde;
layers = (
{
layerId = "E174F030-6324-451A-8951-EA6336064495";
name = Bold;
paths = (
{
closed = 1;
nodes = (
"74 0 LINE",
"74 680 LINE",
"212 680 LINE",
"212 0 LINE"
);
},
{
closed = 1;
nodes = (
"261 765 OFFCURVE",
"242 758 OFFCURVE",
"225 758 CURVE SMOOTH",
"208 758 OFFCURVE",
"178 766 OFFCURVE",
"136 781 CURVE SMOOTH",
"93 796 OFFCURVE",
"68 804 OFFCURVE",
"59 804 CURVE SMOOTH",
"42 804 OFFCURVE",
"20 793 OFFCURVE",
"-8 772 CURVE SMOOTH",
"-22 762 LINE",
"-51 858 LINE",
"-24 890 OFFCURVE",
"22 922 OFFCURVE",
"62 922 CURVE SMOOTH",
"81 922 OFFCURVE",
"111 914 OFFCURVE",
"152 899 CURVE SMOOTH",
"193 884 OFFCURVE",
"217 876 OFFCURVE",
"224 876 CURVE SMOOTH",
"239 876 OFFCURVE",
"261 887 OFFCURVE",
"290 908 CURVE",
"305 918 LINE",
"334 821 LINE",
"320 805 OFFCURVE",
"303 791 OFFCURVE",
"282 778 CURVE SMOOTH"
);
}
);
width = 286;
}
);
leftKerningGroup = B;
rightKerningGroup = H;
unicode = 0128;
},
{
glyphname = itilde;
layers = (
{
layerId = "E174F030-6324-451A-8951-EA6336064495";
name = Bold;
paths = (
{
closed = 1;
nodes = (
"62 500 LINE",
"196 500 LINE",
"196 0 LINE",
"62 0 LINE"
);
},
{
closed = 1;
nodes = (
"273 616 OFFCURVE",
"228 585 OFFCURVE",
"198 585 CURVE SMOOTH",
"183 585 OFFCURVE",
"160 591 OFFCURVE",
"129 603 CURVE SMOOTH",
"98 615 OFFCURVE",
"79 621 OFFCURVE",
"70 621 CURVE SMOOTH",
"51 621 OFFCURVE",
"29 613 OFFCURVE",
"4 598 CURVE SMOOTH",
"-9 590 LINE",
"-38 665 LINE",
"-11 696 OFFCURVE",
"36 725 OFFCURVE",
"66 725 CURVE SMOOTH",
"81 725 OFFCURVE",
"104 719 OFFCURVE",
"135 707 CURVE SMOOTH",
"166 695 OFFCURVE",
"185 689 OFFCURVE",
"193 689 CURVE SMOOTH",
"209 689 OFFCURVE",
"231 697 OFFCURVE",
"259 714 CURVE SMOOTH",
"273 723 LINE",
"302 647 LINE",
"298 642 OFFCURVE",
"293 637 OFFCURVE",
"286 630 CURVE"
);
}
);
width = 258;
}
);
leftKerningGroup = i;
rightKerningGroup = numbersign;
unicode = 0129;
},
{
glyphname = Imacron;
layers = (
{
layerId = "E174F030-6324-451A-8951-EA6336064495";
name = Bold;
paths = (
{
closed = 1;
nodes = (
"74 0 LINE",
"74 680 LINE",
"212 680 LINE",
"212 0 LINE"
);
},
{
closed = 1;
nodes = (
"-27 782 LINE",
"-27 880 LINE",
"320 880 LINE",
"320 782 LINE"
);
}
);
width = 286;
}
);
leftKerningGroup = B;
rightKerningGroup = H;
unicode = 012A;
},
{
glyphname = imacron;
layers = (
{
layerId = "E174F030-6324-451A-8951-EA6336064495";
name = Bold;
paths = (
{
closed = 1;
nodes = (
"62 500 LINE",
"196 500 LINE",
"196 0 LINE",
"62 0 LINE"
);
},
{
closed = 1;
nodes = (
"-14 597 LINE",
"-14 697 LINE",
"273 697 LINE",
"273 597 LINE"
);
}
);
width = 258;
}
);
leftKerningGroup = i;
rightKerningGroup = numbersign;
unicode = 012B;
},
{
glyphname = Ibreve;
layers = (
{
layerId = "E174F030-6324-451A-8951-EA6336064495";
name = Bold;
paths = (
{
closed = 1;
nodes = (
"74 0 LINE",
"74 680 LINE",
"212 680 LINE",
"212 0 LINE"
);
},
{
closed = 1;
nodes = (
"95 910 LINE",
"100 877 OFFCURVE",
"124 853 OFFCURVE",
"161 853 CURVE SMOOTH",
"197 853 OFFCURVE",
"222 877 OFFCURVE",
"226 910 CURVE",
"347 910 LINE",
"336 819 OFFCURVE",
"275 759 OFFCURVE",
"160 759 CURVE SMOOTH",
"45 759 OFFCURVE",
"-15 819 OFFCURVE",
"-26 910 CURVE"
);
}
);
width = 286;
}
);
leftKerningGroup = B;
rightKerningGroup = H;
unicode = 012C;
},
{
glyphname = ibreve;
layers = (
{
layerId = "E174F030-6324-451A-8951-EA6336064495";
name = Bold;
paths = (
{
closed = 1;
nodes = (
"62 500 LINE",
"196 500 LINE",
"196 0 LINE",
"62 0 LINE"
);
},
{
closed = 1;
nodes = (
"166 664 OFFCURVE",
"187 686 OFFCURVE",
"192 730 CURVE",
"293 730 LINE",
"282 643 OFFCURVE",
"224 573 OFFCURVE",
"129 573 CURVE SMOOTH",
"34 573 OFFCURVE",
"-24 643 OFFCURVE",
"-35 730 CURVE",
"66 730 LINE",
"71 689 OFFCURVE",
"94 664 OFFCURVE",
"129 664 CURVE SMOOTH"
);
}
);
width = 258;
}
);
leftKerningGroup = i;
rightKerningGroup = numbersign;
unicode = 012D;
},
{
glyphname = Iogonek;
layers = (
{
layerId = "E174F030-6324-451A-8951-EA6336064495";
name = Bold;
paths = (
{
closed = 1;
nodes = (
"74 0 LINE",
"74 680 LINE",
"212 680 LINE",
"212 0 LINE",
"180 -20 OFFCURVE",
"145 -60 OFFCURVE",
"145 -81 CURVE SMOOTH",
"145 -103 OFFCURVE",
"156 -114 OFFCURVE",
"177 -114 CURVE",
"219 -110 LINE",
"231 -205 LINE",
"192 -212 OFFCURVE",
"157 -216 OFFCURVE",
"127 -216 CURVE SMOOTH",
"66 -216 OFFCURVE",
"20 -179 OFFCURVE",
"20 -120 CURVE SMOOTH",
"20 -76 OFFCURVE",
"43 -36 OFFCURVE",
"88 0 CURVE"
);
}
);
width = 286;
}
);
leftKerningGroup = B;
rightKerningGroup = H;
unicode = 012E;
},
{
glyphname = iogonek;
layers = (
{
layerId = "E174F030-6324-451A-8951-EA6336064495";
name = Bold;
paths = (
{
closed = 1;
nodes = (
"62 0 LINE",
"62 500 LINE",
"196 500 LINE",
"196 0 LINE",
"164 -20 OFFCURVE",
"129 -60 OFFCURVE",
"129 -81 CURVE SMOOTH",
"129 -103 OFFCURVE",
"140 -114 OFFCURVE",
"161 -114 CURVE",
"203 -110 LINE",
"215 -205 LINE",
"176 -212 OFFCURVE",
"141 -216 OFFCURVE",
"111 -216 CURVE SMOOTH",
"50 -216 OFFCURVE",
"4 -179 OFFCURVE",
"4 -120 CURVE SMOOTH",
"4 -75 OFFCURVE",
"27 -35 OFFCURVE",
"74 0 CURVE"
);
},
{
closed = 1;
nodes = (
"62 564 LINE",
"62 700 LINE",
"196 700 LINE",
"196 564 LINE"
);
}
);
width = 258;
}
);
leftKerningGroup = i;
rightKerningGroup = numbersign;
unicode = 012F;
},
{
glyphname = Idotaccent;
layers = (
{
layerId = "E174F030-6324-451A-8951-EA6336064495";
name = Bold;
paths = (
{
closed = 1;
nodes = (
"74 0 LINE",
"74 680 LINE",
"212 680 LINE",
"212 0 LINE"
);
},
{
closed = 1;
nodes = (
"76 767 LINE",
"76 902 LINE",
"210 902 LINE",
"210 767 LINE"
);
}
);
width = 286;
}
);
leftKerningGroup = B;
rightKerningGroup = H;
unicode = 0130;
},
{
glyphname = dotlessi;
layers = (
{
layerId = "E174F030-6324-451A-8951-EA6336064495";
name = Bold;
paths = (
{
closed = 1;
nodes = (
"62 0 LINE",
"62 500 LINE",
"196 500 LINE",
"196 0 LINE"
);
}
);
width = 258;
}
);
leftKerningGroup = i;
rightKerningGroup = numbersign;
unicode = 0131;
},
{
glyphname = Jcircumflex;
layers = (
{
layerId = "E174F030-6324-451A-8951-EA6336064495";
name = Bold;
paths = (
{
closed = 1;
nodes = (
"19 50 LINE",
"72 50 OFFCURVE",
"95 66 OFFCURVE",
"95 121 CURVE SMOOTH",
"95 680 LINE",
"232 680 LINE",
"233 115 LINE SMOOTH",
"233 -30 OFFCURVE",
"175 -70 OFFCURVE",
"19 -70 CURVE"
);
},
{
closed = 1;
nodes = (
"-29 765 LINE",
"105 914 LINE",
"222 914 LINE",
"356 765 LINE",
"214 765 LINE",
"165 821 LINE",
"113 765 LINE"
);
}
);
width = 302;
}
);
leftKerningGroup = J;
rightKerningGroup = J;
unicode = 0134;
},
{
glyphname = jcircumflex;
layers = (
{
layerId = "E174F030-6324-451A-8951-EA6336064495";
name = Bold;
paths = (
{
closed = 1;
nodes = (
"63 500 LINE",
"197 500 LINE",
"197 23 LINE SMOOTH",
"197 -113 OFFCURVE",
"162 -158 OFFCURVE",
"19 -230 CURVE",
"-34 -131 LINE",
"26 -91 OFFCURVE",
"44 -75 OFFCURVE",
"55 -43 CURVE SMOOTH",
"60 -28 OFFCURVE",
"63 -5 OFFCURVE",
"63 24 CURVE SMOOTH"
);
},
{
closed = 1;
nodes = (
"-37 580 LINE",
"89 731 LINE",
"173 731 LINE",
"301 580 LINE",
"178 580 LINE",
"132 647 LINE",
"86 580 LINE"
);
}
);
width = 259;
}
);
leftKerningGroup = i;
rightKerningGroup = numbersign;
unicode = 0135;
},
{
glyphname = Kcommaaccent;
layers = (
{
layerId = "E174F030-6324-451A-8951-EA6336064495";
name = Bold;
paths = (
{
closed = 1;
nodes = (
"212 0 LINE",
"74 0 LINE",
"74 690 LINE",
"212 690 LINE",
"212 394 LINE",
"302 404 LINE",
"414 690 LINE",
"573 690 LINE",
"425 347 LINE",
"577 0 LINE",
"418 0 LINE",
"304 271 LINE",
"212 261 LINE"
);
},
{
closed = 1;
nodes = (
"245 -77 LINE",
"375 -77 LINE",
"320 -311 LINE",
"199 -311 LINE"
);
}
);
width = 591;
}
);
leftKerningGroup = B;
rightKerningGroup = K;
unicode = 0136;
},
{
glyphname = kcommaaccent;
layers = (
{
layerId = "E174F030-6324-451A-8951-EA6336064495";
name = Bold;
paths = (
{
closed = 1;
nodes = (
"-10 -311 LINE",
"36 -77 LINE",
"166 -77 LINE",
"111 -311 LINE"
);
},
{
closed = 1;
nodes = (
"196 0 LINE",
"62 0 LINE",
"62 700 LINE",
"196 700 LINE",
"196 302 LINE",
"247 311 LINE",
"346 500 LINE",
"496 500 LINE",
"366 263 LINE",
"503 0 LINE",
"352 0 LINE",
"251 195 LINE",
"196 186 LINE"
);
}
);
width = 515;
}
);
leftKerningGroup = h;
rightKerningGroup = k;
unicode = 0137;
},
{
glyphname = Lacute;
layers = (
{
layerId = "E174F030-6324-451A-8951-EA6336064495";
name = Bold;
paths = (
{
closed = 1;
nodes = (
"461 0 LINE",
"74 0 LINE",
"74 690 LINE",
"212 690 LINE",
"212 133 LINE",
"461 133 LINE"
);
},
{
closed = 1;
nodes = (
"110 839 LINE",
"362 945 LINE",
"403 825 LINE",
"143 746 LINE"
);
}
);
width = 473;
}
);
leftKerningGroup = B;
rightKerningGroup = L;
unicode = 0139;
},
{
glyphname = lacute;
layers = (
{
layerId = "E174F030-6324-451A-8951-EA6336064495";
name = Bold;
paths = (
{
closed = 1;
nodes = (
"68 0 LINE",
"68 700 LINE",
"202 700 LINE",
"202 0 LINE"
);
},
{
closed = 1;
nodes = (
"41 861 LINE",
"293 963 LINE",
"333 848 LINE",
"71 774 LINE"
);
}
);
width = 270;
}
);
leftKerningGroup = l;
rightKerningGroup = numbersign;
unicode = 013A;
},
{
glyphname = Lcommaaccent;
layers = (
{
layerId = "E174F030-6324-451A-8951-EA6336064495";
name = Bold;
paths = (
{
closed = 1;
nodes = (
"204 -77 LINE",
"334 -77 LINE",
"279 -311 LINE",
"158 -311 LINE"
);
},
{
closed = 1;
nodes = (
"461 0 LINE",
"74 0 LINE",
"74 680 LINE",
"212 680 LINE",
"212 122 LINE",
"461 122 LINE"
);
}
);
width = 472;
}
);
leftKerningGroup = B;
rightKerningGroup = L;
unicode = 013B;
},
{
glyphname = lcommaaccent;
layers = (
{
layerId = "E174F030-6324-451A-8951-EA6336064495";
name = Bold;
paths = (
{
closed = 1;
nodes = (
"68 0 LINE",
"68 700 LINE",
"202 700 LINE",
"202 0 LINE"
);
},
{
closed = 1;
nodes = (
"66 -77 LINE",
"196 -77 LINE",
"141 -311 LINE",
"20 -311 LINE"
);
}
);
width = 270;
}
);
leftKerningGroup = l;
rightKerningGroup = numbersign;
unicode = 013C;
},
{
glyphname = Lcaron;
layers = (
{
layerId = "E174F030-6324-451A-8951-EA6336064495";
name = Bold;
paths = (
{
closed = 1;
nodes = (
"461 690 LINE",
"461 430 LINE",
"331 430 LINE",
"331 690 LINE"
);
},
{
closed = 1;
nodes = (
"461 0 LINE",
"74 0 LINE",
"74 680 LINE",
"212 680 LINE",
"212 122 LINE",
"461 122 LINE"
);
}
);
width = 498;
}
);
leftKerningGroup = B;
rightKerningGroup = L;
unicode = 013D;
},
{
glyphname = lcaron;
layers = (
{
layerId = "E174F030-6324-451A-8951-EA6336064495";
name = Bold;
paths = (
{
closed = 1;
nodes = (
"303 678 LINE",
"433 678 LINE",
"378 444 LINE",
"257 444 LINE"
);
},
{
closed = 1;
nodes = (
"68 0 LINE",
"68 700 LINE",
"202 700 LINE",
"202 0 LINE"
);
}
);
width = 377;
}
);
leftKerningGroup = l;
rightKerningGroup = dcaron;
unicode = 013E;
},
{
glyphname = Lslash;
layers = (
{
layerId = "E174F030-6324-451A-8951-EA6336064495";
name = Bold;
paths = (
{
closed = 1;
nodes = (
"470 0 LINE",
"83 0 LINE",
"83 217 LINE",
"41 188 LINE",
"-24 278 LINE",
"83 353 LINE",
"83 680 LINE",
"221 680 LINE",
"221 449 LINE",
"320 519 LINE",
"385 429 LINE",
"221 314 LINE",
"221 122 LINE",
"470 122 LINE"
);
}
);
width = 481;
}
);
leftKerningGroup = B;
rightKerningGroup = L;
unicode = 0141;
},
{
glyphname = lslash;
layers = (
{
layerId = "E174F030-6324-451A-8951-EA6336064495";
name = Bold;
paths = (
{
closed = 1;
nodes = (
"119 0 LINE",
"119 218 LINE",
"68 183 LINE",
"3 273 LINE",
"119 354 LINE",
"119 700 LINE",
"253 700 LINE",
"253 448 LINE",
"316 492 LINE",
"381 402 LINE",
"253 312 LINE",
"253 0 LINE"
);
}
);
width = 381;
}
);
leftKerningGroup = l;
rightKerningGroup = numbersign;
unicode = 0142;
},
{
glyphname = Nacute;
layers = (
{
layerId = "E174F030-6324-451A-8951-EA6336064495";
name = Bold;
paths = (
{
closed = 1;
nodes = (
"74 0 LINE",
"74 680 LINE",
"307 680 LINE",
"471 120 LINE",
"481 120 LINE",
"481 680 LINE",
"619 680 LINE",
"619 0 LINE",
"392 0 LINE",
"222 560 LINE",
"212 560 LINE",
"212 0 LINE"
);
},
{
closed = 1;
nodes = (
"202 839 LINE",
"454 945 LINE",
"495 825 LINE",
"235 746 LINE"
);
}
);
width = 693;
}
);
leftKerningGroup = B;
rightKerningGroup = H;
unicode = 0143;
},
{
glyphname = nacute;
layers = (
{
layerId = "E174F030-6324-451A-8951-EA6336064495";
name = Bold;
paths = (
{
closed = 1;
nodes = (
"62 0 LINE",
"62 500 LINE",
"195 500 LINE",
"195 472 LINE",
"214 482 LINE SMOOTH",
"238 495 OFFCURVE",
"287 512 OFFCURVE",
"320 512 CURVE SMOOTH",
"453 512 OFFCURVE",
"496 435 OFFCURVE",
"496 271 CURVE",
"496 271 OFFCURVE",
"496 181 OFFCURVE",
"496 0 CURVE",
"362 0 LINE",
"362 267 LINE SMOOTH",
"362 352 OFFCURVE",
"347 392 OFFCURVE",
"286 392 CURVE SMOOTH",
"255 392 OFFCURVE",
"225 386 OFFCURVE",
"196 374 CURVE",
"196 0 LINE"
);
},
{
closed = 1;
nodes = (
"146 651 LINE",
"398 753 LINE",
"438 638 LINE",
"176 564 LINE"
);
}
);
width = 553;
}
);
leftKerningGroup = m;
rightKerningGroup = h;
unicode = 0144;
},
{
glyphname = Ncommaaccent;
layers = (
{
layerId = "E174F030-6324-451A-8951-EA6336064495";
name = Bold;
paths = (
{
closed = 1;
nodes = (
"299 -77 LINE",
"429 -77 LINE",
"374 -311 LINE",
"253 -311 LINE"
);
},
{
closed = 1;
nodes = (
"74 0 LINE",
"74 680 LINE",
"307 680 LINE",
"471 120 LINE",
"481 120 LINE",
"481 680 LINE",
"619 680 LINE",
"619 0 LINE",
"392 0 LINE",
"222 560 LINE",
"212 560 LINE",
"212 0 LINE"
);
}
);
width = 693;
}
);
leftKerningGroup = B;
rightKerningGroup = H;
unicode = 0145;
},
{
glyphname = ncommaaccent;
layers = (
{
layerId = "E174F030-6324-451A-8951-EA6336064495";
name = Bold;
paths = (
{
closed = 1;
nodes = (
"-10 -311 LINE",
"36 -77 LINE",
"166 -77 LINE",
"111 -311 LINE"
);
},
{
closed = 1;
nodes = (
"196 0 LINE",
"62 0 LINE",
"62 500 LINE",
"195 500 LINE",
"195 472 LINE",
"240 499 OFFCURVE",
"282 512 OFFCURVE",
"320 512 CURVE SMOOTH",
"453 512 OFFCURVE",
"496 435 OFFCURVE",
"496 271 CURVE SMOOTH",
"496 0 LINE",
"362 0 LINE",
"362 267 LINE SMOOTH",
"362 352 OFFCURVE",
"347 392 OFFCURVE",
"287 392 CURVE SMOOTH",
"260 392 OFFCURVE",
"233 387 OFFCURVE",
"208 378 CURVE SMOOTH",
"196 374 LINE"
);
}
);
width = 553;
}
);
leftKerningGroup = m;
rightKerningGroup = h;
unicode = 0146;
},
{
glyphname = Ncaron;
layers = (
{
layerId = "E174F030-6324-451A-8951-EA6336064495";
name = Bold;
paths = (
{
closed = 1;
nodes = (
"74 0 LINE",
"74 680 LINE",
"307 680 LINE",
"471 120 LINE",
"481 120 LINE",
"481 680 LINE",
"619 680 LINE",
"619 0 LINE",
"392 0 LINE",
"222 560 LINE",
"212 560 LINE",
"212 0 LINE"
);
},
{
closed = 1;
nodes = (
"289 765 LINE",
"155 914 LINE",
"297 914 LINE",
"349 858 LINE",
"398 914 LINE",
"540 914 LINE",
"406 765 LINE"
);
}
);
width = 693;
}
);
leftKerningGroup = B;
rightKerningGroup = H;
unicode = 0147;
},
{
glyphname = ncaron;
layers = (
{
layerId = "E174F030-6324-451A-8951-EA6336064495";
name = Bold;
paths = (
{
closed = 1;
nodes = (
"196 0 LINE",
"62 0 LINE",
"62 500 LINE",
"195 500 LINE",
"195 472 LINE",
"240 499 OFFCURVE",
"282 512 OFFCURVE",
"320 512 CURVE SMOOTH",
"453 512 OFFCURVE",
"496 435 OFFCURVE",
"496 271 CURVE SMOOTH",
"496 0 LINE",
"362 0 LINE",
"362 267 LINE SMOOTH",
"362 352 OFFCURVE",
"347 392 OFFCURVE",
"287 392 CURVE SMOOTH",
"260 392 OFFCURVE",
"233 387 OFFCURVE",
"208 378 CURVE SMOOTH",
"196 374 LINE"
);
},
{
closed = 1;
nodes = (
"231 580 LINE",
"105 731 LINE",
"228 731 LINE",
"274 664 LINE",
"320 731 LINE",
"443 731 LINE",
"315 580 LINE"
);
}
);
width = 553;
}
);
leftKerningGroup = m;
rightKerningGroup = h;
unicode = 0148;
},
{
glyphname = Eng;
layers = (
{
layerId = "E174F030-6324-451A-8951-EA6336064495";
name = Bold;
paths = (
{
closed = 1;
nodes = (
"74 0 LINE",
"74 680 LINE",
"307 680 LINE",
"471 120 LINE",
"481 120 LINE",
"481 680 LINE",
"619 680 LINE",
"619 -27 LINE SMOOTH",
"619 -172 OFFCURVE",
"561 -212 OFFCURVE",
"405 -212 CURVE",
"405 -92 LINE",
"458 -92 OFFCURVE",
"481 -76 OFFCURVE",
"481 -21 CURVE SMOOTH",
"481 0 LINE",
"392 0 LINE",
"222 560 LINE",
"212 560 LINE",
"212 0 LINE"
);
}
);
width = 693;
}
);
leftKerningGroup = B;
rightKerningGroup = H;
unicode = 014A;
},
{
glyphname = eng;
layers = (
{
layerId = "E174F030-6324-451A-8951-EA6336064495";
name = Bold;
paths = (
{
closed = 1;
nodes = (
"195 0 LINE",
"61 0 LINE",
"61 499 LINE",
"195 499 LINE",
"195 477 LINE",
"250 500 OFFCURVE",
"293 512 OFFCURVE",
"324 512 CURVE SMOOTH",
"448 512 OFFCURVE",
"496 424 OFFCURVE",
"496 261 CURVE SMOOTH",
"496 5 LINE SMOOTH",
"496 -135 OFFCURVE",
"466 -179 OFFCURVE",
"318 -248 CURVE",
"258 -137 LINE",
"350 -86 OFFCURVE",
"362 -72 OFFCURVE",
"362 0 CURVE SMOOTH",
"362 261 LINE SMOOTH",
"362 346 OFFCURVE",
"340 389 OFFCURVE",
"296 389 CURVE SMOOTH",
"277 389 OFFCURVE",
"249 385 OFFCURVE",
"213 376 CURVE SMOOTH",
"195 371 LINE"
);
}
);
width = 552;
}
);
leftKerningGroup = m;
rightKerningGroup = h;
unicode = 014B;
},
{
glyphname = Omacron;
layers = (
{
layerId = "E174F030-6324-451A-8951-EA6336064495";
name = Bold;
paths = (
{
closed = 1;
nodes = (
"235 126 OFFCURVE",
"272 108 OFFCURVE",
"326 108 CURVE SMOOTH",
"434 108 OFFCURVE",
"466 172 OFFCURVE",
"466 337 CURVE SMOOTH",
"466 501 OFFCURVE",
"433 572 OFFCURVE",
"326 572 CURVE SMOOTH",
"219 572 OFFCURVE",
"186 501 OFFCURVE",
"186 337 CURVE SMOOTH",
"186 254 OFFCURVE",
"196 196 OFFCURVE",
"216 161 CURVE SMOOTH"
);
},
{
closed = 1;
nodes = (
"502 16 OFFCURVE",
"429 -12 OFFCURVE",
"326 -12 CURVE SMOOTH",
"119 -12 OFFCURVE",
"44 97 OFFCURVE",
"44 337 CURVE SMOOTH",
"44 577 OFFCURVE",
"119 692 OFFCURVE",
"326 692 CURVE SMOOTH",
"533 692 OFFCURVE",
"608 577 OFFCURVE",
"608 337 CURVE SMOOTH",
"608 217 OFFCURVE",
"587 129 OFFCURVE",
"545 73 CURVE SMOOTH"
);
},
{
closed = 1;
nodes = (
"149 782 LINE",
"149 880 LINE",
"496 880 LINE",
"496 782 LINE"
);
}
);
width = 652;
}
);
leftKerningGroup = G;
rightKerningGroup = O;
unicode = 014C;
},
{
glyphname = omacron;
layers = (
{
layerId = "E174F030-6324-451A-8951-EA6336064495";
name = Bold;
paths = (
{
closed = 1;
nodes = (
"124 489 OFFCURVE",
"183 512 OFFCURVE",
"266 512 CURVE SMOOTH",
"431 512 OFFCURVE",
"496 416 OFFCURVE",
"496 251 CURVE SMOOTH",
"496 76 OFFCURVE",
"419 -12 OFFCURVE",
"266 -12 CURVE SMOOTH",
"113 -12 OFFCURVE",
"36 76 OFFCURVE",
"36 251 CURVE SMOOTH",
"36 334 OFFCURVE",
"54 398 OFFCURVE",
"89 444 CURVE SMOOTH"
);
},
{
closed = 1;
nodes = (
"206 114 OFFCURVE",
"231 102 OFFCURVE",
"266 102 CURVE SMOOTH",
"337 102 OFFCURVE",
"360 148 OFFCURVE",
"360 251 CURVE SMOOTH",
"360 354 OFFCURVE",
"337 398 OFFCURVE",
"266 398 CURVE SMOOTH",
"195 398 OFFCURVE",
"172 354 OFFCURVE",
"172 251 CURVE SMOOTH",
"172 200 OFFCURVE",
"179 162 OFFCURVE",
"193 138 CURVE SMOOTH"
);
},
{
closed = 1;
nodes = (
"126 597 LINE",
"126 697 LINE",
"413 697 LINE",
"413 597 LINE"
);
}
);
width = 532;
}
);
leftKerningGroup = c;
rightKerningGroup = o;
unicode = 014D;
},
{
glyphname = Obreve;
layers = (
{
layerId = "E174F030-6324-451A-8951-EA6336064495";
name = Bold;
paths = (
{
closed = 1;
nodes = (
"235 126 OFFCURVE",
"272 108 OFFCURVE",
"326 108 CURVE SMOOTH",
"434 108 OFFCURVE",
"466 172 OFFCURVE",
"466 337 CURVE SMOOTH",
"466 501 OFFCURVE",
"433 572 OFFCURVE",
"326 572 CURVE SMOOTH",
"219 572 OFFCURVE",
"186 501 OFFCURVE",
"186 337 CURVE SMOOTH",
"186 254 OFFCURVE",
"196 196 OFFCURVE",
"216 161 CURVE SMOOTH"
);
},
{
closed = 1;
nodes = (
"502 16 OFFCURVE",
"429 -12 OFFCURVE",
"326 -12 CURVE SMOOTH",
"119 -12 OFFCURVE",
"44 97 OFFCURVE",
"44 337 CURVE SMOOTH",
"44 577 OFFCURVE",
"119 692 OFFCURVE",
"326 692 CURVE SMOOTH",
"533 692 OFFCURVE",
"608 577 OFFCURVE",
"608 337 CURVE SMOOTH",
"608 217 OFFCURVE",
"587 129 OFFCURVE",
"545 73 CURVE SMOOTH"
);
},
{
closed = 1;
nodes = (
"262 910 LINE",
"267 877 OFFCURVE",
"291 853 OFFCURVE",
"328 853 CURVE SMOOTH",
"364 853 OFFCURVE",
"389 877 OFFCURVE",
"393 910 CURVE",
"514 910 LINE",
"503 819 OFFCURVE",
"442 759 OFFCURVE",
"327 759 CURVE SMOOTH",
"212 759 OFFCURVE",
"152 819 OFFCURVE",
"141 910 CURVE"
);
}
);
width = 652;
}
);
leftKerningGroup = G;
rightKerningGroup = O;
unicode = 014E;
},
